<?xml version="1.0" encoding="utf-8"?>
<!-- Generator: Adobe Illustrator 19.2.1, SVG Export Plug-In . SVG Version: 6.00 Build 0)  -->
<svg version="1.1" xmlns="http://www.w3.org/2000/svg" xmlns:xlink="http://www.w3.org/1999/xlink" x="0px" y="0px"
	 viewBox="0 0 256 256" style="enable-background:new 0 0 256 256;" xml:space="preserve">
<title>256_arrow</title>
<path d="M21,53h1c2.8,2,5.9,3.7,8.3,6.1c31.2,31,62.3,62.1,93.4,93.3c1.4,1.4,2.8,2.7,5,4.8c1.1-1.7,2.3-3.3,3.6-4.8
	c31.1-31.1,62.3-62.2,93.4-93.3c2.4-2.4,5.5-4.1,8.3-6.1h1c2.1,1.2,4.6,2.1,6.3,3.8c5.1,4.9,9.9,10.1,14.7,15.2v5
	c-2.3,2.6-4.4,5.4-6.9,7.8c-37.2,37.2-74.4,74.4-111.6,111.6c-2.5,2.5-5.7,4.4-8.5,6.6h-2c-2.7-2.1-5.8-3.9-8.2-6.2
	c-37.4-37.3-74.7-74.6-112-111.9C4.4,82.4,2.2,79.6,0,77l0-5C6.6,65.2,12,57.1,21,53z"/>
</svg>
