<svg xmlns="http://www.w3.org/2000/svg" viewBox="0 0 256 256"><title>right</title><path d="M53,235v-1c2-2.78,3.71-5.88,6.11-8.29q46.55-46.79,93.27-93.4c1.37-1.37,2.68-2.8,4.81-5a45.08,45.08,0,0,1-4.78-3.6Q105.69,77,59.11,30.29C56.72,27.89,55,24.78,53,22V21c1.23-2.11,2.11-4.56,3.76-6.26C61.68,9.67,66.9,4.89,72,0h5c2.62,2.28,5.38,4.42,7.83,6.87q55.84,55.75,111.57,111.61c2.52,2.53,4.42,5.67,6.61,8.52v2c-2.07,2.74-3.85,5.76-6.25,8.17q-55.88,56.06-111.92,112c-2.45,2.45-5.21,4.59-7.84,6.83H72C65.19,249.42,57.11,244,53,235Z"/></svg>