<svg xmlns="http://www.w3.org/2000/svg" width="496" height="233" viewBox="0 0 496 233">
    <g fill="#000" fill-rule="evenodd">
        <path d="M270.796 99.124c-1.097 2.366-6.057 13.854-7.143 16.228-1.086 2.377-4.152 4.402-5.231 4.927-.73.356-2.917 1.203-5.47 1.377l.004-.038a6.336 6.336 0 0 1-1.199-.444c1.083-.994 2.465-2.319 3.188-3.25.815-1.046 2.604-2.446 2.584-4.713-.017-1.773-1.243-12.513-2.156-18.923 1.63-.597 3.072-1.103 3.877-1.342 2.305-.68 10.65-2.913 11.546-1.683.896 1.236 1.1 5.49 0 7.86m-31.023 9.46c1.036-4.23 4.55-9.712 7.143-10.924.764-.355 1.97-.86 3.32-1.4.184 1.512.469 3.77.724 5.928-1.98-.417-4.4-.406-6.407.83-2.478 1.516-2.55 5.976-.122 10.576.425.803.839 1.537 1.253 2.237-.32.276-.635.55-.947.802-2.197 1.79-4.532 3.337-5.805 4.143v-.11c-.024-2.052-.024-8.55.841-12.082m11.733-.765c.044 1.827-1.993 4.409-4.366 6.69-.818-3.282-.634-6.444-.59-6.57.733-2.155 3.32-1.906 4.861-1.55.051.587.085 1.082.095 1.43m-83.769 11.369c-1.191-1.257-5.533-6.41-5.313-9.876 1.905 3.117 4.78 5.614 6.4 6.86-.01 2.001-.133 4.023-1.087 3.016m-7.434-29.427c1.931-1.7 2.783-2.346 4.382-2.268 1.6.079 3.45.253 3.776 1.903.06.303.122 3.77.363 5.231.21 1.28.054 13.974.01 18.591-1.769-1.639-4.054-7.215-5.262-9.575-1.385-2.691-4.332-4.812-5.021-5.328-.357-.266-1.076-.413-1.759-.505 0-.038 0-.075.004-.113.648-2.233 2.074-6.676 3.507-7.936m113.776-1.267c-1.453-1.083-3.898-3.173-9.547-2.944-2.95.123-6.606 1.35-10.072 2.91-.289-3.121.305-6.024.485-6.656.214-.751-.05-1.233-.553-1.65-.5-.416-1.898-1.078-3.463-1.69-1.565-.608-2.444.902-2.078 2.705.231 1.127.642 6.079.917 9.647a60.765 60.765 0 0 0-3.643 2.19c-4.47 2.936-5.961 8.54-6.935 11.73-.724 2.38-1.521 6.205-1.953 8.195-.651-2.253-1.307-4.845-1.517-6.973-.373-3.746-2.536-10.542-3.823-13.632-1.283-3.091-3.286-3.904-3.286-3.904.197 0 .832-1.639 0-1.588-.828.055-.316-.901-5.218-2.134-4.902-1.23-18.108 5.706-22.847 8.271-4.74 2.565-9.408 8.585-15.444 13.329-5.68 4.463-7.441 7.031-10.778 8.21-.652.228-1.131.33-1.545.375.584-4.207 1.059-9.19 1.317-10.43.435-2.09-.024-8.376-.543-13.178-.52-4.801-3.395-6.686-4.064-7.093-.672-.406-2.43-.799-5.252-1.267-2.82-.47-3.914 1.329-4.586 2.439-.431.717-2.003 2.844-3.191 4.285-.863-2.178-2.947-6.177-4.139-8.431.835-1.014 1.48-1.848 1.806-2.36 1.844-2.92 4.957-7.055 5.232-9.289.278-2.236-1.039-4.49-1.039-4.49s-1.596-2.404-3.344 1.157c-1.745 3.562-8.219 14.31-11.81 18.933-3.596 4.627-10.827 13.718-11.441 14.82-.615 1.104-.805 1.777.288 1.346 1.09-.437 5.462-3.701 6.973-5.224 1.07-1.08 7.3-7.831 11.495-12.708-.024.4-.027.81.02 1.226.296 2.586.612 30.677.625 31.401.014.727.109 5.416.67 5.655.56.24 1.615 1.83 1.615 1.83s2.156-2.643 2.336-4.063c.18-1.42.373-5.109.6-8.449.079-1.113.174-3.541.262-6.331.625 1.308 1.823 4.084 3.378 7.998 2.05 5.17 5.876 8.957 8.039 9.845 2.16.881 2.315.188 3.45-1.533.186-.287.373-.892.556-1.687 1.84-3.572 4.047-2.534 4.047-2.534s8.528-7.742 10.704-9.61c2.6-2.23 8.752-6.734 12.374-8.834 4.386-2.548 5.724-3.149 8.63-4.535 2.91-1.39 10.741-3.07 12.853-3.511 2.105-.44 4.03-.355 4.793.126.768.489 1.413 4.785 2.23 6.212.822 1.424 6.139 20.483 6.967 23.314.21.72.394 1.52.557 2.315-.21.516-.384.899-.469.994-.363.383-1.408-.085-1.853 1.506-.448 1.588 1.171 3.941 3.778 4.692 2.608.752 5.989-1.909 7.486-2.78 1.494-.867 5.13-3.21 6.47-3.612.656-.195 1.118-.014 1.824.208.186.133.292.205.292.205l.013-.116c.713.205 1.674.403 3.219.341 3.473-.143 5.74-2.41 8.171-4.74 2.43-2.332 5.629-6.843 8.138-10.658 2.505-3.814 4.403-11 4.403-11 1.035-1.611.716-5.563.499-6.293-.214-.731-1.623-1.404-3.08-2.483M75.57 89.653c-.648.358-1.504.758-2.485 1.174.934-2.708 2.546-7.39 3.84-11.235 1.188.075 2.471.11 3.809.069.343 1.321.652 3.63.859 5.525-1.722 1.574-3.8 3.234-6.023 4.467m-3.948-10.7s.845.161 2.128.332c-1.67 4.839-3.697 10.112-3.697 10.112L69.286 89c.275-5.344.767-10.64.767-10.64s.686.372 1.569.594m7.248-5.406c.34-1.575 1.304.375 1.049 1.226-.255.85-.146 2.838.526 4.033.017.034.037.112.058.16a45.903 45.903 0 0 1-3.205-.491c.835-2.497 1.47-4.454 1.572-4.928m-12.714 58.621c-.275 1 0 3.374 0 4.286 0 .912-2.088 2.92-2.814 1.458-.723-1.458-3.986-3.466-4.532-4.743-.544-1.274-1.358-2.917-.635-4.833.726-1.912 4.444-13.953 4.895-15.046.455-1.093 1.188-2.862 1.453-2.281.452 1.004.635 7.752.452 9.575-.18 1.824 0 6.113.455 7.295.451 1.188.998 3.285.726 4.289m33.104-25.865c-.87-.376-1.912-.184-1.912-.184s-.23 1.468-.115 2.472c.122 1.004 1.263 3.425 1.103 7.452-.166 4.019-2.699 4.367-7.173 5.866-.835.28-1.725.27-2.614.072.125-3.845-.825-22.969-1.31-31.69.8-.615 1.429-1.162 1.771-1.565 1.243-1.461-.044-3.107-.726-4.245-.686-1.137-2.176-4.022-2.176-4.022l-.044.05c-.262-1.085-.53-2.086-.744-2.98-.53-2.234-2.064-8.6-4.169-11.352-2.108-2.752-1.775-2.319-2.447-3.18-.67-.856-1.314-1.16-2.716-.836 0 0-1.172.605-.584 2.223.584 1.612 1.419 4.867-.061 9.986a84.502 84.502 0 0 1-1.063 3.37 22.328 22.328 0 0 1-2.383-.85c-1.932-.72-4.58-2.049-5.238-2.326a7.396 7.396 0 0 0-3.243-.618s-.468 2.24.591 3.647c1.06 1.404.105.533.105.533s.635 10.167.52 15.815c-7.914 2.65-17.477 5.406-21.996 6.734-7.197 2.107-22.993 7.103-26.038 7.93-3.049.826-8.158 1.67-9.635 1.96-1.48.287-1.721-.178-2.353-.857-.631-.68-1.748-.407-2.57-.209-.818.202-2.04.417-2.04.417 3.385 10.03 13.325 6.676 15.389 6.226 2.067-.448 8.874-2.418 11.733-3.286 2.855-.87 14.642-4.401 18.59-6.348 2.142-1.062 10.304-3.678 18.037-6.16-.754 2.96-1.81 5.6-2.41 6.782-.866 1.704-7.656 14.257-7.904 18.095-.244 3.842 1.667 9.118 5.605 12.451 3.942 3.337 7.062 3.972 7.595 2.128.53-1.844 1.025-7.28 1.212-10.84.17-3.288 1.364-22.757 1.33-30.365 4.275-1.387 7.856-2.585 9.333-3.22a42.255 42.255 0 0 0 3.928-1.974c.78 6.99 2.156 19.018 3.1 27.265-2.662-1.636-4.784-4.054-4.784-4.054 1.864 3.624 3.63 5.54 5.072 6.588.438 3.8.727 6.328.727 6.328l-.364-6.069c.061.038.126.096.184.13.553 3.364 1.785 10.836 1.918 11.672.166 1.083.692 7.483 1.565 10.126 0 0-1.151-14.572-1.31-20.954 1.357.198 7.811.594 11.566.529 3.751-.068 3.687-4.026 4.43-7.117.74-3.087-1.293-7.503-2.01-8.568-.716-1.062-2.407-2.602-3.272-2.978M56.895 71.15c3.35-2.827 6.613-5.76 9.933-8.633 1.901-1.649 2.268-4.934.452-6.659-1.643-1.564-3.507-2.937-5.429-4.139-.499-.31-1.734.133-2.339.608-.312.25-.173 1.41.106 1.994.35.735 1.038 1.312 1.605 1.937 1.355 1.489 1.324 2.95.347 4.726-2.32 4.21-4.943 8.158-8.423 11.491-.418.4-.757.885-1.13 1.329.139.188.281.372.424.553 1.49-1.062 3.059-2.028 4.454-3.207M89.559 55.186c1.022.359 2.332 1.13 2.655 2.025.828 2.288 2.519 2.237 4.56 2.309-.116-1.035.104-2.247-.391-2.923-2.282-3.101-5.381-5.294-8.732-7.097-.322-.174-1.06.096-1.395.396-.262.24-.4.926-.251 1.257.75 1.7 1.548 3.323 3.554 4.033M463.515 87.345c-.071-5.065-.126-8.876-.17-9.343 0 0 3.398 2.305 8.172 3.083 4.773.782 17.697 1.964 15.925 1.96-.635-.003-13.223 3.265-23.13 4.225-.264.02-.532.048-.797.075m-2.455 65.485c-.268 4.737-.067 11.874-2.787 11.481-2.722-.389-6.386.386-11.519-7.427-5.13-7.814-10.765-17.215-6.762-18.953 4.01-1.738 13.902-.38 17.307-.147.886.058 2.08.15 3.408.26.279 6.935.462 12.932.353 14.786m-5.577-108.275c.373 3.566 1.052 9.835-2.516 11.673-.458-2.541-1.025-6.287-1.178-9.654l1.585-4.27c.988.011 1.922.506 2.109 2.251m39.669 39.908c-4.125-3.477-7.778-4.303-11.814-4.313-4.04-.014-13.077-1.933-18.136-4.607-5.055-2.678-8.137-4.812-7.937-1.69.088 1.321.428 7.205.815 13.963-8.328.67-16.961 1.148-21.578 1.339-5.792.242-17.49.673-15.96-2.575 1.528-3.248 7.18-12.769 11.394-19.561 4.213-6.796 8.575-14.677 8.568-17.317 0 0 1.555.485 1.881 4.08.065.677.323 1.513.72 2.418-1.759 5.471-5.293 11.58-3.663 13.486 1.68 1.964 3.55 2.449 3.55 2.449s2.112-4.57 3.813-10.078c1.514 1.827 3.052 3.156 3.959 3.074 2.186-.195 1.935-3.255 1.935-3.255s3.69 1.236 4.878-.051c1.185-1.288 5.344-8.517 4.227-14.012-1.12-5.498-3.694-6.621-5.198-7.837-.482-.386-1.344-.406-2.281-.28 1.338-3.719 2.329-6.81 2.329-8.131-.017-3.524-.187-7.694-4.424-8.719-4.237-1.024-7.384-.717-12.218.987 0 0 4.736-5.487 7.39-7.642 2.652-2.159 6.55-5.423 7.738-5.638 0 0 1.212-1.763.343-2.924-.87-1.157-3.287-3.507-3.287-3.507s-.98-1.653-3.038 1.534c-1.426 2.206-5.656 8.615-9.526 13.178-.116 0-.234.037-.346.014-1.087-.243-1.216-1.732-1.64-4.197-.424-2.47 1.124-9.204-7.805-14.603 0 0-2.879-.697-1.324 3.234 1.548 3.91 5.106 16.966 9.078 17.802-.968.984-1.874 1.762-2.651 2.217-4.24 2.479-5.826 4.272-3.463 5.805 2.366 1.537 17.334-1.212 19.398-1.902 0 0-1.826 9.176-3.072 11.068-1.246 1.892-1.823 3.077-1.823 3.077s-.574 4.941-1.575 9.773a49.112 49.112 0 0 1-.893-2.315c-1.087-3.084-.805-7.574-.764-10.255.04-2.68-4.515-8.135-5.622-4.617-1.107 3.517-.33 3.39-.564 5.69-.234 2.304-3.058 16.135-8.08 24.915-5.024 8.78-12.781 18.608-13.165 21.056-.383 2.449-.635 5.864 4.716 8.224 5.35 2.366 12.85 2.52 21.055 1.96 3.83-.26 10.493-.745 17.371-1.335.414 7.212.805 14.086.944 16.45.163 2.783.672 12.666 1.09 22.207-4.067-.663-8.28-1.352-10.351-1.51-3.5-.262-10.575-1.28-14.041.445-3.467 1.724-3.517 2.984-2.363 6.184 1.16 3.203 6.84 16.692 10.931 20.995 4.095 4.306 8.185 8.712 11.98 9.02 3.79.3 5.246-.564 5.287-3.658.044-3.098.268-9.948.614-15.716.122-2.066.4-6.003.69-10.61 3.177.263 6.5.546 8.055.649 2.676.167 4.105-.263 5.748-1.424 1.65-1.162 2.25-2.183 2.25-2.183s-6.646-.44-11.359-1.048c-1.215-.157-2.746-.39-4.416-.656.414-7.233.747-15.066.536-19.663-.193-4.21-.34-12.424-.451-19.943 6.08-.567 11.807-1.196 15.314-1.807 8.423-1.462 20.356-4.231 16.23-7.714M420.89 29c-.319-1.253-1.066-2.513-1.949-3.473-.957-1.038-2.223-1.861-3.48-2.537-.913-.492-2.26-1.083-3.004-.741-.764.352-1.219 1.748-1.446 2.77-.146.645.255 1.502.608 2.161 1.51 2.817 3.995 3.794 7.088 3.538 1.029-.15 2.621.024 2.183-1.718M334.052 128.658c-1.742.235-8.514-1.988-10.46-7.954-1.948-5.966-2.166-13.082-.577-17.62.88-2.51 5.527-11.69 10.124-20.655-.007 6.926.047 13.48.227 15.419.404 4.392.75 15.364.75 15.364l.761-5.672s.088 10.248.081 11.587c-.003 1.338.836 9.295-.906 9.53m5.316-72.98s.398-1.12 3.674-1.12c.468 0 .828.034 1.229.047-2.166 4.42-4.953 9.61-5.935 11.017-.112.16-.288.43-.495.748.068-2.394.214-4.21.495-4.88 1.114-2.684 1.813-5.058 1.032-5.812m11.305-4.921c.398 1.553.724 2.998.944 4.251a36.73 36.73 0 0 0-2.824-1.444c.682-1.038 1.313-1.981 1.88-2.807m-9.753 16.518c.502-.987.957-1.882 1.293-2.572 1.5-3.032 3.568-6.464 5.49-9.456.56.232 1.073.506 1.551.878 1.416 1.103.306 4.552-1.707 7.124-1.864 1.434-4.135 2.776-6.627 4.026m33.212 16.873s.6.81.6 1.298c0 .485-.953.553 0 2.042.955 1.489 2.663 5.027 2.421 7.803-.237 2.78-.845 7.95-5.136 8.05-3.86.088-8.243-2.948-11.023-6.305-.513-7.226-.991-14.264-1.226-16.935-.461-5.34-1.08-17.652-2.122-23.385-1.042-5.737-2.24-10.956-2.844-13.377-.601-2.424-.218-4.422-4.288-5.48 0 0-3.823-1.68-2.618 2.888.184.687.404 1.479.642 2.316-.424 1.786-1.066 4.193-1.89 6.324-.29.741-.71 1.7-1.213 2.79-.007.017-.02.038-.027.058-.937-.307-1.894-.59-2.9-.792l-5.89-1.192s-2.732-2.049-2.658 2.33c.017 1.082-.42 7.929-.594 10.357-.054.724-.108 3.75-.152 7.721-4.509 1.748-9.004 3.196-12.48 4.269-8.406 2.585-18.088 4.764-21.065 5.2-2.981.441-4.383-.587-4.383-.587l-.744.516c-.743.516-.44 3.439 3.33 5.15 3.773 1.707 4.822.84 15.702-1.134 4.464-.81 10.568-2.92 16.625-5.443-2.427 3.964-4.64 7.663-5.439 9.152-1.931 3.606-8.969 15.118-7.183 24.87 1.792 9.757 6.63 16.201 11.705 18.025 5.076 1.827 7.523 1.363 7.805-1.144.285-2.51.346-21.35.693-24.338.34-2.989.475-13.425.438-16.833-.017-1.65-.255-7.383-.364-13.158 5.738-2.745 10.698-5.529 13.139-7.472.6-.478 1.093-.966 1.561-1.454.713 7.997 1.78 18.574 2.129 21.22.536 4.06 2.315 21.006 3.16 29.915.842 8.91 5.894 39.49 6.81 46.454.917 6.956.581 6.977 1.253 9.733.672 2.762 3.728 24.362 4.186 27.634.455 3.268 4.763 31.71 4.763 31.71s.96-1.809.17-7.652c-.788-5.843-3.072-18.731-3.677-22.016-.604-3.282-2.57-18.168-3.524-24.943-.947-6.775-3.34-21.979-3.177-25.998.166-4.023-.801-15.187-1.148-19.326-.35-4.139-.36-11.085-1.086-17.911-.302-2.865-.733-8.561-1.171-14.592 1.385 1.543 3.809 4.026 5.978 5.064 3.242 1.554 8.127 3.668 11.448 2.777 3.316-.892 4.6-5.994 3.938-10.986-.67-4.993-1.097-10.136-8.474-13.213M315.858 62.03c1.334-1.353 2.675-2.692 3.965-4.085 1.31-1.417 2.736-2.776 3.775-4.381 1.07-1.643 1.8-3.528 2.529-5.365.217-.543.2-1.51-.146-1.895a37.587 37.587 0 0 0-4.203-4.095c-.499-.417-1.735-.693-2.057-.396-.496.454-.584 1.444-.686 2.23-.214 1.65.017 3.442-.543 4.948-1.582 4.241-3.483 8.367-5.242 12.543-.424 1.014-.77 2.063-1.154 3.098.23.157.458.31.69.464 1.021-1.021 2.056-2.035 3.072-3.067M367.407 10.214c2.194-.05 3.297 1.278 4.458 2.808.625.82 1.582 1.417 2.485 1.96.224.133 1.195-.407 1.178-.557-.156-1.315-.16-2.783-.777-3.886-1.735-3.1-4.651-4.972-7.754-6.465-2.05-.983-2.862-.327-2.835 1.97.017 1.787 1.759 4.208 3.245 4.17"/>
    </g>
</svg>
