<?xml version="1.0" encoding="UTF-8"?>
<svg width="10px" height="10px" viewBox="0 0 10 10" version="1.1" xmlns="http://www.w3.org/2000/svg" xmlns:xlink="http://www.w3.org/1999/xlink">
    <!-- Generator: sketchtool 40.1 (33804) - http://www.bohemiancoding.com/sketch -->
    <title>00C8219A-07E3-4C36-8905-6299F08E4C6B</title>
    <desc>Created with sketchtool.</desc>
    <defs></defs>
    <g id="Symbols" stroke="none" stroke-width="1" fill="none" fill-rule="evenodd">
        <g id="elements" transform="translate(-1024.000000, -721.000000)" fill="#9B9B9B">
            <g id="所有標籤" transform="translate(975.000000, 707.000000)">
                <g id="標籤" transform="translate(4.000000, 4.000000)">
                    <path d="M49,14 L45.0024733,14 C44.455761,14 44,14.4477153 44,15 C44,15.5561352 44.4488226,16 45.0024733,16 L49,16 L49,19.9975267 C49,20.544239 49.4477153,21 50,21 C50.5561352,21 51,20.5511774 51,19.9975267 L51,16 L54.9975267,16 C55.544239,16 56,15.5522847 56,15 C56,14.4438648 55.5511774,14 54.9975267,14 L51,14 L51,10.0024733 C51,9.45576096 50.5522847,9 50,9 C49.4438648,9 49,9.44882258 49,10.0024733 L49,14 Z" id="Combined-Shape" transform="translate(50.000000, 15.000000) rotate(45.000000) translate(-50.000000, -15.000000) "></path>
                </g>
            </g>
        </g>
    </g>
</svg>