<svg xmlns="http://www.w3.org/2000/svg" width="24" height="24" viewBox="0 0 24 24">
    <path fill="#9B9B9B" fill-rule="evenodd" d="M11.222 20.836h.003l.14.116c.108.09.21.033.276-.007V3.003h.5l-.5-.01c.008.032-.061.008-.172.007-.034 0-.071.024-.097.045l-.013.01c-.268.217-4.645 3.81-6.96 5.712l-.138.114h-2.2A1.07 1.07 0 0 0 1 9.958v4.084a1.07 1.07 0 0 0 1.06 1.077h2.2l.14.114s5.856 4.813 6.822 5.603M11.469 22c-.268 0-.525-.097-.745-.28l.024-.03c-.49-.348-1.933-1.535-6.844-5.571H2.06A2.071 2.071 0 0 1 0 14.042V9.958C0 8.813.925 7.88 2.06 7.88h1.844c4.954-4.07 6.388-5.248 6.87-5.59l-.025-.03a1.15 1.15 0 0 1 .72-.261c.7 0 1.172.403 1.172 1.003v18.024c0 .574-.617.973-1.172.973"/>
</svg>
