<svg xmlns="http://www.w3.org/2000/svg" width="24" height="24" viewBox="0 0 24 24">
    <g fill="#9B9B9B" fill-rule="evenodd">
        <path d="M15.886 16.499a.5.5 0 0 1-.333-.873c.013-.012 1.296-1.19 1.296-3.174 0-2.003-1.281-3.161-1.295-3.173a.5.5 0 1 1 .664-.748c.066.059 1.63 1.473 1.63 3.921 0 2.448-1.564 3.862-1.631 3.921a.493.493 0 0 1-.331.126"/>
        <path d="M18.143 18.632a.5.5 0 0 1-.335-.872c.022-.02 2.157-1.984 2.157-5.308 0-3.342-2.134-5.287-2.156-5.306a.5.5 0 1 1 .666-.746c.102.09 2.49 2.267 2.49 6.052 0 3.786-2.388 5.962-2.49 6.053a.499.499 0 0 1-.332.127"/>
        <path d="M20.48 20.344a.5.5 0 0 1-.335-.872c.027-.025 2.855-2.623 2.855-7.02 0-4.416-2.826-6.992-2.855-7.017a.5.5 0 1 1 .666-.746c.13.116 3.19 2.905 3.19 7.763 0 4.86-3.06 7.649-3.19 7.765a.497.497 0 0 1-.331.127M11.222 20.836h.003l.14.116c.108.09.21.033.276-.007V3.003h.5l-.5-.01c.008.032-.061.008-.172.007-.034 0-.071.024-.097.045l-.013.01c-.268.217-4.645 3.81-6.96 5.712l-.138.114h-2.2A1.07 1.07 0 0 0 1 9.958v4.084a1.07 1.07 0 0 0 1.06 1.077h2.2l.14.114s5.856 4.813 6.822 5.603M11.469 22c-.268 0-.525-.097-.745-.28l.024-.03c-.49-.348-1.933-1.535-6.844-5.571H2.06A2.071 2.071 0 0 1 0 14.042V9.958C0 8.813.925 7.88 2.06 7.88h1.844c4.954-4.07 6.388-5.248 6.87-5.59l-.025-.03a1.15 1.15 0 0 1 .72-.261c.7 0 1.172.403 1.172 1.003v18.024c0 .574-.617.973-1.172.973"/>
    </g>
</svg>
