<?xml version="1.0" encoding="UTF-8"?>
<svg width="24px" height="24px" viewBox="0 0 24 24" version="1.1" xmlns="http://www.w3.org/2000/svg" xmlns:xlink="http://www.w3.org/1999/xlink">
    <!-- Generator: Sketch 49 (51002) - http://www.bohemiancoding.com/sketch -->
    <title>Clap Icon_on</title>
    <desc>Created with Sketch.</desc>
    <defs></defs>
    <g id="4_Account" stroke="none" stroke-width="1" fill="none" fill-rule="evenodd">
        <g id="Clap-Icon_on">
            <path d="M12.001,0 C5.373,0 0,5.373 0,12 C0,18.628 5.373,24 12.001,24 C18.629,24 24.001,18.628 24.001,12 C24.001,5.373 18.628,0 12.001,0 L12.001,0 Z" id="Path" fill="#28646E"></path>
            <g id="Page-1" transform="translate(3.500000, 3.500000)" fill="#FFFFFF">
                <path d="M14.0765711,5.06909453 C13.8837273,5.06909453 13.655157,5.12195391 13.4370789,5.17932891 L13.3636336,5.19858672 L13.3430477,5.27163359 C13.2782352,5.50073516 13.2055867,5.73222734 13.1270945,5.96000078 L13.0864539,6.07767266 L13.2013367,6.12575078 C13.2138211,6.13106328 13.2247117,6.13717266 13.2356023,6.14328203 L13.2661492,6.15975078 L13.3106414,6.18219609 L13.3589852,6.16984453 C13.6358992,6.09918828 13.8742977,6.03769609 14.0205242,5.99878203 C14.4070086,5.89571953 14.5395555,5.72213359 14.5828523,5.59476641 C14.6222977,5.47789141 14.6013133,5.35025859 14.5268055,5.25357109 C14.430782,5.12939141 14.2836258,5.06909453 14.0765711,5.06909453 M15.548532,6.33612578 C15.253157,6.33612578 14.8337352,6.41435234 14.2283758,6.58249297 L14.2089852,6.58661016 L14.189993,6.59178984 C14.103532,6.61503203 13.996618,6.64252422 13.8745633,6.67333672 L13.7506492,6.70454766 L13.7772117,6.82978984 C13.8193133,7.02675078 13.8150633,7.26222734 13.7648602,7.52971172 L13.7278055,7.72693828 L13.9238367,7.68390703 C14.5290633,7.55122734 15.1438523,7.40818828 15.6105555,7.29157891 C15.8817586,7.22384453 16.085493,7.06088359 16.1423367,6.86618047 C16.181118,6.73350078 16.1463211,6.59736797 16.0471102,6.49244609 C15.947368,6.38725859 15.7842742,6.33612578 15.548532,6.33612578 M6.90429766,1.84653203 C6.79246953,1.84653203 6.67253984,1.91214141 6.58342266,2.02197734 C6.43294609,2.20738359 6.28990703,2.42028203 6.12415703,2.66664922 C5.79943047,3.14928984 5.39528203,3.75013359 4.74396953,4.39175078 L4.70160234,4.43358672 L4.70465703,4.49308672 C4.70625078,4.52496172 4.70731328,4.54488359 4.70744609,4.56467266 C4.71302422,5.76025078 4.81542266,7.13764922 4.90746172,7.67394609 L4.91357109,7.70847734 L4.96111797,7.95776641 L5.13882109,7.77647734 C5.17215703,7.74247734 5.21027422,7.70103984 5.25317266,7.65030547 C5.43486016,7.43621172 5.67923516,7.18851641 5.96225859,6.90190703 C6.17914141,6.68223516 6.44888359,6.40890703 6.70600859,6.13013359 L6.88357891,5.93742266 L6.62326641,5.90807109 C6.10463359,5.84963359 5.80195391,5.69211797 5.67060234,5.41241484 C5.47736016,5.00096172 5.78840703,4.58844609 6.01551641,4.28722734 C6.30743828,3.89994609 6.65620391,3.36909453 7.02967266,2.36768828 C7.11998516,2.12570391 7.11082109,1.93073516 7.00629766,1.87110234 C6.97774297,1.85476641 6.94334453,1.84653203 6.90429766,1.84653203 M14.8035867,8.35965703 C14.7779539,8.35965703 14.751657,8.36125078 14.7248289,8.36443828 C14.6519148,8.37346953 14.347907,8.41291484 13.4968445,8.54214141 L13.4248602,8.55303203 L13.3953758,8.61970391 C13.2565867,8.93327422 13.1393133,9.19039922 13.026157,9.42932891 L12.9290711,9.63399297 L13.155118,9.61885234 C13.6738836,9.58378984 14.0925086,9.54261797 14.3991727,9.49600078 L14.4287898,9.49161797 C14.7277508,9.44646172 15.0997586,9.39028203 15.3001727,9.18986797 C15.4077508,9.08242266 15.4299305,8.90777422 15.3580789,8.73445391 C15.263782,8.50668047 15.0462352,8.35965703 14.8035867,8.35965703 M12.7954617,10.3389617 C12.7448602,10.3389617 12.6923992,10.340157 12.6384773,10.3424148 L12.5635711,10.3456023 L12.5275789,10.4114773 C12.348282,10.7393914 12.162743,11.0495086 11.9760086,11.3330633 L11.8301805,11.5541961 L12.0946102,11.538657 C12.1526492,11.5353367 12.201657,11.5317508 12.2332664,11.5282977 C12.2939617,11.5215242 12.3651492,11.5164773 12.4420477,11.5108992 C12.9021102,11.4780945 13.6720242,11.4231102 13.638157,10.8305008 C13.6101336,10.3389617 12.9970711,10.3389617 12.7954617,10.3389617 M7.10245391,16.8357508 C7.07376641,16.8357508 7.04521172,16.8322977 7.01732109,16.825657 C6.82248516,16.778907 6.70202422,16.5823445 6.74864141,16.3877742 C6.75050078,16.3799383 6.92886797,15.6353914 7.24429766,14.8426336 C7.46064922,14.299032 7.97636016,13.9666023 8.57361797,13.5818445 C9.02066484,13.2936414 9.52654766,12.9674539 10.0729383,12.4753836 C11.3447508,11.3301414 12.1344539,9.68140703 12.7748758,8.22591484 C13.1980164,7.26435234 13.0745008,6.95064922 13.0266883,6.87746953 C13.0094227,6.85117266 12.9880398,6.83669609 12.9778133,6.82978984 L12.843407,6.73841484 L12.7742117,6.88397734 C12.4346102,7.69625859 12.0351102,8.47679766 11.5870008,9.20394609 C11.5203289,9.31218828 11.4045164,9.37686797 11.2771492,9.37686797 C11.2102117,9.37686797 11.1446023,9.35814141 11.0869617,9.32254766 C11.0043523,9.27181328 10.9465789,9.19172734 10.9241336,9.09729766 C10.9016883,9.00273516 10.9173602,8.90525078 10.9683602,8.82264141 C12.2175945,6.79525859 12.8315867,4.73560234 12.8685086,3.92066484 C12.8790008,3.68930547 12.7532273,3.54945391 12.6421961,3.49991484 C12.608993,3.48517266 12.5740633,3.47773516 12.5382039,3.47773516 L12.5184148,3.47839922 L12.4193367,3.48570391 L12.3982195,3.58265703 C12.214407,4.42893828 11.6628367,6.57718047 10.5124148,8.24424297 C10.4445477,8.34252422 10.3325867,8.40122734 10.2129227,8.40136016 C10.1392117,8.40136016 10.0678914,8.37904766 10.0069305,8.33694609 C9.92697734,8.28182891 9.87345391,8.19882109 9.85592266,8.10346172 C9.83839141,8.00796953 9.85911016,7.91128203 9.91422734,7.83146172 C11.257493,5.88509453 11.8668367,2.96388359 11.8830398,2.12968828 C11.888618,1.84042266 11.7147664,1.72235234 11.5500789,1.70827422 C11.5378602,1.70721172 11.5261727,1.70668047 11.5150164,1.70668047 C11.4343992,1.70668047 11.2949461,1.73483672 11.2661258,1.92343047 C11.1744852,2.52161797 10.9586648,3.04675859 10.6601023,3.77350859 C10.596618,3.92796953 10.529282,4.09186016 10.4579617,4.26889922 C10.4483992,4.29253984 10.435118,4.31618047 10.4161258,4.34274297 L10.4057664,4.35735234 L10.399657,4.37408672 C10.0503602,5.33179766 9.55311016,6.25882891 8.92225078,7.12981328 C8.85425078,7.22384453 8.74401641,7.28002422 8.62767266,7.28002422 C8.55090703,7.28002422 8.47719609,7.25611797 8.41477422,7.21082891 C8.33601641,7.15385234 8.28435234,7.06978203 8.26894609,6.97389141 C8.25367266,6.87813359 8.27664922,6.78197734 8.33362578,6.70335234 C9.92046953,4.51300859 10.1514305,2.53476641 10.1817117,2.16050078 C10.1858289,2.11016484 10.1984461,1.95663359 10.0875477,1.88863359 C10.0315008,1.85396953 9.96668828,1.84666484 9.92219609,1.84666484 C9.89377422,1.84666484 9.86521953,1.84958672 9.83945391,1.85516484 L9.76507891,1.87150078 L9.74143828,1.94375078 C9.56692266,2.47925078 9.05493047,3.71121953 8.55103984,4.80944609 C8.11860234,5.75188359 7.21003203,6.67240703 6.48009453,7.41203984 C6.20411016,7.69174297 5.97009453,7.92881328 5.80726641,8.12072734 C5.67843828,8.27253203 5.33591484,8.67601641 4.92844609,8.67601641 C4.87452422,8.67601641 4.82046953,8.66884453 4.76761016,8.65436797 C4.46851641,8.57255547 4.27447734,8.28408672 4.19093828,7.79679766 C4.08030547,7.15172734 3.98587578,5.70340703 3.98056328,4.56812578 C3.97923516,4.23290703 3.84230547,4.10912578 3.72795391,4.06450078 C3.67841484,4.04511016 3.62422734,4.03528203 3.56671953,4.03528203 C3.47667266,4.03528203 3.38277422,4.05998516 3.32168047,4.09982891 L3.27267266,4.13170391 L3.26324297,4.18934453 C3.23707891,4.34752422 3.18833672,4.58233672 3.12657891,4.87957109 C2.95179766,5.72093828 2.65921172,7.12901641 2.54432891,8.47068828 C2.43595391,9.73771953 2.79189141,11.0855008 2.98327422,11.8094617 C3.09204766,12.2213133 3.13720391,12.3915789 3.11502422,12.5359461 C3.08753203,12.7147117 2.99429766,13.0168602 2.85311797,13.4742664 C2.76984453,13.7440086 2.67700859,14.0453602 2.57766484,14.3848289 C2.53264141,14.5388914 2.38933672,14.6463367 2.22903203,14.6463367 C2.19463359,14.6463367 2.16023516,14.6414227 2.12689922,14.6315945 C1.93445391,14.575282 1.82368828,14.3731414 1.88000078,14.1806961 C1.93591484,13.9897117 1.98930547,13.8125398 2.04003984,13.6458602 L2.11667266,13.3947117 L1.86897734,13.4818367 C1.48767266,13.6161102 1.16945391,13.7303289 1.16414141,13.7323211 C1.12496172,13.7463992 1.08365703,13.7537039 1.04195391,13.7537039 C0.889086719,13.7537039 0.751625781,13.6568836 0.699961719,13.5130477 C0.667024219,13.4216727 0.671805469,13.322993 0.713242969,13.2352039 C0.754547656,13.147282 0.827594531,13.0808758 0.919102344,13.0480711 L0.936500781,13.0416961 C1.18286797,12.9535086 1.80854766,12.7303836 2.29756328,12.5633055 L2.40766484,12.5257195 L2.38482109,12.4115008 C2.36636016,12.3198602 2.32080547,12.1476023 2.28069609,11.995532 C2.07802422,11.2290711 1.70083672,9.80213359 1.82010234,8.40879766 C1.84932109,8.06906328 1.89208672,7.69785234 1.94746953,7.30552422 L1.99554766,6.96459453 L1.73098516,7.18493047 C1.29828203,7.54538359 0.944336719,7.80622734 0.678844531,7.96042266 C0.623461719,7.99256328 0.560375781,8.00969609 0.496758594,8.00969609 C0.367532031,8.00969609 0.246938281,7.94036797 0.181992969,7.82867266 C0.133383594,7.74473516 0.120102344,7.64685234 0.145071094,7.55308672 C0.169907031,7.45918828 0.229805469,7.38069609 0.313742969,7.33195391 C0.709922656,7.10178984 1.31581328,6.61303984 2.16581328,5.83794609 L2.19848516,5.80819609 L2.20685234,5.76489922 C2.28215703,5.37177422 2.35507109,5.01902422 2.41483672,4.73175078 C2.47964922,4.41977422 2.52998516,4.17778984 2.55083672,4.04072734 C2.61471953,3.62316484 3.04941484,3.30826641 3.56167266,3.30826641 C3.59261797,3.30826641 3.62369609,3.30932891 3.65490703,3.31171953 C3.92093047,3.33137578 4.14591484,3.42593828 4.32321953,3.59301641 L4.42136797,3.68518828 L4.51221172,3.58597734 C4.95447734,3.10320391 5.26871172,2.63623516 5.52105547,2.26090703 C5.69132109,2.00789922 5.84976641,1.77282109 6.01896953,1.56390703 C6.24528203,1.28513359 6.57598516,1.11871953 6.90389922,1.11871953 C7.07031328,1.11871953 7.22610234,1.15949297 7.36701641,1.24011016 C7.69360234,1.42684453 7.97968047,1.90071953 7.71073516,2.62162578 C7.30486016,3.71028984 6.91930547,4.29572734 6.59590703,4.72471172 C6.55181328,4.78328203 6.48500859,4.87186797 6.43201641,4.95208672 L6.32536797,5.11398516 L6.51489141,5.15489141 C6.62911016,5.17959453 6.77440703,5.19619609 6.94693047,5.20429766 C6.98371953,5.20589141 7.02967266,5.20708672 7.08651641,5.20708672 C7.17071953,5.20708672 7.27896172,5.20469609 7.41642266,5.19805547 L7.48163359,5.19486797 L7.51895391,5.14121172 C7.67487578,4.91755547 7.79971953,4.70386016 7.89043047,4.50636797 C8.44731328,3.29299297 8.94934453,2.05544609 9.06861016,1.66086016 C9.16516484,1.34211016 9.51512578,1.11938359 9.91980547,1.11938359 C9.98886797,1.11938359 10.0585945,1.12602422 10.1271258,1.13903984 C10.2924773,1.17038359 10.4468055,1.24223516 10.573243,1.34702422 L10.6760398,1.43202422 L10.7606414,1.32882891 C10.9423289,1.10716484 11.2181805,0.979930469 11.5171414,0.979930469 C11.5484852,0.979930469 11.5802273,0.981391406 11.6122352,0.984047656 C12.1183836,1.02747734 12.6234695,1.43972734 12.609657,2.14376641 C12.6073992,2.26396172 12.5935867,2.42665703 12.5695477,2.61405547 L12.5532117,2.74235234 L12.6811102,2.76214141 C12.7752742,2.77675078 12.8594773,2.80092266 12.9385008,2.83625078 C13.3593836,3.02404766 13.616907,3.46259453 13.5945945,3.95373516 C13.5904773,4.04776641 13.5793211,4.15760234 13.5604617,4.28948516 L13.5358914,4.46320391 L13.7096102,4.43982891 C13.8388367,4.42243047 13.9638133,4.41366484 14.0813523,4.41366484 C14.3877508,4.41366484 14.645407,4.47263359 14.8474148,4.58871172 C15.0522117,4.70651641 15.1903367,4.88143047 15.2471805,5.09446172 C15.275868,5.20203984 15.3064148,5.36911797 15.2890164,5.55452422 L15.274407,5.70991484 L15.4300633,5.69942266 C15.4907586,5.69530547 15.5523836,5.69304766 15.6142742,5.69304766 C16.2565555,5.69304766 16.653532,5.93144609 16.8283133,6.42165703 C16.8955164,6.61011797 16.8742664,6.81783672 16.7673523,7.02250078 C16.5796883,7.38149297 16.1465867,7.69798516 15.6640789,7.82880547 L15.3515711,7.91367266 L15.6336648,8.07278203 C15.6975477,8.10877422 15.7505398,8.14928203 15.790782,8.19324297 C16.0512273,8.47732891 16.1269305,8.85358672 15.9934539,9.19982891 C15.8288992,9.62575859 15.3944695,9.90147734 14.8011961,9.95619609 C14.6473992,9.97040703 14.4702273,9.98860234 14.2769852,10.0095867 L14.0320789,10.0361492 L14.1887977,10.2262039 C14.283493,10.3408211 14.341532,10.4859852 14.3665008,10.6697977 C14.4099305,10.9914695 14.3382117,11.2654617 14.1532039,11.4840711 C13.854907,11.8366883 13.234407,12.061407 12.4933133,12.0854461 C12.4886648,12.0855789 12.0356414,12.1162586 11.417532,12.1657977 L11.3618836,12.1703133 L11.3260242,12.2132117 C11.074743,12.5148289 10.8241258,12.7771336 10.5595633,13.0153992 C9.96881328,13.5471805 9.41365703,13.9049773 8.96727422,14.1925164 C8.43443047,14.5361023 8.04980547,14.7840633 7.91964922,15.1114461 C7.63410234,15.8287664 7.46277422,16.5268289 7.45560234,16.5561805 C7.41602422,16.7210008 7.27086016,16.8357508 7.10245391,16.8357508" id="Fill-1"></path>
                <path d="M12.0868406,11.4060969 C12.2872547,11.1019563 12.4719969,10.7899797 12.6441219,10.4750813 C12.6960516,10.4729563 12.7465203,10.4717609 12.7952625,10.4717609 C13.1988797,10.4716281 13.4894734,10.5541047 13.5056766,10.8380578 C13.5366219,11.3807297 12.6372156,11.3496516 12.2184578,11.3962688 C12.1884422,11.3995891 12.141825,11.4029094 12.0868406,11.4060969 M13.1461531,9.486425 C13.2761766,9.21190156 13.3988953,8.94003438 13.5168328,8.67347969 C14.2340203,8.56444062 14.6031062,8.51330781 14.7409656,8.49630781 C14.7624813,8.49378438 14.7833328,8.49245625 14.8035203,8.49245625 C15.1813719,8.49245625 15.3730203,8.92927656 15.2062078,9.09595625 C15.0304969,9.2718 14.6526453,9.32319844 14.3791844,9.36476875 C14.0535281,9.414175 13.6183016,9.45455 13.1461531,9.486425 M13.8953484,7.55426875 C13.9488719,7.26951875 13.9533875,7.01890156 13.9071688,6.80201875 C14.0298875,6.77107344 14.1373328,6.74358125 14.2175516,6.72206563 C14.2245906,6.72020625 14.2308328,6.71821406 14.2376063,6.71622187 C14.2465047,6.7143625 14.2551375,6.71290156 14.2639031,6.71051094 C14.7963484,6.56255781 15.2406063,6.468925 15.5484656,6.468925 C15.7374578,6.468925 15.8750516,6.50412031 15.9506219,6.58380781 C16.1404109,6.78422188 15.9506219,7.06976875 15.5783484,7.1627375 C15.1459109,7.27084688 14.5332469,7.41441719 13.8953484,7.55426875 M13.3261141,6.04113594 C13.3014109,6.02865156 13.2794969,6.01457344 13.2525359,6.00328438 C13.3363406,5.76037031 13.408325,5.5286125 13.4707469,5.30774531 C13.6991844,5.24784688 13.9075672,5.20189375 14.0766375,5.20189375 C14.2276453,5.20189375 14.3473094,5.23855 14.4215516,5.33470625 C14.52395,5.46725313 14.4997781,5.73354219 13.986325,5.87047188 C13.8403641,5.90938594 13.6023641,5.97074531 13.3261141,6.04113594 M5.04405938,7.68349531 C5.04206719,7.67340156 5.040075,7.66264375 5.03834844,7.6514875 C4.94710625,7.12010469 4.84577031,5.7528 4.84019219,4.56399531 C4.84019219,4.53822969 4.83859844,4.51233125 4.83727031,4.48643281 C5.49097344,3.84229219 5.90269219,3.23374531 6.23445781,2.74074531 C6.39861406,2.49663594 6.54045781,2.28572969 6.68655156,2.10563594 C6.76597344,2.00775312 6.85336406,1.97933125 6.90436406,1.97933125 C6.92043437,1.97933125 6.93278594,1.98212031 6.94035625,1.98650312 C6.94952031,1.99168281 6.99281719,2.08690937 6.90529375,2.32132344 C6.53793437,3.30639375 6.19580937,3.82741719 5.90933281,4.20726094 C5.67584844,4.51697969 5.32309844,4.98501094 5.55034063,5.46884687 C5.73348906,5.85891719 6.17442656,5.99119844 6.608325,6.04007344 C6.35930156,6.31021406 6.1036375,6.56959687 5.8677625,6.80852656 C5.58261406,7.09739375 5.3365125,7.34694844 5.15177031,7.56449531 C5.11139531,7.61230781 5.07540313,7.6514875 5.04405938,7.68349531 M11.517075,0.8472375 C11.1683094,0.8472375 10.8612469,0.99651875 10.6579109,1.2446125 C10.5094266,1.12176094 10.3321219,1.0427375 10.1518953,1.00847187 C10.0739344,0.993729688 9.99610625,0.986690625 9.91987188,0.986690625 C9.46419219,0.986557813 9.0573875,1.23943281 8.94144219,1.62233125 C8.82350469,2.01240156 8.32452813,3.2421125 7.7696375,4.45097187 C7.67680156,4.65337812 7.55341875,4.85937031 7.40998125,5.0653625 C7.27517656,5.07187031 7.16879375,5.07426094 7.08631719,5.07426094 C7.03212969,5.07426094 6.98816875,5.07319844 6.95323906,5.07160469 C6.75893438,5.06244062 6.6285125,5.04358125 6.54298125,5.02512031 C6.59358281,4.94835469 6.65852813,4.86229219 6.70195781,4.80465156 C7.03133281,4.36783125 7.42339531,3.7723 7.83511406,2.66809688 C8.13314531,1.86909687 7.80483281,1.33731562 7.43295781,1.12481563 C7.26893438,1.03105 7.08737969,0.98589375 6.90396563,0.98589375 C6.54391094,0.98589375 6.17602031,1.15974531 5.91584063,1.48035469 C5.74185625,1.69484688 5.58115313,1.93390937 5.41075469,2.18678438 C5.14234063,2.58601875 4.84337969,3.02801875 4.4142625,3.49618281 C4.22898906,3.3218 3.98129375,3.20253438 3.66466875,3.17929219 C3.6301375,3.17663594 3.59573906,3.17544062 3.56187188,3.17544062 C2.98612969,3.17544062 2.494325,3.53204219 2.41955156,4.02065938 C2.39909844,4.15506562 2.34862969,4.39758125 2.28474688,4.70477656 C2.22498125,4.99244844 2.15180156,5.34599531 2.07636406,5.73978437 C1.38427813,6.37090937 0.695246875,6.95674531 0.2471375,7.21705781 C0.009934375,7.35478437 -0.0704171875,7.65852656 0.0671765625,7.89546406 C0.159348437,8.05404219 0.3257625,8.14249531 0.496692188,8.14249531 C0.581426562,8.14249531 0.667223437,8.12084687 0.745582812,8.07529219 C1.04374688,7.90210469 1.414825,7.62094063 1.81591875,7.28705 C1.76425469,7.65281562 1.71949688,8.02668281 1.68775469,8.39749531 C1.56662969,9.813675 1.94753594,11.2550891 2.1522,12.0295187 C2.19270781,12.1825187 2.23733281,12.3514563 2.25459844,12.4376516 C1.6623875,12.639925 0.882645312,12.9200266 0.8740125,12.9230813 C0.616223437,13.0157844 0.482215625,13.3001359 0.57491875,13.557925 C0.6477,13.7604641 0.838551563,13.8865031 1.04202031,13.8865031 C1.09766875,13.8865031 1.15437969,13.8769406 1.20989531,13.8570187 C1.21520781,13.8550266 1.53249688,13.7410734 1.91300469,13.6070656 C1.8621375,13.7742766 1.80848125,13.9519797 1.75243438,14.1434953 C1.67553594,14.4065969 1.82654375,14.6821828 2.08964531,14.7590812 C2.13599687,14.7727609 2.1830125,14.7791359 2.22896563,14.7791359 C2.44385625,14.7791359 2.64187969,14.6387531 2.70509844,14.4221359 C2.80470781,14.0817375 2.89780938,13.7797219 2.98002031,13.5134328 C3.12305938,13.05005 3.21748906,12.7437844 3.24630938,12.5559875 C3.27260625,12.3842609 3.22545781,12.2061594 3.11177031,11.7759797 C2.9225125,11.0598547 2.57016094,9.72655 2.67654375,8.48196406 C2.7907625,7.14958906 3.08228594,5.74549531 3.25666875,4.90651875 C3.32041875,4.59945625 3.36796563,4.37062031 3.3942625,4.2111125 C3.42653594,4.18999531 3.49360625,4.16808125 3.56678594,4.16808125 C3.60410625,4.16808125 3.6428875,4.17379219 3.67954375,4.18813594 C3.79017656,4.23143281 3.8468875,4.35933125 3.84781719,4.56877656 C3.85312969,5.70976875 3.94835625,7.16791719 4.06005156,7.81922969 C4.15315313,8.36176875 4.37946563,8.68596406 4.73274688,8.78251875 C4.79941875,8.80071406 4.86489531,8.80881562 4.9285125,8.80881562 C5.39747344,8.80881562 5.77399688,8.36522187 5.90853594,8.20664375 C6.06897344,8.01738594 6.30312188,7.78031562 6.57405938,7.50579219 C7.31156719,6.75858906 8.22943438,5.82863594 8.6717,4.86494844 C9.18223125,3.75264375 9.69262969,2.52213594 9.86780938,1.98490937 C9.88348125,1.98158906 9.90247344,1.97933125 9.92212969,1.97933125 C9.95573125,1.97933125 9.99185625,1.98557344 10.0180203,2.00177656 C10.0537469,2.02382344 10.0530828,2.10390937 10.0492313,2.1498625 C10.0196141,2.51801875 9.79197344,4.4639875 8.22611406,6.62537812 C8.06527813,6.84744062 8.11481719,7.15769062 8.33687969,7.31839375 C8.42480156,7.38214375 8.52653594,7.41282344 8.62747344,7.41282344 C8.7811375,7.41282344 8.93280938,7.34163594 9.0297625,7.20776094 C9.7607625,6.19865156 10.2270672,5.23456562 10.5244344,4.41962812 C10.5464813,4.38855 10.5662703,4.35547969 10.5811453,4.31855781 C10.6523328,4.14178438 10.7195359,3.97815937 10.7827547,3.82476094 C11.0849031,3.0891125 11.3033797,2.55759688 11.3974109,1.94400313 C11.4031219,1.90681563 11.41295,1.83947969 11.5150828,1.83947969 C11.5225203,1.83947969 11.5303563,1.83987812 11.5387234,1.840675 C11.6038016,1.84625312 11.7549422,1.8853 11.7502938,2.12701875 C11.7343563,2.95005781 11.1321844,5.83288594 9.80485625,7.75601094 C9.6492,7.98152656 9.70577813,8.29058125 9.93142656,8.4462375 C10.0174891,8.50560469 10.1156375,8.53415937 10.2129891,8.53415937 C10.3703719,8.53402656 10.5253641,8.45925313 10.6217859,8.31966719 C11.619075,6.87453437 12.2320047,4.97438594 12.5280438,3.61093281 C12.5314969,3.61066719 12.5346844,3.61053438 12.5381375,3.61053438 C12.5543406,3.61053438 12.5706766,3.61345625 12.588075,3.62129219 C12.6609891,3.65369844 12.7433328,3.7499875 12.7358953,3.914675 C12.6995047,4.71540156 12.0920203,6.74583906 10.8552703,8.75290156 C10.7114344,8.98625312 10.78395,9.2919875 11.0173016,9.43569062 C11.0985828,9.48576094 11.1883641,9.50953438 11.2770828,9.50953438 C11.4436297,9.50953438 11.606325,9.42572969 11.7000906,9.27352656 C12.1788797,8.49657344 12.5802391,7.69212812 12.8968641,6.93509687 C12.9032391,6.94014375 12.9118719,6.94465937 12.9154578,6.95010469 C12.9222313,6.96046406 13.0752313,7.21360469 12.6534188,8.17237812 C12.0184422,9.61525312 11.2364422,11.2488469 9.98415313,12.3766906 C9.44546563,12.8617219 8.94409844,13.1849875 8.5017,13.4701359 C7.88518438,13.8673781 7.35287188,14.2104328 7.12084844,14.7934797 C6.80528594,15.5865031 6.62691875,16.3256047 6.61948125,16.3566828 C6.55573125,16.6231047 6.7198875,16.8908547 6.98630938,16.9547375 C7.02522344,16.9641672 7.0641375,16.96855 7.10252031,16.96855 C7.326575,16.96855 7.52977813,16.81555 7.58462969,16.5880422 C7.58622344,16.5811359 7.75489531,15.8845344 8.04309844,15.1605734 C8.15758281,14.8726359 8.52746563,14.6342375 9.039325,14.3041984 C9.48969219,14.0140031 10.0502938,13.6526203 10.6483484,13.1140656 C10.9301766,12.8602609 11.1883641,12.5858703 11.4280906,12.2981984 C12.0452703,12.2486594 12.4976297,12.2181125 12.4976297,12.2181125 C13.4590594,12.1871672 14.6530438,11.7994875 14.4980516,10.6518547 C14.4697625,10.4433391 14.4013641,10.2750656 14.2912625,10.1415891 C14.4837078,10.1207375 14.6602156,10.102675 14.8133484,10.0884641 C16.1572781,9.96441719 16.5205203,8.7926125 15.8885984,8.10344844 C15.8364031,8.0467375 15.7721219,7.99839375 15.6988094,7.95708906 C16.51295,7.73622187 17.1861766,7.03032344 16.9534891,6.37701875 C16.7225281,5.72915938 16.1574109,5.56022187 15.6144734,5.56022187 C15.5493953,5.56022187 15.4848484,5.5626125 15.4210984,5.56699531 C15.4400906,5.36591719 15.4086141,5.18422969 15.3755438,5.06031563 C15.3094031,4.81235469 15.1497625,4.60941719 14.9136219,4.47368281 C14.6602156,4.3279875 14.3621844,4.28083906 14.0812859,4.28083906 C13.9450203,4.28083906 13.8128719,4.29199531 13.6920125,4.30819844 C13.7099422,4.18215937 13.7225594,4.06422188 13.7273406,3.95969844 C13.7520438,3.41370625 13.4637078,2.92522188 12.9924891,2.71497969 C12.8973953,2.67247969 12.7995125,2.64605 12.7013641,2.63090938 C12.7262,2.43607344 12.7401453,2.27138594 12.7425359,2.14627656 C12.7578094,1.36082344 12.1910984,0.900495313 11.6237234,0.851753125 C11.5877313,0.848698437 11.5522703,0.8472375 11.517075,0.8472375 M11.5733875,11.7026672 L12.1026453,11.6713234 C12.1632078,11.6677375 12.2146062,11.6638859 12.2478094,11.6601672 C12.3070437,11.6536594 12.3765047,11.6487453 12.4515437,11.6434328 C12.9270125,11.6094328 13.812075,11.5463469 13.7707703,10.8227844 C13.7473953,10.4134563 13.4192156,10.2060031 12.7952625,10.2061359 C12.7428016,10.2061359 12.6886141,10.2073312 12.6328328,10.2097219 L12.4830203,10.2160969 L12.4110359,10.3477141 C12.2341297,10.6716438 12.05045,10.9784406 11.8650437,11.2598703 L11.5733875,11.7026672 M12.7121219,9.78193281 L13.16395,9.75138594 C13.6877625,9.715925 14.1098406,9.67435469 14.4190281,9.62733906 L14.4485125,9.62295625 C14.7667313,9.57487813 15.1627781,9.5151125 15.3940047,9.28388594 C15.5403641,9.13752656 15.5735672,8.90749531 15.4808641,8.68357344 C15.3658484,8.40612813 15.0999578,8.22683125 14.8036531,8.22683125 L14.8035203,8.22683125 C14.7721766,8.22683125 14.7401688,8.22882344 14.7084266,8.232675 C14.6345828,8.24183906 14.3272547,8.28168281 13.4768563,8.41090938 L13.3327547,8.43282344 L13.2739188,8.56603438 C13.1365906,8.87628438 13.0197156,9.1326125 12.9060281,9.37247188 L12.7121219,9.78193281 M13.5603953,7.89971406 L13.952325,7.81378438 C14.5603406,7.68044063 15.1764578,7.53700313 15.6427625,7.42039375 C15.9595203,7.3412375 16.1999109,7.14308125 16.2697703,6.90335469 C16.3220984,6.72432344 16.2760125,6.541175 16.1434656,6.40119063 C16.0174266,6.26797969 15.8228562,6.2033 15.5484656,6.2033 C15.2408719,6.2033 14.8101609,6.28312031 14.19245,6.45444844 L14.1803641,6.45697188 L14.1739891,6.4583 L14.1677469,6.46002656 L14.1490203,6.46547187 C14.0698641,6.48658906 13.9634812,6.51394844 13.8422234,6.54449531 L13.5941297,6.60718281 L13.6473875,6.85740156 C13.6856375,7.03709688 13.6812547,7.25504219 13.6343719,7.50526094 L13.5603953,7.89971406 M13.2953016,6.32322969 L13.3918562,6.29852656 C13.6691688,6.22787031 13.9082313,6.1661125 14.0547234,6.12706563 C14.4981844,6.0088625 14.6550359,5.79543281 14.7085594,5.63738594 C14.7624813,5.47827656 14.7337938,5.304425 14.6317938,5.17240938 C14.5108016,5.01569062 14.3240672,4.93626875 14.0766375,4.93626875 C13.8686531,4.93626875 13.6301219,4.99138594 13.4032781,5.05088594 L13.2565203,5.08940156 L13.2150828,5.23562813 C13.1510672,5.46260469 13.0792156,5.69170625 13.0015203,5.91655781 L12.9202391,6.15190156 L13.1498719,6.24819063 C13.1577078,6.25151094 13.1643484,6.25576094 13.1712547,6.2596125 C13.1826766,6.26585469 13.1942312,6.27222969 13.2063172,6.27833906 L13.2953016,6.32322969 M4.87910625,8.23240938 L5.23398125,7.86916719 C5.27236406,7.8299875 5.31287188,7.78522969 5.35444219,7.73635469 C5.53267656,7.5261125 5.77545781,7.28014375 6.0568875,6.99526094 C6.27456719,6.77452656 6.54550469,6.50013594 6.80355938,6.22016719 L7.15896563,5.83487813 L6.638075,5.776175 C6.16977813,5.72331563 5.9007,5.58983906 5.79086406,5.35595625 C5.64384063,5.04291719 5.86337969,4.70969063 6.12156719,4.36716719 C6.41933281,3.97218281 6.77487188,3.4312375 7.15418438,2.41402656 C7.27198906,2.09846406 7.24130938,1.85222969 7.07223906,1.75580781 C7.02336406,1.72791719 6.96678594,1.71370625 6.90436406,1.71370625 C6.752825,1.71370625 6.59437969,1.79764375 6.48029375,1.93829219 C6.32649688,2.12781562 6.18173125,2.3432375 6.01398906,2.59252656 C5.69271563,3.07012031 5.29308281,3.66432344 4.65080156,4.29730781 L4.56606719,4.38071406 L4.57191094,4.49958125 L4.57284063,4.51618281 C4.5736375,4.53265156 4.57456719,4.5489875 4.57456719,4.56532344 C4.58027812,5.76714375 4.68360625,7.15463594 4.77644219,7.69624531 C4.7787,7.70939375 4.78095781,7.72174531 4.78321562,7.73369844 L4.87910625,8.23240938 M11.517075,1.1128625 C11.5447,1.1128625 11.5729891,1.113925 11.6010125,1.11644844 C12.1881766,1.16678438 12.486075,1.67001094 12.4770438,2.14109687 C12.4746531,2.25757344 12.4611063,2.41522188 12.4379969,2.59730781 L12.4050594,2.85403438 L12.6608563,2.89347969 C12.7430672,2.90609688 12.8161141,2.92708125 12.8843797,2.95749531 C13.2550594,3.12284687 13.4817703,3.51158906 13.4619813,3.9476125 C13.4578641,4.03646406 13.4468406,4.1452375 13.4289109,4.27074531 L13.3795047,4.61818281 L13.7273406,4.57143281 C13.8505906,4.55496406 13.9697234,4.54646406 14.0812859,4.54646406 C14.3640438,4.54646406 14.5995203,4.59945625 14.7812078,4.70397969 C14.9570516,4.80505 15.0707391,4.94808906 15.11895,5.12871406 C15.1447156,5.22566719 15.1722078,5.37614375 15.1566688,5.54202656 L15.12745,5.85294062 L15.4390281,5.83195625 C15.4990594,5.82797188 15.5581609,5.82584687 15.6144734,5.82584687 C16.1935359,5.82584687 16.5497391,6.03529219 16.7031375,6.46613594 C16.7583875,6.62112812 16.740325,6.78754219 16.6496141,6.96099531 C16.4782859,7.28864375 16.0778563,7.57897187 15.6292156,7.70076094 L15.0039344,7.8703625 L15.5683875,8.18844844 C15.6201844,8.21766719 15.6620203,8.24940938 15.6927,8.28301094 C15.9184813,8.5291125 15.9844891,8.85383906 15.8694734,9.15187031 C15.7239109,9.52905781 15.3301219,9.77396406 14.7890438,9.82390156 C14.6345828,9.8381125 14.4566141,9.85657344 14.262575,9.87755781 L13.7727625,9.93094844 L14.0864656,10.3107922 C14.164825,10.4058859 14.2134344,10.5290031 14.2348172,10.6874484 C14.2735984,10.9743234 14.2138328,11.2068781 14.0519344,11.3982609 C13.7774109,11.7227219 13.1931688,11.9299094 12.4889969,11.9526203 L12.4843484,11.9527531 L12.4797,11.9530188 C12.4751844,11.9534172 12.018575,11.9843625 11.4068406,12.0335031 L11.2955438,12.0424016 L11.2239578,12.1281984 C10.9771922,12.4245031 10.7306922,12.682425 10.4705125,12.9167062 C9.8882625,13.44105 9.33775469,13.795925 8.89495781,14.0813391 C8.34192656,14.4378078 7.94216094,14.6955969 7.7962,15.0621594 C7.50175469,15.8024563 7.32803594,16.5187141 7.32630938,16.5260187 C7.30134063,16.6301437 7.20916875,16.702925 7.10252031,16.702925 C7.08419219,16.702925 7.06599688,16.7006672 7.0482,16.6964172 C6.92468438,16.6668 6.84818438,16.5422219 6.87780156,16.4183078 C6.88497344,16.3882922 7.0577625,15.6705734 7.36774688,14.8917609 C7.56842656,14.3876047 8.0437625,14.0813391 8.64593438,13.6931281 C9.0967,13.4025344 9.60762969,13.0732922 10.1619891,12.57405 C11.4531922,11.4110109 12.2504656,9.74753438 12.8964656,8.279425 C13.3181453,7.32091719 13.2287625,6.94426094 13.1376531,6.804675 C13.1077703,6.75912031 13.0712469,6.73282344 13.0541141,6.72113594 L12.7846375,6.51514375 L12.6516922,6.83269844 C12.3146141,7.63860469 11.9183016,8.41303438 11.4740438,9.13420625 C11.4315438,9.20287031 11.3580984,9.24390937 11.2770828,9.24390937 C11.2348484,9.24390937 11.1931453,9.23208906 11.1567547,9.20964375 C11.1042938,9.1772375 11.0675047,9.12650312 11.0532938,9.06660469 C11.0390828,9.00670625 11.0490438,8.94481563 11.08145,8.89222187 C11.8408719,7.65972187 12.9387,5.30415937 13.0012547,3.92676094 C13.0148016,3.62859688 12.8454656,3.44518281 12.6965828,3.37877656 C12.6462469,3.35633125 12.5929891,3.34490938 12.5381375,3.34490938 C12.5281766,3.34490938 12.5182156,3.345175 12.5083875,3.34597187 L12.3106297,3.36058125 L12.2683953,3.5544875 C12.0864422,4.39306563 11.5401844,6.52125313 10.4030438,8.16879219 C10.3600125,8.23121406 10.2889578,8.26853437 10.2129891,8.26853437 C10.1662391,8.26853437 10.1210828,8.25445625 10.0823016,8.22762812 C10.0315672,8.19269844 9.9977,8.13997187 9.98654375,8.07940938 C9.9753875,8.01884687 9.98853594,7.95762031 10.0235984,7.90688594 C11.3826688,5.93754219 11.99945,2.97794844 12.0159188,2.13219844 C12.022825,1.77559688 11.7926609,1.59590156 11.5620984,1.57597969 C11.5454969,1.57451875 11.529825,1.57385469 11.5150828,1.57385469 C11.3554422,1.57385469 11.1717625,1.66058125 11.1348406,1.90376094 C11.0455906,2.48587812 10.8324266,3.00490938 10.5369188,3.72382344 C10.4737,3.87775312 10.4062313,4.04190937 10.3347781,4.21921406 C10.3293328,4.23289375 10.3204344,4.24816719 10.3078172,4.26596406 L10.2872313,4.29505 L10.2750125,4.32851875 C9.92956719,5.27480781 9.43829375,6.19108125 8.81460625,7.05183906 C8.77077813,7.11240156 8.70264531,7.14719844 8.62747344,7.14719844 C8.57886406,7.14719844 8.53224688,7.13205781 8.49266875,7.10337031 C8.44286406,7.06724531 8.40979375,7.01385469 8.40023125,6.95302656 C8.39053594,6.89219844 8.4050125,6.8312375 8.4411375,6.7813 C10.0485672,4.56240156 10.2833797,2.55175313 10.3140594,2.17124531 C10.3330516,1.93576875 10.2394188,1.82619844 10.1574734,1.77559688 C10.0745984,1.72459687 9.98375469,1.71370625 9.92212969,1.71370625 C9.88427813,1.71370625 9.84589531,1.71782344 9.81096563,1.72552656 L9.66234844,1.75793281 L9.61533281,1.90256562 C9.44187969,2.43394844 8.93241094,3.65980781 8.43037969,4.75405 C8.00750469,5.67537031 7.10796563,6.5868625 6.38506719,7.31919062 C6.11027813,7.59756562 5.873075,7.83795625 5.70599688,8.03478437 C5.59921563,8.16055781 5.27462188,8.54319062 4.9285125,8.54319062 C4.88627813,8.54319062 4.84404375,8.53747969 4.80287188,8.52632344 C4.55783281,8.45925313 4.39593438,8.20624531 4.321825,7.77433906 C4.21225469,7.1351125 4.11875469,5.6964875 4.11344219,4.56744844 C4.11158281,4.15745625 3.92896563,4.00033906 3.77623125,3.94070625 C3.71128594,3.91533906 3.64089531,3.90245625 3.56678594,3.90245625 C3.450575,3.90245625 3.33184063,3.93472969 3.24923125,3.98851875 L3.15121563,4.05240156 L3.13209063,4.16781563 C3.10672344,4.32214375 3.06050469,4.54460469 2.99648906,4.8528625 C2.82091094,5.69755 2.5272625,7.11133906 2.41198125,8.45938594 C2.30148125,9.74979219 2.66153594,11.11205 2.85491094,11.8438469 C2.95571563,12.2248859 3.00166875,12.3987375 2.98373906,12.5157453 C2.95797344,12.6841516 2.86075469,12.9987844 2.72621563,13.4350734 C2.64373906,13.7020266 2.55050469,14.0045734 2.45009844,14.3474953 C2.42167656,14.4453781 2.3307,14.5135109 2.22896563,14.5135109 C2.20718438,14.5135109 2.18540313,14.5104562 2.16415313,14.5042141 C2.04209844,14.4686203 1.97184063,14.3401906 2.00743438,14.2181359 C2.06321563,14.0274172 2.11647344,13.8507766 2.16720781,13.6844953 L2.32034063,13.1820656 L1.82481719,13.3565812 C1.45360625,13.4872687 1.14242656,13.5990969 1.11998125,13.6070656 C1.09461406,13.6162297 1.06845,13.6208781 1.04202031,13.6208781 C0.944934375,13.6208781 0.857809375,13.5593859 0.824871875,13.4680109 C0.804153125,13.4101047 0.807075,13.34755 0.833371875,13.2917687 C0.85966875,13.2359875 0.9058875,13.1938859 0.964325,13.1730344 C0.971629688,13.1702453 1.75017656,12.890675 2.34039531,12.6889328 L2.56059844,12.6136281 L2.51504375,12.3853234 C2.49724688,12.2968703 2.4582,12.1475891 2.40905938,11.9616516 C2.2085125,11.2027609 1.83530938,9.79016719 1.95245,8.42007344 C1.98127031,8.08299531 2.02377031,7.71430781 2.0788875,7.32410469 L2.17504375,6.6421125 L1.64591875,7.08291719 C1.21892656,7.43858906 0.871090625,7.69518281 0.612239063,7.84552656 C0.576379688,7.86637812 0.537598438,7.87687031 0.496692188,7.87687031 C0.414614063,7.87687031 0.338114063,7.83290937 0.296942188,7.7619875 C0.233059375,7.65201875 0.2705125,7.51057344 0.38048125,7.44669062 C0.784895312,7.21174531 1.39822344,6.71768281 2.25539531,5.93608125 L2.32060625,5.87658125 L2.33720781,5.78985469 C2.41410625,5.3883625 2.48967656,5.02445625 2.54479375,4.75883125 C2.60947344,4.44831563 2.66034063,4.20301094 2.68212188,4.06090156 C2.73630938,3.7074875 3.11429375,3.44106562 3.56187188,3.44106562 C3.58949688,3.44106562 3.61725469,3.44212813 3.6450125,3.44412031 C3.87995781,3.46151875 4.07745,3.54412813 4.23230938,3.68969062 L4.42834063,3.87416719 L4.61016094,3.6756125 C5.0592,3.18553437 5.37648906,2.71405 5.63162188,2.3347375 C5.79816875,2.08690938 5.95568438,1.85289375 6.12223125,1.64769844 C6.32344219,1.39960469 6.6157625,1.25151875 6.90396563,1.25151875 C7.04687188,1.25151875 7.18048125,1.28644844 7.301075,1.35537812 C7.40294219,1.41368281 7.89554375,1.74624531 7.58635625,2.57526094 C7.18645781,3.64758906 6.80754375,4.22319844 6.48985625,4.64474531 C6.44496563,4.70437812 6.37696563,4.79455781 6.32131719,4.87876094 L6.10722344,5.20269062 L6.48680156,5.28476875 C6.60779375,5.31093281 6.76052813,5.32846406 6.94062188,5.33683125 C6.97900469,5.33869063 7.02695,5.33988594 7.08631719,5.33988594 C7.182075,5.33988594 7.29536406,5.33683125 7.42286406,5.33058906 L7.55341875,5.32434687 L7.62805938,5.21703437 C7.79048906,4.98355 7.91586406,4.76919062 8.01122344,4.5617375 C8.57049688,3.34291719 9.07518438,2.09766719 9.19564531,1.6993625 C9.27546563,1.43612812 9.57309844,1.25218281 9.91973906,1.25231563 C9.9807,1.25231563 10.0420594,1.25802656 10.1024891,1.26944844 C10.2457938,1.296675 10.3792703,1.35883125 10.488575,1.44927656 L10.6941688,1.61940937 L10.8632391,1.41301875 C11.02195,1.21937812 11.2542391,1.1128625 11.517075,1.1128625" id="Fill-3"></path>
                <path d="M11.5188945,16.3777469 C11.4967148,16.3777469 11.4755977,16.3679187 11.4608555,16.3506531 C11.4522227,16.3405594 11.4386758,16.3193094 11.443457,16.2887625 L11.7474648,14.3661687 C11.7529102,14.3321687 11.7825273,14.3293797 11.7916914,14.3293797 C11.8170586,14.3293797 11.8260898,14.3474422 11.8292773,14.3534187 L12.717793,16.1082703 C12.7334648,16.13895 12.724168,16.1655125 12.7172617,16.1786609 C12.7106211,16.1918094 12.6940195,16.2145203 12.6598867,16.2193016 L11.5300508,16.37695 L11.5188945,16.3777469 Z" id="Fill-5"></path>
                <path d="M11.7915188,14.1965805 C11.7113,14.1965805 11.6314797,14.2495727 11.6163391,14.3454633 L11.3123312,16.268057 C11.2917453,16.3971508 11.3926828,16.5105727 11.5188547,16.5105727 C11.5286828,16.5105727 11.5385109,16.5099086 11.5484719,16.5084477 L12.678175,16.3507992 C12.8206828,16.3308773 12.9013,16.1765492 12.8363547,16.0481195 L11.9477063,14.2934008 C11.9142375,14.227393 11.8527453,14.1965805 11.7915188,14.1965805 M11.8354797,14.6598305 L12.5639563,16.0984555 L11.5863234,16.2351195 L11.8354797,14.6598305" id="Fill-7"></path>
                <path d="M14.5175484,14.9807453 C14.5037359,14.9807453 14.4834156,14.9771594 14.4649547,14.9596281 L13.0510328,13.6222062 C13.0368219,13.6086594 13.0331031,13.5928547 13.040275,13.5750578 C13.0435953,13.5666906 13.0540875,13.5469016 13.0789234,13.5469016 L15.0364469,13.8062844 C15.0707125,13.8108 15.0874469,13.8333781 15.0943531,13.8465266 C15.1013922,13.859675 15.1106891,13.8861047 15.0954156,13.9167844 L14.5867437,14.9381125 C14.5710719,14.9694563 14.5407906,14.9807453 14.5175484,14.9807453" id="Fill-9"></path>
                <path d="M13.0789234,13.4141023 C12.9251266,13.4141023 12.8418531,13.6070789 12.9597906,13.7186414 L14.3737125,15.0560633 C14.4150172,15.0949773 14.4664156,15.1135711 14.5175484,15.1135711 C14.5933844,15.1135711 14.6681578,15.072532 14.7057438,14.9972273 L15.21415,13.976032 C15.2784313,13.8473367 15.1966188,13.6935398 15.0539781,13.6746805 L13.104025,13.4158289 C13.095525,13.4146336 13.0871578,13.4141023 13.0789234,13.4141023 M13.3429547,13.7155867 L14.9414859,13.9276883 L14.5016109,14.8114227 L13.3429547,13.7155867" id="Fill-11"></path>
                <path d="M3.46531719,2.18120625 C3.43995,2.18120625 3.43078594,2.16327656 3.42786406,2.1573 L2.53908281,0.402448437 C2.52341094,0.371635937 2.53270781,0.345073437 2.53948125,0.331925 C2.5463875,0.318776562 2.56298906,0.296198437 2.59712188,0.291417187 L3.726825,0.133635937 L3.73041094,0.133635937 C3.76162187,0.133635937 3.78194219,0.143464062 3.79602031,0.160065625 C3.80465312,0.170026562 3.81833281,0.191409375 3.81341875,0.22195625 L3.50941094,2.14441719 C3.50396563,2.17855 3.47421563,2.18120625 3.46531719,2.18120625" id="Fill-13"></path>
                <path d="M3.73807422,3.984375e-05 C3.72837891,3.984375e-05 3.71841797,0.00070390625 3.70832422,0.00216484375 L2.57875391,0.159813281 C2.43611328,0.179735156 2.35562891,0.334063281 2.42057422,0.462360156 L3.30922266,2.21721172 C3.34255859,2.28321953 3.40405078,2.31403203 3.46527734,2.31403203 C3.54562891,2.31403203 3.62544922,2.26103984 3.64072266,2.16514922 L3.94473047,0.242688281 C3.96505078,0.113461719 3.86424609,3.984375e-05 3.73807422,3.984375e-05 M3.67047266,0.275625781 L3.42131641,1.85078203 L2.69283984,0.412157031 L3.67047266,0.275625781" id="Fill-15"></path>
                <path d="M2.17039531,2.96316641 L0.220309375,2.70431484 C0.186309375,2.69979922 0.169575,2.67722109 0.162535937,2.66420547 C0.155629687,2.65105703 0.1462,2.62449453 0.16160625,2.59368203 L0.670145312,1.57261953 C0.685684375,1.54114297 0.71623125,1.52985391 0.739473437,1.52985391 C0.753153125,1.52985391 0.773340625,1.53357266 0.791801562,1.55097109 L2.20585625,2.88852578 C2.22006719,2.90207266 2.22365312,2.91787734 2.21661406,2.93567422 C2.21316094,2.94404141 2.20280156,2.96369766 2.17809844,2.96369766 L2.17039531,2.96316641 Z" id="Fill-17"></path>
                <path d="M0.739420312,1.39709453 C0.663451562,1.39709453 0.588678125,1.43800078 0.551225,1.51330547 L0.0426859375,2.53450078 C-0.0214625,2.66332891 0.0602171875,2.81699297 0.202857812,2.83598516 L2.15294375,3.09483672 C2.16144375,3.09603203 2.16994375,3.09643047 2.17804531,3.09643047 C2.33170937,3.09643047 2.41511562,2.90358672 2.29717813,2.79202422 L0.883123437,1.45446953 C0.841951562,1.41555547 0.790420312,1.39709453 0.739420312,1.39709453 M0.755357813,1.69924297 L1.91401406,2.79507891 L0.31535,2.58297734 L0.755357813,1.69924297" id="Fill-19"></path>
            </g>
        </g>
    </g>
</svg>