<svg xmlns="http://www.w3.org/2000/svg" width="24" height="24" viewBox="0 0 24 24">
    <g fill="#9B9B9B" fill-rule="evenodd">
        <path d="M18.464 14.893c0 1.13-.368 2.104-1.08 2.788-.682.657-1.63 1.025-2.76 1.025H9.257c-1.078 0-2.025-.341-2.735-1.025-.737-.71-1.105-1.684-1.105-2.814V9.474c0-2.288 1.526-3.814 3.814-3.814h5.419c1.105 0 2.078.368 2.762 1.079.684.683 1.052 1.63 1.052 2.735v5.419zM12 0C5.373 0 0 5.372 0 11.999c0 6.628 5.373 12 12 12s12-5.372 12-12c0-6.627-5.373-12-12-12z"/>
        <path d="M15.439 9.474a.764.764 0 1 1 .001-1.527.764.764 0 0 1-.001 1.527m-3.499 6.05a3.356 3.356 0 0 1-3.366-3.367A3.373 3.373 0 0 1 11.94 8.79c1.842 0 3.368 1.526 3.368 3.367 0 1.84-1.5 3.367-3.368 3.367m2.736-8.654H9.257c-.789 0-1.472.237-1.92.684-.473.474-.71 1.13-.71 1.92v5.393c0 .815.237 1.472.71 1.946.474.447 1.131.683 1.92.683h5.367c.789 0 1.446-.236 1.919-.683.474-.447.764-1.105.764-1.92v-5.42c0-.762-.264-1.42-.711-1.893-.473-.473-1.131-.71-1.92-.71"/>
        <path d="M11.94 10a2.166 2.166 0 0 0-2.156 2.156c0 1.185.973 2.157 2.156 2.157a2.166 2.166 0 0 0 2.158-2.157A2.166 2.166 0 0 0 11.94 10"/>
    </g>
</svg>
