<svg xmlns="http://www.w3.org/2000/svg" width="24" height="24" viewBox="0 0 24 24">
    <g fill="none" fill-rule="evenodd">
        <path fill="#9B9B9B" d="M14.687 13.745a1.171 1.171 0 1 0-.001-2.342 1.171 1.171 0 0 0 0 2.342zm0-2.694c.426 0 .81.174 1.087.456h.763v2.134h-.763a1.513 1.513 0 0 1-1.087.458c-.426 0-.811-.175-1.087-.458h-.763v-2.134h.763a1.515 1.515 0 0 1 1.087-.456zM13.797 8.401h1.768v-1.28h-1.768z"/>
        <path fill="#3F3131" d="M17.87 7.12h-1.014V8.4h.496c.287 0 .517.232.517.517v.816H12.02a.516.516 0 0 1-.516-.516V8.4h1.002V7.12h-.486a.516.516 0 0 1-.516-.517v-.816h2.537v-.589h1.291v.59h2.02c.287 0 .517.23.517.516v.816zm0 4.387V14.974h-1.334v1.806h1.333c0 .736-.597 1.334-1.333 1.334h-1.333v-3.14H14.17V16.876c0 .683-.554 1.238-1.238 1.238h-2.08c.366-.238.652-.94.652-1.334h1.333v-1.806h-.719a.613.613 0 0 1-.614-.614v-4.186h6.365v1.333zm-8.12 6.607H7.465a1.334 1.334 0 0 1-1.334-1.334h1.81v-4.428H6.623a.492.492 0 0 1-.493-.493v-.84h1.81V9.876H6.518L7.685 8.68a.865.865 0 0 1 .621-.263l1.514.001-.932-.874a.394.394 0 0 0-.55.011L6.13 9.79V8.412c0-.317.126-.623.35-.849l1.892-1.91a.394.394 0 0 1 .561.001l1.851 1.886c.222.226.346.53.346.845v1.348H9.273v1.286h1.318c.271 0 .492.22.492.493v.84h-1.81V14.1a.877.877 0 1 1 1.754 0 .877.877 0 0 1-1.754 0v2.681h1.81c0 .736-.597 1.334-1.333 1.334zm-3.619-3.51c0-.324.13-.634.36-.863l.95-.944v1.756c0 .324-.13.634-.36.863l-.95.945v-1.757zM12.001 0C5.372 0 0 5.373 0 12c0 6.628 5.372 12 12 12 6.627 0 12-5.372 12-12 0-6.627-5.373-12-12-12z"/>
    </g>
</svg>
