<svg xmlns="http://www.w3.org/2000/svg" width="24" height="24" viewBox="0 0 24 24">
    <g fill="#9B9B9B" fill-rule="evenodd">
        <path d="M12.724 6.121c-1.245-.004-2.788.405-3.738 1.067v7.42c.866.418 2.179.714 3.738.714 1.396.001 2.609-.508 3.44-1.314.834-.814 1.302-1.873 1.309-3.163-.005-1.32-.443-2.456-1.245-3.312-.803-.85-1.991-1.41-3.504-1.412"/>
        <path d="M17.497 14.79c-1.205.937-2.824 1.456-4.604 1.456-2.026 0-3.905-.723-3.905-.723v2.333c.346.1.916.313.555.668h-2.74c-.36-.35.166-.558.564-.668V7.968c-.923.693-1.395 1.296-1.637 1.742.28.874-.248.831-.248.831l-.955-1.484S7.913 5.29 12.892 5.29c1.91 0 3.553.581 4.727 1.586a5.21 5.21 0 0 1 1.854 3.998c.005 1.592-.771 2.984-1.976 3.916M12 0C5.373 0 0 5.372 0 12c0 6.627 5.373 12 12 12 6.628 0 12-5.373 12-12 0-6.628-5.372-12-12-12"/>
    </g>
</svg>
