<svg xmlns="http://www.w3.org/2000/svg" width="24" height="24" viewBox="0 0 24 24">
    <path fill="#9B9B9B" fill-rule="evenodd" d="M18.198 15.765h-4.74c-.186 0-.351-.165-.351-.371v-7.44c0-.247.124-.432.371-.577.351-.206.928-.35 1.444-.35a3.285 3.285 0 0 1 3.276 3.276c0 .392-.062.763-.186 1.113l.186-.02a2.2 2.2 0 0 1 2.185 2.184c0 1.216-.99 2.185-2.185 2.185zm-5.812-.371a.37.37 0 0 1-.371.371.37.37 0 0 1-.371-.371V8.861c0-.206.165-.37.371-.37s.371.164.371.37v6.533zm-1.463 0a.37.37 0 0 1-.371.371c-.186 0-.351-.165-.351-.371V9.582c0-.206.165-.371.351-.371a.37.37 0 0 1 .371.371v5.812zm-1.464 0c0 .206-.164.371-.35.371a.369.369 0 0 1-.37-.371V8.861c0-.206.164-.37.37-.37.186 0 .35.164.35.37v6.533zm-1.442 0a.37.37 0 0 1-.371.371.37.37 0 0 1-.371-.371V9.582a.37.37 0 0 1 .371-.371.37.37 0 0 1 .371.371v5.812zm-1.464 0a.37.37 0 0 1-.37.371c-.186 0-.351-.165-.351-.371v-4.349c0-.206.165-.371.351-.371a.37.37 0 0 1 .37.371v4.349zm-1.442-.721c0 .206-.165.37-.371.37a.369.369 0 0 1-.371-.37v-2.906a.37.37 0 0 1 .371-.371.37.37 0 0 1 .371.371v2.906zM12.001 0C5.373 0 0 5.373 0 12c0 6.628 5.373 12 12.001 12 6.628 0 12.001-5.372 12.001-12 0-6.627-5.374-12-12.001-12z"/>
</svg>
