<svg xmlns="http://www.w3.org/2000/svg" width="24" height="24" viewBox="0 0 24 24">
    <path fill="#9B9B9B" fill-rule="evenodd" d="M18.046 9.581c.006.13.009.26.009.391 0 3.997-3.043 8.604-8.605 8.604-1.707 0-3.298-.5-4.635-1.358a6.123 6.123 0 0 0 4.476-1.252 3.03 3.03 0 0 1-2.825-2.1 3.033 3.033 0 0 0 1.365-.053 3.026 3.026 0 0 1-2.426-2.964v-.039a3.01 3.01 0 0 0 1.37.377A3.02 3.02 0 0 1 5.43 8.67c0-.554.15-1.073.41-1.52a8.588 8.588 0 0 0 6.233 3.16 3.023 3.023 0 0 1 2.946-3.713c.87 0 1.655.367 2.208.954a6.053 6.053 0 0 0 1.92-.734 3.037 3.037 0 0 1-1.33 1.673 6.052 6.052 0 0 0 1.738-.476 6.127 6.127 0 0 1-1.51 1.567M12 .001C5.373 0 0 5.372 0 12c0 6.627 5.372 12 12 12s12-5.373 12-12c0-6.628-5.372-12-12-12"/>
</svg>
