<svg xmlns="http://www.w3.org/2000/svg" width="24" height="24" viewBox="0 0 24 24">
    <path fill="#4A4A4A" fill-rule="evenodd" d="M18.327 9.71l-2.706 2.704a1.65 1.65 0 0 1-1.178.488 1.65 1.65 0 0 1-1.178-.488l-.03-.03.612-.613.031.031a.815.815 0 0 0 1.13 0l2.706-2.705a.802.802 0 0 0 0-1.13l-1.553-1.553a.8.8 0 0 0-1.13 0L12.326 9.12a.8.8 0 0 0 0 1.131l.031.031-.613.613-.03-.032a1.668 1.668 0 0 1-.002-2.356l2.706-2.706a1.669 1.669 0 0 1 2.356 0l1.553 1.552a1.67 1.67 0 0 1 0 2.357zm-4.14-.382a.432.432 0 0 1 .613 0c.17.17.17.444 0 .613l-4.832 4.832a.436.436 0 0 1-.613 0 .432.432 0 0 1 0-.613l4.832-4.832zm-1.9 6.421l-2.706 2.705a1.648 1.648 0 0 1-1.178.488c-.445 0-.863-.172-1.179-.488l-1.55-1.552a1.668 1.668 0 0 1 0-2.355l2.704-2.706c.63-.63 1.726-.63 2.357 0l.031.032-.612.612-.032-.032a.795.795 0 0 0-1.13 0L6.286 15.16a.8.8 0 0 0 0 1.131l1.552 1.553a.818.818 0 0 0 1.13 0l2.706-2.706a.803.803 0 0 0 0-1.132l-.032-.03.613-.614.032.033a1.67 1.67 0 0 1 0 2.355zM12 0C5.372 0 0 5.372 0 12c0 6.627 5.372 12 12 12 6.627 0 12-5.373 12-12 0-6.628-5.373-12-12-12z"/>
</svg>
