<?xml version="1.0" encoding="utf-8"?>
<!-- Generator: Adobe Illustrator 16.0.0, SVG Export Plug-In . SVG Version: 6.00 Build 0)  -->
<!DOCTYPE svg PUBLIC "-//W3C//DTD SVG 1.1//EN" "http://www.w3.org/Graphics/SVG/1.1/DTD/svg11.dtd">
<svg
	version="1.1"
	id="Layer_1"
	xmlns="http://www.w3.org/2000/svg"
	xmlns:xlink="http://www.w3.org/1999/xlink"
	viewBox="0 0 30 30"
	enable-background="new 0 0 30 30"
	xml:space="preserve"
>
<title>addTalk</title>
<g>
	<path d="M17.952,13.636h-2.271v-2.27c0-0.372-0.305-0.685-0.682-0.685c-0.379,0-0.682,0.307-0.682,0.685v2.27h-2.271
		c-0.372,0-0.684,0.305-0.684,0.682c0,0.379,0.306,0.682,0.684,0.682h2.271v2.271c0,0.372,0.305,0.685,0.682,0.685
		c0.379,0,0.682-0.307,0.682-0.685V15h2.271c0.372,0,0.685-0.305,0.685-0.682C18.637,13.939,18.33,13.636,17.952,13.636z"/>
	<path d="M15,0C6.716,0,0,6.716,0,15s6.716,15,15,15s15-6.716,15-15S23.284,0,15,0z M23.173,17.424
		c-0.612,0.963-1.449,1.771-2.511,2.425c0.074,0.294,0.162,0.573,0.264,0.838s0.192,0.481,0.273,0.65s0.191,0.356,0.33,0.562
		c0.139,0.206,0.243,0.352,0.314,0.436c0.07,0.085,0.188,0.225,0.35,0.419s0.268,0.321,0.314,0.38
		c0.014,0.016,0.041,0.049,0.082,0.1c0.04,0.052,0.063,0.083,0.07,0.094c0.007,0.012,0.027,0.044,0.061,0.1
		c0.034,0.055,0.049,0.09,0.046,0.104s0.003,0.052,0.021,0.11s0.016,0.103-0.005,0.132v0.011c-0.027,0.133-0.087,0.239-0.178,0.32
		c-0.091,0.08-0.194,0.113-0.31,0.1c-0.439-0.06-0.825-0.141-1.156-0.243c-1.772-0.492-3.328-1.382-4.668-2.667
		c-0.507,0.059-0.997,0.088-1.471,0.088c-1.65,0-3.172-0.314-4.566-0.942c-1.393-0.628-2.496-1.484-3.308-2.568
		c-0.812-1.083-1.217-2.265-1.217-3.543c0-1.278,0.406-2.459,1.217-3.543c0.812-1.084,1.915-1.94,3.308-2.568
		C11.828,7.587,13.35,7.272,15,7.272c1.23,0,2.408,0.186,3.531,0.557s2.09,0.873,2.901,1.505s1.458,1.383,1.938,2.254
		c0.479,0.871,0.72,1.784,0.72,2.739C24.091,15.429,23.785,16.461,23.173,17.424z"/>
</g>
</svg>
