<?xml version="1.0" encoding="utf-8"?>
<!-- Generator: Adobe Illustrator 20.1.0, SVG Export Plug-In . SVG Version: 6.00 Build 0)  -->
<svg version="1.1" xmlns="http://www.w3.org/2000/svg" xmlns:xlink="http://www.w3.org/1999/xlink" x="0px" y="0px"
	 viewBox="0 0 30 30" style="enable-background:new 0 0 30 30;" xml:space="preserve">
<title>audio-quit</title>
<desc>Created with Sketch.</desc>
<path d="M15,30c8.3,0,15-6.7,15-15S23.3,0,15,0S0,6.7,0,15S6.7,30,15,30z M17.8,7.8v13.9c0,0.2-0.1,0.4-0.2,0.6
	c-0.2,0.2-0.4,0.2-0.6,0.2c-0.2,0-0.4-0.1-0.6-0.2l-4.3-4.3H8.8c-0.2,0-0.4-0.1-0.6-0.2C8.1,17.7,8,17.5,8,17.3v-4.9
	c0-0.2,0.1-0.4,0.2-0.6s0.4-0.2,0.6-0.2h3.4l4.3-4.3C16.6,7.1,16.8,7,17,7c0.2,0,0.4,0.1,0.6,0.2C17.8,7.4,17.8,7.6,17.8,7.8z
	 M22.8,14.8c0,0.6-0.2,1.3-0.5,1.8c-0.4,0.6-0.8,1-1.4,1.2c-0.1,0-0.2,0.1-0.3,0.1c-0.2,0-0.4-0.1-0.6-0.2s-0.2-0.4-0.2-0.6
	c0-0.2,0.1-0.3,0.2-0.5c0.1-0.1,0.2-0.2,0.4-0.3c0.1-0.1,0.3-0.2,0.4-0.3c0.1-0.1,0.3-0.3,0.4-0.5c0.1-0.2,0.2-0.4,0.2-0.7
	c0-0.3-0.1-0.5-0.2-0.7c-0.1-0.2-0.2-0.3-0.4-0.5c-0.1-0.1-0.3-0.2-0.4-0.3c-0.1-0.1-0.3-0.2-0.4-0.3c-0.1-0.1-0.2-0.3-0.2-0.5
	c0-0.2,0.1-0.4,0.2-0.6c0.2-0.2,0.4-0.2,0.6-0.2c0.1,0,0.2,0,0.3,0.1c0.6,0.2,1.1,0.6,1.4,1.2C22.6,13.5,22.8,14.1,22.8,14.8z"/>
</svg>
