<?xml version="1.0" encoding="utf-8"?>
<!-- Generator: Adobe Illustrator 20.1.0, SVG Export Plug-In . SVG Version: 6.00 Build 0)  -->
<svg version="1.1" xmlns="http://www.w3.org/2000/svg" xmlns:xlink="http://www.w3.org/1999/xlink" x="0px" y="0px"
	 viewBox="0 0 30 30" style="enable-background:new 0 0 30 30;" xml:space="preserve">
<title>audio-stop</title>
<desc>Created with Sketch.</desc>
<path d="M15,0C6.7,0,0,6.7,0,15c0,8.3,6.7,15,15,15c8.3,0,15-6.7,15-15C30,6.7,23.3,0,15,0z M14.6,21.1c0,0.2-0.1,0.4-0.2,0.5
	s-0.3,0.2-0.5,0.2c-0.2,0-0.4-0.1-0.5-0.2l-0.4-0.4l1.6-1.6V21.1z M16.9,17.7c-0.1,0-0.2,0-0.3,0l2.3-2.3c-0.1,0.4-0.2,0.8-0.5,1.2
	c-0.3,0.5-0.7,0.8-1.3,1.1C17.1,17.7,17,17.7,16.9,17.7z M18.1,20.4c-0.2,0-0.4-0.1-0.5-0.2s-0.2-0.3-0.2-0.5c0-0.3,0.1-0.5,0.4-0.7
	c0.4-0.2,0.7-0.4,0.9-0.5c0.6-0.4,1-0.9,1.3-1.5c0.3-0.6,0.5-1.3,0.5-2c0-0.3,0-0.7-0.1-1l1.1-1.1c0.3,0.7,0.4,1.4,0.4,2.1
	c0,1.1-0.3,2.2-1,3.2c-0.6,1-1.5,1.7-2.5,2.1C18.3,20.3,18.2,20.4,18.1,20.4z M23.3,19.8c-1,1.4-2.2,2.5-3.8,3.2
	c-0.1,0-0.2,0.1-0.3,0.1c-0.2,0-0.4-0.1-0.5-0.2c-0.1-0.1-0.2-0.3-0.2-0.5c0-0.3,0.1-0.5,0.4-0.7c0.1,0,0.1-0.1,0.3-0.1
	s0.2-0.1,0.3-0.1c0.3-0.2,0.7-0.4,0.9-0.6c0.9-0.7,1.6-1.5,2.2-2.6c0.5-1,0.8-2.1,0.8-3.3c0-1.1-0.3-2.2-0.8-3.2l1.1-1.1
	c0.8,1.3,1.1,2.7,1.1,4.3C24.7,16.7,24.2,18.3,23.3,19.8z M23.6,7.9L9.4,22.1l-2.3,2.3L5.7,23l4.5-4.5l-0.6-0.6H6.7
	c-0.2,0-0.4-0.1-0.5-0.2C6.1,17.5,6,17.4,6,17.2v-4.3c0-0.2,0.1-0.4,0.2-0.5s0.3-0.2,0.5-0.2h2.9l3.7-3.7c0.1-0.1,0.3-0.2,0.5-0.2
	c0.2,0,0.4,0.1,0.5,0.2c0.1,0.1,0.2,0.3,0.2,0.5V14l3.1-3.1c-0.2-0.1-0.4-0.4-0.4-0.6c0-0.2,0.1-0.4,0.2-0.5
	c0.1-0.1,0.3-0.2,0.5-0.2c0.1,0,0.2,0,0.3,0.1c0.1,0.1,0.3,0.1,0.4,0.2l1-1c-0.1-0.1-0.3-0.2-0.4-0.2c-0.1,0-0.1-0.1-0.3-0.1
	c-0.1,0-0.2-0.1-0.3-0.1c-0.3-0.2-0.4-0.4-0.4-0.7c0-0.2,0.1-0.4,0.2-0.5C18.8,7.1,19,7,19.2,7c0.1,0,0.2,0,0.3,0.1
	c0.5,0.2,1,0.5,1.4,0.7l2.5-2.5l1.4,1.4L23.6,7.9z"/>
</svg>
