<?xml version="1.0" encoding="utf-8"?>
<!-- Generator: Adobe Illustrator 20.1.0, SVG Export Plug-In . SVG Version: 6.00 Build 0)  -->
<svg version="1.1" xmlns="http://www.w3.org/2000/svg" xmlns:xlink="http://www.w3.org/1999/xlink" x="0px" y="0px"
	 viewBox="0 0 30 30" style="enable-background:new 0 0 30 30;" xml:space="preserve">
<title>audio</title>
<desc>Created with Sketch.</desc>
<path d="M15,30c8.3,0,15-6.7,15-15S23.3,0,15,0S0,6.7,0,15S6.7,30,15,30z M14.6,8.9v12.2c0,0.2-0.1,0.4-0.2,0.5
	c-0.1,0.1-0.3,0.2-0.5,0.2c-0.2,0-0.4-0.1-0.5-0.2l-3.7-3.7H6.7c-0.2,0-0.4-0.1-0.5-0.2C6.1,17.5,6,17.4,6,17.2v-4.3
	c0-0.2,0.1-0.4,0.2-0.5c0.1-0.1,0.3-0.2,0.5-0.2h2.9l3.7-3.7c0.1-0.1,0.3-0.2,0.5-0.2c0.2,0,0.4,0.1,0.5,0.2
	C14.6,8.5,14.6,8.7,14.6,8.9z M19,15c0,0.6-0.2,1.1-0.5,1.6c-0.3,0.5-0.7,0.8-1.3,1.1c-0.1,0-0.2,0.1-0.3,0.1
	c-0.2,0-0.4-0.1-0.5-0.2c-0.1-0.1-0.2-0.3-0.2-0.5c0-0.2,0-0.3,0.1-0.4c0.1-0.1,0.2-0.2,0.3-0.3s0.3-0.2,0.4-0.3
	c0.1-0.1,0.2-0.2,0.3-0.4c0.1-0.2,0.1-0.4,0.1-0.6s0-0.5-0.1-0.6c-0.1-0.2-0.2-0.3-0.3-0.4c-0.1-0.1-0.3-0.2-0.4-0.3
	s-0.2-0.2-0.3-0.3c-0.1-0.1-0.1-0.2-0.1-0.4c0-0.2,0.1-0.4,0.2-0.5c0.1-0.1,0.3-0.2,0.5-0.2c0.1,0,0.2,0,0.3,0.1
	c0.5,0.2,0.9,0.6,1.3,1C18.8,13.9,19,14.4,19,15z M21.8,15c0,1.1-0.3,2.2-1,3.2s-1.5,1.7-2.5,2.1c-0.1,0-0.2,0.1-0.3,0.1
	c-0.2,0-0.4-0.1-0.5-0.2c-0.1-0.1-0.2-0.3-0.2-0.5c0-0.3,0.1-0.5,0.4-0.7c0.4-0.2,0.7-0.4,0.9-0.5c0.6-0.4,1-0.9,1.3-1.5
	s0.5-1.3,0.5-2s-0.2-1.3-0.5-2s-0.7-1.1-1.3-1.5c-0.2-0.1-0.4-0.3-0.9-0.5c-0.3-0.2-0.4-0.4-0.4-0.7c0-0.2,0.1-0.4,0.2-0.5
	c0.1-0.1,0.3-0.2,0.5-0.2c0.1,0,0.2,0,0.3,0.1c1.1,0.4,1.9,1.1,2.5,2.1S21.8,13.9,21.8,15z M24.7,15c0,1.7-0.5,3.3-1.4,4.8
	c-1,1.4-2.2,2.5-3.8,3.2c-0.1,0-0.2,0.1-0.3,0.1c-0.2,0-0.4-0.1-0.5-0.2c-0.1-0.1-0.2-0.3-0.2-0.5c0-0.3,0.1-0.5,0.4-0.7
	c0.1,0,0.1-0.1,0.3-0.1c0.1,0,0.2-0.1,0.3-0.1c0.3-0.2,0.7-0.4,0.9-0.6c0.9-0.7,1.6-1.5,2.2-2.6c0.5-1,0.8-2.1,0.8-3.3
	s-0.3-2.2-0.8-3.3c-0.5-1-1.2-1.9-2.2-2.6c-0.3-0.2-0.6-0.4-0.9-0.6c-0.1,0-0.1-0.1-0.3-0.1c-0.1,0-0.2-0.1-0.3-0.1
	c-0.3-0.2-0.4-0.4-0.4-0.7c0-0.2,0.1-0.4,0.2-0.5C18.8,7.1,19,7,19.2,7c0.1,0,0.2,0,0.3,0.1c1.6,0.7,2.9,1.7,3.8,3.2
	C24.2,11.7,24.7,13.3,24.7,15z"/>
</svg>
