<?xml version="1.0" encoding="utf-8"?>
<!-- Generator: Adobe Illustrator 20.1.0, SVG Export Plug-In . SVG Version: 6.00 Build 0)  -->
<svg version="1.1" xmlns="http://www.w3.org/2000/svg" xmlns:xlink="http://www.w3.org/1999/xlink" x="0px" y="0px"
	 viewBox="0 0 30 30" style="enable-background:new 0 0 30 30;" xml:space="preserve">
<title>background</title>
<desc>Created with Sketch.</desc>
<path d="M15,30c8.3,0,15-6.7,15-15S23.3,0,15,0S0,6.7,0,15S6.7,30,15,30z M11.7,12c0,0.5-0.2,0.9-0.5,1.2s-0.7,0.5-1.2,0.5
	s-0.9-0.2-1.2-0.5S8.3,12.5,8.3,12s0.2-0.9,0.5-1.2s0.7-0.5,1.2-0.5s0.9,0.2,1.2,0.5S11.7,11.5,11.7,12z M20.9,15.4v4H8.3v-1.7
	l2.9-2.9l1.4,1.4l4.6-4.6L20.9,15.4z M21.7,9.1H7.4c-0.1,0-0.1,0-0.2,0.1C7.2,9.3,7.1,9.4,7.1,9.4v10.9c0,0.1,0,0.1,0.1,0.2
	c0.1,0.1,0.1,0.1,0.2,0.1h14.3c0.1,0,0.1,0,0.2-0.1c0.1-0.1,0.1-0.1,0.1-0.2V9.4c0-0.1,0-0.1-0.1-0.2C21.9,9.2,21.8,9.1,21.7,9.1z
	 M23.1,9.4v10.9c0,0.4-0.1,0.7-0.4,1c-0.3,0.3-0.6,0.4-1,0.4H7.4c-0.4,0-0.7-0.1-1-0.4C6.1,21,6,20.7,6,20.3V9.4
	c0-0.4,0.1-0.7,0.4-1C6.7,8.1,7,8,7.4,8h14.3c0.4,0,0.7,0.1,1,0.4C23,8.7,23.1,9,23.1,9.4z"/>
</svg>
