<?xml version="1.0" encoding="utf-8"?>
<!-- Generator: Adobe Illustrator 20.1.0, SVG Export Plug-In . SVG Version: 6.00 Build 0)  -->
<svg version="1.1" xmlns="http://www.w3.org/2000/svg" xmlns:xlink="http://www.w3.org/1999/xlink" x="0px" y="0px"
	 viewBox="0 0 30 30" style="enable-background:new 0 0 30 30;" xml:space="preserve">
<title>choice</title>
<desc>Created with Sketch.</desc>
<path d="M15,30c8.3,0,15-6.7,15-15S23.3,0,15,0S0,6.7,0,15S6.7,30,15,30z M6,9c0-0.6,0.4-1,1-1h3c0.6,0,1,0.4,1,1v2c0,0.6-0.4,1-1,1
	H7c-0.6,0-1-0.4-1-1V9z M6,14c0-0.6,0.4-1,1-1h3c0.6,0,1,0.4,1,1v2c0,0.6-0.4,1-1,1H7c-0.6,0-1-0.4-1-1V14z M6,19c0-0.6,0.4-1,1-1h3
	c0.6,0,1,0.4,1,1v2c0,0.6-0.4,1-1,1H7c-0.6,0-1-0.4-1-1V19z M12,9c0-0.6,0.5-1,1-1h10c0.6,0,1,0.4,1,1v2c0,0.6-0.5,1-1,1H13
	c-0.6,0-1-0.4-1-1V9z M12,14c0-0.6,0.5-1,1-1h10c0.6,0,1,0.4,1,1v2c0,0.6-0.5,1-1,1H13c-0.6,0-1-0.4-1-1V14z M12,19c0-0.6,0.5-1,1-1
	h10c0.6,0,1,0.4,1,1v2c0,0.6-0.5,1-1,1H13c-0.6,0-1-0.4-1-1V19z"/>
</svg>
