<?xml version="1.0" encoding="utf-8"?>
<!-- Generator: Adobe Illustrator 20.1.0, SVG Export Plug-In . SVG Version: 6.00 Build 0)  -->
<svg version="1.1" xmlns="http://www.w3.org/2000/svg" xmlns:xlink="http://www.w3.org/1999/xlink" x="0px" y="0px"
	 viewBox="0 0 30 30" style="enable-background:new 0 0 30 30;" xml:space="preserve">
<title>clear-dialoguebox</title>
<desc>Created with Sketch.</desc>
<path d="M15,0C6.7,0,0,6.7,0,15c0,8.3,6.7,15,15,15c8.3,0,15-6.7,15-15C30,6.7,23.3,0,15,0z M5.6,22.2l3.1-3.1
	c-0.6-0.4-1.1-0.9-1.5-1.4c-0.8-1-1.2-2.1-1.2-3.2c0-1.2,0.4-2.2,1.2-3.2c0.8-1,1.9-1.8,3.3-2.3C11.9,8.3,13.4,8,15,8
	c1.2,0,2.4,0.2,3.5,0.5c0.2,0.1,0.4,0.1,0.6,0.2l3.5-3.5L24,6.6l-17,17L5.6,22.2z M23.1,17.3c-0.6,0.9-1.4,1.6-2.5,2.2
	c0.1,0.3,0.2,0.5,0.3,0.8c0.1,0.2,0.2,0.4,0.3,0.6c0.1,0.2,0.2,0.3,0.3,0.5s0.2,0.3,0.3,0.4c0.1,0.1,0.2,0.2,0.3,0.4
	c0.2,0.2,0.3,0.3,0.3,0.3c0,0,0,0,0.1,0.1c0,0,0.1,0.1,0.1,0.1c0,0,0,0,0.1,0.1c0,0.1,0,0.1,0,0.1c0,0,0,0,0,0.1c0,0.1,0,0.1,0,0.1
	v0c0,0.1-0.1,0.2-0.2,0.3s-0.2,0.1-0.3,0.1c-0.4-0.1-0.8-0.1-1.1-0.2c-1.8-0.4-3.3-1.3-4.6-2.4c-0.5,0.1-1,0.1-1.5,0.1
	c-0.8,0-1.5-0.1-2.3-0.2l9.8-9.8c0.3,0.3,0.6,0.7,0.8,1.1c0.5,0.8,0.7,1.6,0.7,2.5C24,15.4,23.7,16.4,23.1,17.3z"/>
</svg>
