<?xml version="1.0" encoding="utf-8"?>
<!-- Generator: Adobe Illustrator 20.1.0, SVG Export Plug-In . SVG Version: 6.00 Build 0)  -->
<svg version="1.1" xmlns="http://www.w3.org/2000/svg" xmlns:xlink="http://www.w3.org/1999/xlink" x="0px" y="0px"
	 viewBox="0 0 30 30" style="enable-background:new 0 0 30 30;" xml:space="preserve">
<title>dialogue</title>
<desc>Created with Sketch.</desc>
<path d="M15,30c8.3,0,15-6.7,15-15S23.3,0,15,0S0,6.7,0,15S6.7,30,15,30z M26,9.4c0,0.6-0.2,1.2-0.7,1.8c-0.4,0.5-1.1,1-1.8,1.3
	C22.7,12.8,21.9,13,21,13c-0.3,0-0.5,0-0.8,0c-0.7,0.7-1.6,1.1-2.6,1.4c-0.2,0.1-0.4,0.1-0.6,0.1c-0.1,0-0.1,0-0.2-0.1
	c-0.1,0-0.1-0.1-0.1-0.2v0c0,0,0,0,0-0.1s0,0,0-0.1c0,0,0,0,0-0.1c0,0,0,0,0-0.1c0,0,0,0,0,0s0,0,0-0.1c0,0,0.1-0.1,0.2-0.2
	c0.1-0.1,0.2-0.2,0.2-0.2c0,0,0.1-0.1,0.2-0.2s0.1-0.2,0.2-0.3c0-0.1,0.1-0.2,0.2-0.3s0.1-0.3,0.1-0.4c-0.6-0.3-1-0.7-1.4-1.2
	S16,10,16,9.4c0-0.5,0.1-0.9,0.4-1.4c0.3-0.4,0.6-0.8,1.1-1.1s1-0.6,1.6-0.8C19.7,6,20.3,5.9,21,5.9c0.9,0,1.7,0.2,2.5,0.5
	c0.8,0.3,1.4,0.8,1.8,1.3C25.8,8.2,26,8.8,26,9.4z M19.1,21.7c0,0.8-0.2,1.4-0.7,1.9c-0.5,0.5-1.1,0.7-1.9,0.7H7.7
	c-0.8,0-1.5-0.2-1.9-0.7C5.2,23.1,5,22.5,5,21.7c0-0.4,0-0.7,0-1s0.1-0.7,0.1-1.1s0.2-0.8,0.3-1.1s0.3-0.7,0.4-1
	c0.2-0.3,0.4-0.6,0.6-0.8c0.2-0.2,0.5-0.4,0.9-0.5c0.3-0.1,0.7-0.2,1.1-0.2c0.1,0,0.2,0.1,0.4,0.2c0.2,0.1,0.5,0.3,0.7,0.5
	c0.3,0.2,0.6,0.3,1.1,0.5c0.4,0.1,0.9,0.2,1.3,0.2s0.9-0.1,1.3-0.2c0.4-0.1,0.8-0.3,1.1-0.5c0.3-0.2,0.5-0.3,0.7-0.5
	s0.4-0.2,0.4-0.2c0.4,0,0.8,0.1,1.1,0.2c0.3,0.1,0.6,0.3,0.9,0.5c0.2,0.2,0.4,0.5,0.6,0.8c0.2,0.3,0.3,0.6,0.4,1s0.2,0.7,0.3,1.1
	s0.1,0.8,0.1,1.1S19.1,21.3,19.1,21.7z M15.9,12.7c0,1.1-0.4,2-1.1,2.7c-0.8,0.8-1.7,1.1-2.7,1.1s-2-0.4-2.7-1.1s-1.1-1.7-1.1-2.7
	s0.4-2,1.1-2.7s1.7-1.1,2.7-1.1s2,0.4,2.7,1.1C15.6,10.7,15.9,11.6,15.9,12.7z"/>
</svg>
