<?xml version="1.0" encoding="utf-8"?>
<!-- Generator: Adobe Illustrator 20.1.0, SVG Export Plug-In . SVG Version: 6.00 Build 0)  -->
<svg version="1.1" xmlns="http://www.w3.org/2000/svg" xmlns:xlink="http://www.w3.org/1999/xlink" x="0px" y="0px"
	 viewBox="0 0 30 30" style="enable-background:new 0 0 30 30;" xml:space="preserve">
<title>focus-quit</title>
<desc>Created with Sketch.</desc>
<path d="M15,0C6.7,0,0,6.7,0,15s6.7,15,15,15c8.3,0,15-6.7,15-15S23.3,0,15,0z M23.7,16.6c0.2,0.2,0.3,0.5,0.2,0.8
	c-0.1,0.3-0.3,0.5-0.6,0.6l-2.2,0.6l0.6,2.2c0.1,0.3,0,0.6-0.2,0.8c-0.2,0.2-0.5,0.3-0.8,0.2l-2.2-0.6L18,23.4
	c-0.1,0.3-0.3,0.5-0.6,0.6c-0.1,0-0.2,0-0.2,0c-0.2,0-0.4-0.1-0.6-0.3L15,22.1l-1.6,1.6C13.2,24,12.9,24,12.6,24
	c-0.3-0.1-0.5-0.3-0.6-0.6l-0.3-1.1l10.6-10.6l1.1,0.3c0.3,0.1,0.5,0.3,0.6,0.6c0.1,0.3,0,0.6-0.2,0.8L22.1,15L23.7,16.6z M6.4,25
	L5,23.6l3.4-3.4l0.5-1.6L6.6,18c-0.3-0.1-0.5-0.3-0.6-0.6c-0.1-0.3,0-0.6,0.2-0.8L7.9,15l-1.6-1.6C6,13.2,6,12.9,6,12.6
	c0.1-0.3,0.3-0.5,0.6-0.6l2.2-0.6L8.2,9.3c-0.1-0.3,0-0.6,0.2-0.8c0.2-0.2,0.5-0.3,0.8-0.2l2.2,0.6L12,6.6c0.1-0.3,0.3-0.5,0.6-0.6
	c0.3-0.1,0.6,0,0.8,0.2L15,7.9l1.6-1.6C16.8,6,17.1,6,17.4,6c0.3,0.1,0.5,0.3,0.6,0.6l0.6,2.2l1.6-0.5l3.2-3.2l1.4,1.4L6.4,25z"/>
</svg>
