<?xml version="1.0" encoding="utf-8"?>
<!-- Generator: Adobe Illustrator 20.1.0, SVG Export Plug-In . SVG Version: 6.00 Build 0)  -->
<svg version="1.1" xmlns="http://www.w3.org/2000/svg" xmlns:xlink="http://www.w3.org/1999/xlink" x="0px" y="0px"
	 viewBox="0 0 30 30" style="enable-background:new 0 0 30 30;" xml:space="preserve">
<title>item-quit</title>
<desc>Created with Sketch.</desc>
<g>
	<path d="M12.2,7.1c-0.2-0.3-0.5-0.4-0.9-0.4c-0.4,0-0.7,0.1-0.9,0.4S10,7.6,10,8c0,0.4,0.1,0.7,0.4,0.9s0.6,0.4,0.9,0.4h2.6
		L12.2,7.1z"/>
	<path d="M19.2,6.7c-0.4,0-0.7,0.1-0.9,0.4l-1.7,2.2h2.6c0.4,0,0.7-0.1,0.9-0.4s0.4-0.6,0.4-0.9c0-0.4-0.1-0.7-0.4-0.9
		S19.6,6.7,19.2,6.7z"/>
	<polygon points="13.1,13.6 13.1,16.7 17.4,12.4 17.4,11 13.1,11 	"/>
	<path d="M15,0C6.7,0,0,6.7,0,15c0,8.3,6.7,15,15,15c8.3,0,15-6.7,15-15C30,6.7,23.3,0,15,0z M5.9,23.9l1.2-1.2c0,0,0,0-0.1-0.1
		c-0.2-0.2-0.4-0.6-0.4-0.9v-5.6H5.4c-0.1,0-0.2,0-0.3-0.1C5,15.9,5,15.8,5,15.7v-4.3c0-0.1,0-0.2,0.1-0.3C5.2,11,5.3,11,5.4,11h5.9
		c-0.8,0-1.5-0.3-2.1-0.9S8.3,8.8,8.3,8c0-0.8,0.3-1.5,0.9-2.1C9.8,5.3,10.5,5,11.3,5c1,0,1.7,0.3,2.2,1l1.7,2.2L17,6
		c0.5-0.7,1.3-1,2.2-1c0.8,0,1.5,0.3,2.1,0.9c0.5,0.5,0.8,1.1,0.9,1.7l1.4-1.4l1.3,1.3L7.2,25.3L5.9,23.9z M25.6,15.7
		c0,0.1,0,0.2-0.1,0.3c-0.1,0.1-0.2,0.1-0.3,0.1h-1.3v5.6c0,0.4-0.1,0.7-0.4,0.9S22.9,23,22.6,23H12.3l1.7-1.7h2.5
		c0.2,0,0.5-0.1,0.6-0.2c0.2-0.1,0.2-0.3,0.2-0.5v-0.8v-1.9l6.9-6.9h0.8c0.1,0,0.2,0,0.3,0.1c0.1,0.1,0.1,0.2,0.1,0.3V15.7z"/>
</g>
</svg>
