<?xml version="1.0" encoding="utf-8"?>
<!-- Generator: Adobe Illustrator 20.1.0, SVG Export Plug-In . SVG Version: 6.00 Build 0)  -->
<svg version="1.1" xmlns="http://www.w3.org/2000/svg" xmlns:xlink="http://www.w3.org/1999/xlink" x="0px" y="0px"
	 viewBox="0 0 30 30" style="enable-background:new 0 0 30 30;" xml:space="preserve">
<title>item</title>
<desc>Created with Sketch.</desc>
<path d="M15,30c8.3,0,15-6.7,15-15S23.3,0,15,0S0,6.7,0,15S6.7,30,15,30z M17.4,20.6v-0.8v-6.3V11h-4.3v2.6v6.3v0.8
	c0,0.2,0.1,0.4,0.2,0.5c0.2,0.1,0.4,0.2,0.6,0.2h2.6c0.3,0,0.5-0.1,0.6-0.2C17.3,21,17.4,20.8,17.4,20.6z M11.3,9.3h2.6l-1.7-2.2
	c-0.2-0.3-0.5-0.4-0.9-0.4c-0.4,0-0.7,0.1-0.9,0.4C10.2,7.3,10,7.6,10,8c0,0.4,0.1,0.7,0.4,0.9C10.7,9.2,11,9.3,11.3,9.3z M20.5,8
	c0-0.4-0.1-0.7-0.4-0.9c-0.2-0.2-0.6-0.4-0.9-0.4c-0.4,0-0.7,0.1-0.9,0.4l-1.7,2.2h2.6c0.4,0,0.7-0.1,0.9-0.4
	C20.4,8.7,20.5,8.4,20.5,8z M25.6,11.4v4.3c0,0.1,0,0.2-0.1,0.3c-0.1,0.1-0.2,0.1-0.3,0.1h-1.3v5.6c0,0.4-0.1,0.7-0.4,0.9
	S22.9,23,22.6,23H8c-0.4,0-0.7-0.1-0.9-0.4c-0.2-0.2-0.4-0.6-0.4-0.9v-5.6H5.4c-0.1,0-0.2,0-0.3-0.1C5,15.9,5,15.8,5,15.7v-4.3
	c0-0.1,0-0.2,0.1-0.3C5.2,11,5.3,11,5.4,11h5.9c-0.8,0-1.5-0.3-2.1-0.9C8.6,9.5,8.3,8.8,8.3,8s0.3-1.5,0.9-2.1
	C9.8,5.3,10.5,5,11.3,5c1,0,1.7,0.3,2.2,1l1.7,2.2L17,6c0.5-0.7,1.3-1,2.2-1c0.8,0,1.5,0.3,2.1,0.9C22,6.5,22.2,7.2,22.2,8
	s-0.3,1.5-0.9,2.1c-0.6,0.6-1.3,0.9-2.1,0.9h5.9c0.1,0,0.2,0,0.3,0.1S25.6,11.3,25.6,11.4z"/>
</svg>
