<?xml version="1.0" encoding="utf-8"?>
<!-- Generator: Adobe Illustrator 20.1.0, SVG Export Plug-In . SVG Version: 6.00 Build 0)  -->
<svg version="1.1" xmlns="http://www.w3.org/2000/svg" xmlns:xlink="http://www.w3.org/1999/xlink" x="0px" y="0px"
	 viewBox="0 0 30 30" style="enable-background:new 0 0 30 30;" xml:space="preserve">
<title>music</title>
<desc>Created with Sketch.</desc>
<path d="M15,30c8.3,0,15-6.7,15-15S23.3,0,15,0S0,6.7,0,15S6.7,30,15,30z M22,7v11.7c0,0.3-0.1,0.7-0.4,0.9s-0.5,0.5-0.9,0.6
	s-0.7,0.3-1.1,0.3c-0.4,0.1-0.7,0.1-1,0.1s-0.6,0-1-0.1c-0.4-0.1-0.7-0.2-1.1-0.3s-0.7-0.4-0.9-0.6s-0.4-0.6-0.4-0.9
	c0-0.3,0.1-0.7,0.4-0.9s0.5-0.5,0.9-0.6s0.7-0.3,1.1-0.3c0.4-0.1,0.7-0.1,1-0.1c0.7,0,1.4,0.1,2,0.4v-5.6l-8,2.5v7.4
	c0,0.3-0.1,0.7-0.4,0.9s-0.5,0.5-0.9,0.6s-0.7,0.3-1.1,0.3c-0.4,0.1-0.7,0.1-1,0.1s-0.6,0-1-0.1C8,23.2,7.6,23,7.2,22.9
	s-0.7-0.4-0.9-0.6S6,21.7,6,21.3c0-0.3,0.1-0.7,0.4-0.9s0.5-0.5,0.9-0.6s0.7-0.3,1.1-0.3c0.4-0.1,0.7-0.1,1-0.1c0.7,0,1.4,0.1,2,0.4
	V9.7c0-0.2,0.1-0.4,0.2-0.6s0.3-0.3,0.5-0.4L20.7,6c0.1,0,0.2,0,0.3,0c0.3,0,0.5,0.1,0.7,0.3C21.9,6.5,22,6.7,22,7z"/>
</svg>
