<?xml version="1.0" encoding="utf-8"?>
<!-- Generator: Adobe Illustrator 20.1.0, SVG Export Plug-In . SVG Version: 6.00 Build 0)  -->
<svg version="1.1" xmlns="http://www.w3.org/2000/svg" xmlns:xlink="http://www.w3.org/1999/xlink" x="0px" y="0px"
	 viewBox="0 0 30 30" style="enable-background:new 0 0 30 30;" xml:space="preserve">
<title>music-quit</title>
<desc>Created with Sketch.</desc>
<path d="M15,0C6.7,0,0,6.7,0,15c0,8.3,6.7,15,15,15c8.3,0,15-6.7,15-15C30,6.7,23.3,0,15,0z M12.3,22.3c-0.1,0.2-0.3,0.3-0.5,0.4
	l0.7-0.7C12.4,22.1,12.4,22.2,12.3,22.3z M22,18.7c0,0.3-0.1,0.7-0.4,0.9c-0.2,0.3-0.5,0.5-0.9,0.6c-0.4,0.1-0.7,0.3-1.1,0.3
	c-0.4,0.1-0.7,0.1-1,0.1s-0.6,0-1-0.1c-0.4-0.1-0.7-0.2-1.1-0.3c-0.4-0.1-0.7-0.4-0.9-0.6c-0.1-0.2-0.2-0.3-0.3-0.5l2.3-2.3
	c0.3-0.1,0.6-0.1,0.9-0.1c0.7,0,1.4,0.1,2,0.4v-3.2l1.3-1.3V18.7z M6.9,25.4L5.4,24l1.4-1.4c-0.2-0.1-0.3-0.2-0.5-0.4
	C6.1,22,6,21.7,6,21.3s0.1-0.7,0.4-0.9c0.2-0.3,0.5-0.5,0.9-0.6c0.4-0.1,0.7-0.3,1.1-0.3c0.4-0.1,0.7-0.1,1-0.1c0.3,0,0.5,0,0.8,0.1
	l1.2-1.2V9.7c0-0.2,0.1-0.4,0.2-0.6c0.1-0.2,0.3-0.3,0.5-0.4L20.7,6c0.1,0,0.2,0,0.3,0c0.3,0,0.5,0.1,0.7,0.3C21.9,6.5,22,6.7,22,7
	v0.5l2.5-2.5l1.4,1.4L6.9,25.4z"/>
<polygon points="12.7,16.8 16.8,12.7 12.7,13.9 "/>
</svg>
