<?xml version="1.0" encoding="iso-8859-1"?>
<!-- Generator: Adobe Illustrator 19.0.0, SVG Export Plug-In . SVG Version: 6.00 Build 0)  -->
<svg version="1.1" id="Layer_1" xmlns="http://www.w3.org/2000/svg" xmlns:xlink="http://www.w3.org/1999/xlink" x="0px" y="0px"
	 viewBox="0 0 512 512" style="enable-background:new 0 0 512 512;" xml:space="preserve">
  <path d="M256,0C114.837,0,0,114.837,0,256s114.837,256,256,256s256-114.837,256-256S397.163,0,256,0z M234.667,362.667
			c0,11.776-9.536,21.333-21.333,21.333h-64C137.536,384,128,374.443,128,362.667V149.333c0-11.776,9.536-21.333,21.333-21.333h64
			c11.797,0,21.333,9.557,21.333,21.333V362.667z M384,362.667c0,11.776-9.536,21.333-21.333,21.333h-64
			c-11.797,0-21.333-9.557-21.333-21.333V149.333c0-11.776,9.536-21.333,21.333-21.333h64c11.797,0,21.333,9.557,21.333,21.333
			V362.667z"/>
</svg>
