<?xml version="1.0" encoding="utf-8"?>
<!-- Generator: Adobe Illustrator 20.1.0, SVG Export Plug-In . SVG Version: 6.00 Build 0)  -->
<svg version="1.1" xmlns="http://www.w3.org/2000/svg" xmlns:xlink="http://www.w3.org/1999/xlink" x="0px" y="0px"
	 viewBox="0 0 30 30" style="enable-background:new 0 0 30 30;" xml:space="preserve">
<title>quake</title>
<desc>Created with Sketch.</desc>
<path d="M15,30c8.3,0,15-6.7,15-15c0-8.3-6.7-15-15-15S0,6.7,0,15C0,23.3,6.7,30,15,30z M7,9.5C7,9.2,7.2,9,7.5,9C7.8,9,8,9.2,8,9.5
	v11C8,20.8,7.8,21,7.5,21C7.2,21,7,20.8,7,20.5V9.5z M9,9c0-0.6,0.5-1,1-1h10c0.6,0,1,0.4,1,1v12c0,0.6-0.5,1-1,1H10
	c-0.6,0-1-0.4-1-1V9z M5,10.5C5,10.2,5.2,10,5.5,10C5.8,10,6,10.2,6,10.5v9C6,19.8,5.8,20,5.5,20C5.2,20,5,19.8,5,19.5V10.5z
	 M24,10.5c0-0.3,0.2-0.5,0.5-0.5c0.3,0,0.5,0.2,0.5,0.5v9c0,0.3-0.2,0.5-0.5,0.5c-0.3,0-0.5-0.2-0.5-0.5V10.5z M22,9.5
	C22,9.2,22.2,9,22.5,9C22.8,9,23,9.2,23,9.5v11c0,0.3-0.2,0.5-0.5,0.5c-0.3,0-0.5-0.2-0.5-0.5V9.5z M11,10h8v10h-8V10z"/>
</svg>
