<?xml version="1.0" encoding="utf-8"?>
<!-- Generator: Adobe Illustrator 20.1.0, SVG Export Plug-In . SVG Version: 6.00 Build 0)  -->
<svg version="1.1" xmlns="http://www.w3.org/2000/svg" xmlns:xlink="http://www.w3.org/1999/xlink" x="0px" y="0px"
	 viewBox="0 0 30 30" style="enable-background:new 0 0 30 30;" xml:space="preserve">
<title>quit-middle</title>
<desc>Created with Sketch.</desc>
<path d="M30,15c0-8.3-6.7-15-15-15S0,6.7,0,15s6.7,15,15,15S30,23.3,30,15z M18.4,6c1.2,0,2.9,0.5,5,1.4c0.1,0,0.1,0.1,0.3,0.1
	c0.1,0.1,0.2,0.1,0.3,0.2c0.1,0,0.2,0.1,0.2,0.1c0.1,0.1,0.2,0.2,0.2,0.3c0,0.1,0,0.2-0.1,0.3c-0.1,0.1-0.2,0.1-0.3,0.1
	c-0.1,0-0.2,0-0.3,0c-0.1,0-0.2,0-0.3,0c-0.5,0-1-0.1-1.4-0.1c-0.8,0-1.4,0.1-2,0.2c-0.6,0.1-1.1,0.3-1.5,0.5s-0.8,0.5-1.1,0.9
	s-0.6,0.8-0.8,1.2s-0.4,0.9-0.5,1.5s-0.2,1.1-0.2,1.7s-0.1,1.2-0.1,2v2.5h2.9c0.2,0,0.4,0.1,0.5,0.2c0.1,0.1,0.2,0.3,0.2,0.5
	s-0.1,0.4-0.2,0.5l-5.7,5.7C13.4,25.9,13.2,26,13,26s-0.4-0.1-0.5-0.2l-5.7-5.7c-0.1-0.1-0.2-0.3-0.2-0.5s0.1-0.4,0.2-0.5
	c0.1-0.1,0.3-0.2,0.5-0.2h2.9v-2.5c0-5.3,1.5-8.6,4.5-9.8C15.6,6.2,16.9,6,18.4,6z"/>
</svg>
