<?xml version="1.0" encoding="utf-8"?>
<!-- Generator: Adobe Illustrator 20.1.0, SVG Export Plug-In . SVG Version: 6.00 Build 0)  -->
<svg version="1.1" xmlns="http://www.w3.org/2000/svg" xmlns:xlink="http://www.w3.org/1999/xlink" x="0px" y="0px"
	 viewBox="0 0 30 30" style="enable-background:new 0 0 30 30;" xml:space="preserve">
<title>quit-left</title>
<desc>Created with Sketch.</desc>
<path d="M15,30c8.3,0,15-6.7,15-15S23.3,0,15,0S0,6.7,0,15S6.7,30,15,30z M24,18.4c0,1.2-0.5,2.9-1.4,5c0,0.1-0.1,0.1-0.1,0.3
	c-0.1,0.1-0.1,0.2-0.2,0.3c0,0.1-0.1,0.2-0.1,0.2c-0.1,0.1-0.2,0.2-0.3,0.2c-0.1,0-0.2,0-0.3-0.1c-0.1-0.1-0.1-0.2-0.1-0.3
	c0-0.1,0-0.2,0-0.3c0-0.1,0-0.2,0-0.3c0-0.5,0.1-1,0.1-1.4c0-0.8-0.1-1.4-0.2-2c-0.1-0.6-0.3-1.1-0.5-1.5s-0.5-0.8-0.9-1.1
	s-0.8-0.6-1.2-0.8s-0.9-0.4-1.5-0.5s-1.1-0.2-1.7-0.2s-1.2-0.1-2-0.1h-2.5v2.9c0,0.2-0.1,0.4-0.2,0.5c-0.1,0.1-0.3,0.2-0.5,0.2
	s-0.4-0.1-0.5-0.2l-5.7-5.7C4.1,13.4,4,13.2,4,13s0.1-0.4,0.2-0.5l5.7-5.7c0.1-0.1,0.3-0.2,0.5-0.2s0.4,0.1,0.5,0.2
	c0.1,0.1,0.2,0.3,0.2,0.5v2.9h2.5c5.3,0,8.6,1.5,9.8,4.5C23.8,15.6,24,16.9,24,18.4z"/>
</svg>
