<?xml version="1.0" encoding="utf-8"?>
<!-- Generator: Adobe Illustrator 20.1.0, SVG Export Plug-In . SVG Version: 6.00 Build 0)  -->
<svg version="1.1" xmlns="http://www.w3.org/2000/svg" xmlns:xlink="http://www.w3.org/1999/xlink" x="0px" y="0px"
	 viewBox="0 0 30 30" style="enable-background:new 0 0 30 30;" xml:space="preserve">
<title>quote</title>
<desc>Created with Sketch.</desc>
<path d="M15,30c8.3,0,15-6.7,15-15S23.3,0,15,0S0,6.7,0,15S6.7,30,15,30z M14.7,16.4v3.9c0,0.5-0.2,1-0.6,1.4s-0.8,0.6-1.4,0.6H8.9
	c-0.5,0-1-0.2-1.4-0.6S7,20.7,7,20.2v-7.1c0-0.7,0.1-1.4,0.4-2C7.7,10.5,8,10,8.5,9.5C9,9,9.5,8.7,10.1,8.4s1.3-0.4,2-0.4h0.6
	c0.2,0,0.3,0.1,0.5,0.2s0.2,0.3,0.2,0.5v1.3c0,0.2-0.1,0.3-0.2,0.5c-0.1,0.1-0.3,0.2-0.5,0.2h-0.6c-0.7,0-1.3,0.3-1.8,0.8
	s-0.8,1.1-0.8,1.8v0.3c0,0.3,0.1,0.5,0.3,0.7s0.4,0.3,0.7,0.3h2.2c0.5,0,1,0.2,1.4,0.6S14.7,15.8,14.7,16.4z M23.7,16.4v3.9
	c0,0.5-0.2,1-0.6,1.4s-0.8,0.6-1.4,0.6h-3.9c-0.5,0-1-0.2-1.4-0.6S16,20.7,16,20.2v-7.1c0-0.7,0.1-1.4,0.4-2
	c0.3-0.6,0.6-1.2,1.1-1.6c0.5-0.5,1-0.8,1.6-1.1c0.6-0.3,1.3-0.4,2-0.4h0.6c0.2,0,0.3,0.1,0.5,0.2c0.1,0.1,0.2,0.3,0.2,0.5v1.3
	c0,0.2-0.1,0.3-0.2,0.5c-0.1,0.1-0.3,0.2-0.5,0.2h-0.6c-0.7,0-1.3,0.3-1.8,0.8c-0.5,0.5-0.8,1.1-0.8,1.8v0.3c0,0.3,0.1,0.5,0.3,0.7
	c0.2,0.2,0.4,0.3,0.7,0.3h2.2c0.5,0,1,0.2,1.4,0.6S23.7,15.8,23.7,16.4z"/>
</svg>
