<?xml version="1.0" encoding="utf-8"?>
<!-- Generator: Adobe Illustrator 20.1.0, SVG Export Plug-In . SVG Version: 6.00 Build 0)  -->
<svg version="1.1" xmlns="http://www.w3.org/2000/svg" xmlns:xlink="http://www.w3.org/1999/xlink" x="0px" y="0px"
	 viewBox="0 0 30 30" style="enable-background:new 0 0 30 30;" xml:space="preserve">
<title>skip</title>
<desc>Created with Sketch.</desc>
<path d="M15,0C6.7,0,0,6.7,0,15c0,8.3,6.7,15,15,15c8.3,0,15-6.7,15-15C30,6.7,23.3,0,15,0z M14.8,18.7c-0.1,0.1-0.3,0.2-0.5,0.2
	c-0.1,0-0.2,0-0.3-0.1c-0.3-0.1-0.4-0.3-0.4-0.7v-2.8c-1.2,0.1-2.2,0.3-3,0.6s-1.4,0.7-1.9,1.2c-1.1,1.2-1.5,3.3-1.2,6.3
	c0,0.2-0.1,0.3-0.3,0.4c0,0-0.1,0-0.1,0c-0.1,0-0.3-0.1-0.3-0.2c0-0.1-0.1-0.2-0.2-0.4c-0.1-0.2-0.3-0.5-0.5-1
	c-0.2-0.5-0.4-0.9-0.5-1.4s-0.3-1-0.4-1.5C5.1,18.7,5,18.2,5,17.8c0-2.5,0.6-4.4,1.9-5.7c1.4-1.4,3.6-2.3,6.7-2.5V6.7
	c0-0.3,0.1-0.5,0.4-0.7c0.3-0.1,0.6-0.1,0.8,0.2l5.7,5.7c0.1,0.1,0.2,0.3,0.2,0.5c0,0.2-0.1,0.4-0.2,0.5L14.8,18.7z M24.8,12.9
	l-5.7,5.7c-0.1,0.1-0.3,0.2-0.5,0.2c-0.1,0-0.2,0-0.3-0.1c-0.3-0.1-0.4-0.3-0.4-0.7v-0.8l4.4-4.4c0.1-0.1,0.2-0.3,0.2-0.5
	c0-0.2-0.1-0.4-0.2-0.5l-4.4-4.4V6.7c0-0.3,0.1-0.5,0.4-0.7c0.3-0.1,0.6-0.1,0.8,0.2l5.7,5.7c0.1,0.1,0.2,0.3,0.2,0.5
	C25,12.6,24.9,12.8,24.8,12.9z"/>
</svg>
