<?xml version="1.0" encoding="utf-8"?>
<!-- Generator: Adobe Illustrator 20.1.0, SVG Export Plug-In . SVG Version: 6.00 Build 0)  -->
<svg version="1.1" xmlns="http://www.w3.org/2000/svg" xmlns:xlink="http://www.w3.org/1999/xlink" x="0px" y="0px"
	 viewBox="0 0 30 30" style="enable-background:new 0 0 30 30;" xml:space="preserve">
<title>tab</title>
<desc>Created with Sketch.</desc>
<path d="M15,30c8.3,0,15-6.7,15-15S23.3,0,15,0S0,6.7,0,15S6.7,30,15,30z M19.9,8c0.1,0,0.3,0,0.4,0.1c0.2,0.1,0.4,0.2,0.5,0.4
	C20.9,8.6,21,8.8,21,9v12.1c0,0.2-0.1,0.4-0.2,0.6c-0.1,0.2-0.3,0.3-0.5,0.4c-0.1,0-0.3,0.1-0.4,0.1c-0.3,0-0.6-0.1-0.8-0.3l-4.1-4
	l-4.1,4c-0.2,0.2-0.5,0.3-0.8,0.3c-0.1,0-0.3,0-0.4-0.1c-0.2-0.1-0.4-0.2-0.5-0.4C9.1,21.5,9,21.3,9,21.1V9c0-0.2,0.1-0.4,0.2-0.6
	c0.1-0.2,0.3-0.3,0.5-0.4C9.8,8,9.9,8,10.1,8H19.9z"/>
</svg>
