<?xml version="1.0" encoding="utf-8"?>
<!-- Generator: Adobe Illustrator 20.1.0, SVG Export Plug-In . SVG Version: 6.00 Build 0)  -->
<svg version="1.1" xmlns="http://www.w3.org/2000/svg" xmlns:xlink="http://www.w3.org/1999/xlink" x="0px" y="0px"
	 viewBox="0 0 30 30" style="enable-background:new 0 0 30 30;" xml:space="preserve">
<title>thunder</title>
<desc>Created with Sketch.</desc>
<path d="M15,30c8.3,0,15-6.7,15-15S23.3,0,15,0S0,6.7,0,15S6.7,30,15,30z M21.9,10c0.2,0.2,0.2,0.4,0.1,0.6l-7.2,15.5
	c-0.1,0.2-0.3,0.3-0.6,0.3c0,0-0.1,0-0.2,0c-0.2,0-0.3-0.1-0.3-0.3s-0.1-0.3-0.1-0.4l2.6-10.8l-5.4,1.4c0,0-0.1,0-0.2,0
	c-0.2,0-0.3,0-0.4-0.1C10,16,10,15.8,10,15.6l2.7-11c0-0.1,0.1-0.2,0.2-0.3c0.1-0.1,0.2-0.1,0.4-0.1h4.4c0.2,0,0.3,0.1,0.4,0.2
	c0.1,0.1,0.2,0.2,0.2,0.4c0,0.1,0,0.2-0.1,0.2l-2.3,6.2l5.3-1.3c0.1,0,0.1,0,0.2,0C21.6,9.8,21.7,9.9,21.9,10z"/>
</svg>
