<?xml version="1.0" encoding="utf-8"?>
<!-- Generator: Adobe Illustrator 20.1.0, SVG Export Plug-In . SVG Version: 6.00 Build 0)  -->
<svg version="1.1" xmlns="http://www.w3.org/2000/svg" xmlns:xlink="http://www.w3.org/1999/xlink" x="0px" y="0px"
	 viewBox="0 0 30 30" style="enable-background:new 0 0 30 30;" xml:space="preserve">
<title>wait-page</title>
<desc>Created with Sketch.</desc>
<path d="M15,0C6.7,0,0,6.7,0,15c0,8.3,6.7,15,15,15c8.3,0,15-6.7,15-15C30,6.7,23.3,0,15,0z M21.2,7.3C21.6,7,22,6.8,22.6,6.8
	c0.5,0,1,0.2,1.3,0.5c0.4,0.4,0.5,0.8,0.5,1.3c0,0.5-0.2,1-0.5,1.3c-0.4,0.4-0.8,0.5-1.3,0.5c-0.5,0-1-0.2-1.3-0.5
	c-0.4-0.4-0.5-0.8-0.5-1.3C20.7,8.1,20.9,7.7,21.2,7.3z M13,3.3c0.6-0.6,1.4-0.9,2.3-0.9s1.7,0.3,2.3,0.9c0.6,0.6,1,1.4,0.9,2.3
	s-0.3,1.7-0.9,2.3c-0.6,0.6-1.4,1-2.3,1s-1.7-0.3-2.3-1c-0.6-0.6-0.9-1.4-0.9-2.3S12.4,4,13,3.3z M3.5,17.5c-0.5-0.5-0.7-1-0.7-1.6
	c0-0.6,0.2-1.2,0.7-1.6s1-0.7,1.6-0.7s1.2,0.2,1.6,0.7s0.7,1,0.7,1.6c0,0.6-0.2,1.2-0.7,1.6s-1,0.7-1.6,0.7S3.9,18,3.5,17.5z
	 M9.4,24.4c-0.4,0.4-0.8,0.5-1.3,0.5c-0.5,0-1-0.2-1.3-0.5s-0.5-0.8-0.5-1.3c0-0.5,0.2-1,0.5-1.3s0.8-0.5,1.3-0.5
	c0.5,0,1,0.2,1.3,0.5c0.4,0.4,0.5,0.8,0.5,1.3C10,23.6,9.8,24,9.4,24.4z M10.1,10.6c-0.5,0.5-1.2,0.8-2,0.8s-1.4-0.3-2-0.8
	s-0.8-1.2-0.8-2s0.3-1.4,0.8-2c0.5-0.5,1.2-0.8,2-0.8s1.4,0.3,2,0.8c0.5,0.5,0.8,1.2,0.8,2S10.6,10.1,10.1,10.6z M11.1,17.5
	C11,17.4,11,17.4,11,17.2v-2.4c0-0.1,0-0.2,0.1-0.3s0.2-0.1,0.3-0.1h2.8v-1.8c0-0.1,0-0.2,0.1-0.3c0.1-0.1,0.2-0.1,0.3-0.1
	c0.1,0,0.2,0,0.3,0.1l3.3,3.3c0.1,0.1,0.1,0.2,0.1,0.3s0,0.2-0.1,0.3l-3.3,3.3c-0.1,0.1-0.2,0.1-0.3,0.1c-0.1,0-0.2,0-0.3-0.1
	s-0.1-0.2-0.1-0.3v-1.8h-2.8C11.3,17.6,11.2,17.6,11.1,17.5z M16.6,27.4c-0.4,0.4-0.8,0.5-1.3,0.5c-0.5,0-1-0.2-1.3-0.5
	c-0.4-0.4-0.5-0.8-0.5-1.3c0-0.5,0.2-1,0.5-1.3c0.4-0.4,0.8-0.5,1.3-0.5c0.5,0,1,0.2,1.3,0.5c0.4,0.4,0.5,0.8,0.5,1.3
	C17.2,26.6,17,27,16.6,27.4z M20.4,18.2c0,0.5-0.2,0.9-0.5,1.2c-0.3,0.3-0.8,0.5-1.2,0.5h-2c-0.1,0-0.1,0-0.1-0.1s-0.1-0.1-0.1-0.1
	c0,0,0-0.1,0-0.1s0-0.1,0-0.2c0,0,0-0.1,0-0.1c0-0.1,0-0.1,0.1-0.1c0,0,0.1,0,0.1,0h2c0.3,0,0.5-0.1,0.7-0.3
	c0.2-0.2,0.3-0.4,0.3-0.7v-4.3c0-0.3-0.1-0.5-0.3-0.7c-0.2-0.2-0.4-0.3-0.7-0.3h-1.8h-0.1h-0.1c0,0,0,0-0.1,0c0,0-0.1,0-0.1,0
	s0,0,0,0c0,0,0,0,0-0.1s0-0.1,0-0.1c0,0,0-0.1,0-0.1s0-0.1,0-0.2c0,0,0-0.1,0-0.1c0-0.1,0-0.1,0.1-0.1s0.1,0,0.1,0h2
	c0.5,0,0.9,0.2,1.2,0.5c0.3,0.3,0.5,0.8,0.5,1.2V18.2z M23.9,24.4c-0.4,0.4-0.8,0.5-1.3,0.5c-0.5,0-1-0.2-1.3-0.5
	c-0.4-0.4-0.5-0.8-0.5-1.3c0-0.5,0.2-1,0.5-1.3c0.4-0.4,0.8-0.5,1.3-0.5c0.5,0,1,0.2,1.3,0.5c0.4,0.4,0.5,0.8,0.5,1.3
	C24.4,23.6,24.2,24,23.9,24.4z M25.5,17.7c-0.5,0-1-0.2-1.3-0.5s-0.5-0.8-0.5-1.3c0-0.5,0.2-1,0.5-1.3c0.4-0.4,0.8-0.5,1.3-0.5
	c0.5,0,1,0.2,1.3,0.5c0.4,0.4,0.5,0.8,0.5,1.3c0,0.5-0.2,1-0.5,1.3C26.5,17.5,26.1,17.7,25.5,17.7z"/>
</svg>
