<?xml version="1.0" encoding="utf-8"?>
<!-- Generator: Adobe Illustrator 20.1.0, SVG Export Plug-In . SVG Version: 6.00 Build 0)  -->
<svg version="1.1" xmlns="http://www.w3.org/2000/svg" xmlns:xlink="http://www.w3.org/1999/xlink" x="0px" y="0px"
	 viewBox="0 0 30 30" style="enable-background:new 0 0 30 30;" xml:space="preserve">
<title>wait-enter</title>
<desc>Created with Sketch.</desc>
<path d="M15,0C6.7,0,0,6.7,0,15c0,8.3,6.7,15,15,15c8.3,0,15-6.7,15-15C30,6.7,23.3,0,15,0z M21.2,7.3C21.6,7,22,6.8,22.6,6.8
	c0.5,0,1,0.2,1.3,0.5c0.4,0.4,0.5,0.8,0.5,1.3c0,0.5-0.2,1-0.5,1.3c-0.4,0.4-0.8,0.5-1.3,0.5c-0.5,0-1-0.2-1.3-0.5
	c-0.4-0.4-0.5-0.8-0.5-1.3C20.7,8.1,20.9,7.7,21.2,7.3z M13,3.3c0.6-0.6,1.4-0.9,2.3-0.9s1.7,0.3,2.3,0.9c0.6,0.6,1,1.4,0.9,2.3
	s-0.3,1.7-0.9,2.3c-0.6,0.6-1.4,1-2.3,1s-1.7-0.3-2.3-1c-0.6-0.6-0.9-1.4-0.9-2.3S12.4,4,13,3.3z M3.5,17.5c-0.5-0.5-0.7-1-0.7-1.6
	c0-0.6,0.2-1.2,0.7-1.6s1-0.7,1.6-0.7s1.2,0.2,1.6,0.7s0.7,1,0.7,1.6c0,0.6-0.2,1.2-0.7,1.6s-1,0.7-1.6,0.7S3.9,18,3.5,17.5z
	 M9.4,24.4c-0.4,0.4-0.8,0.5-1.3,0.5c-0.5,0-1-0.2-1.3-0.5s-0.5-0.8-0.5-1.3c0-0.5,0.2-1,0.5-1.3s0.8-0.5,1.3-0.5
	c0.5,0,1,0.2,1.3,0.5c0.4,0.4,0.5,0.8,0.5,1.3C10,23.6,9.8,24,9.4,24.4z M8.1,11.4c-0.8,0-1.4-0.3-2-0.8s-0.8-1.2-0.8-2
	s0.3-1.4,0.8-2c0.5-0.5,1.2-0.8,2-0.8s1.4,0.3,2,0.8c0.5,0.5,0.8,1.2,0.8,2s-0.3,1.4-0.8,2C9.5,11.2,8.9,11.4,8.1,11.4z M16.6,27.4
	c-0.4,0.4-0.8,0.5-1.3,0.5c-0.5,0-1-0.2-1.3-0.5c-0.4-0.4-0.5-0.8-0.5-1.3c0-0.5,0.2-1,0.5-1.3c0.4-0.4,0.8-0.5,1.3-0.5
	c0.5,0,1,0.2,1.3,0.5c0.4,0.4,0.5,0.8,0.5,1.3C17.2,26.6,17,27,16.6,27.4z M19.5,16.8c0,0.1,0,0.1-0.1,0.1S19.3,17,19.3,17H14v1.2
	c0,0.2-0.1,0.3-0.2,0.4s-0.3,0.1-0.4-0.1l-2.4-2c-0.1-0.1-0.1-0.2-0.1-0.3c0-0.1,0-0.2,0.1-0.3l2.4-2c0.1-0.1,0.3-0.1,0.4-0.1
	c0.2,0.1,0.2,0.2,0.2,0.4v1.2h3.9v-2c0-0.1,0-0.1,0.1-0.2l1.2-1c0.1-0.1,0.1-0.1,0.2,0c0.1,0,0.1,0.1,0.1,0.2V16.8z M23.9,24.4
	c-0.4,0.4-0.8,0.5-1.3,0.5c-0.5,0-1-0.2-1.3-0.5c-0.4-0.4-0.5-0.8-0.5-1.3c0-0.5,0.2-1,0.5-1.3c0.4-0.4,0.8-0.5,1.3-0.5
	c0.5,0,1,0.2,1.3,0.5c0.4,0.4,0.5,0.8,0.5,1.3C24.4,23.6,24.2,24,23.9,24.4z M25.5,17.7c-0.5,0-1-0.2-1.3-0.5s-0.5-0.8-0.5-1.3
	c0-0.5,0.2-1,0.5-1.3c0.4-0.4,0.8-0.5,1.3-0.5c0.5,0,1,0.2,1.3,0.5c0.4,0.4,0.5,0.8,0.5,1.3c0,0.5-0.2,1-0.5,1.3
	C26.5,17.5,26.1,17.7,25.5,17.7z"/>
</svg>
