<svg xmlns="http://www.w3.org/2000/svg" width="135" height="135" viewBox="-0.7 -0.7 135 135"><path d="M66.8 134.3c-37.2 0-67.5-30.3-67.5-67.5 0-37.2 30.3-67.5 67.5-67.5 37.2 0 67.5 30.3 67.5 67.5C134.3 104.1 104.1 134.3 66.8 134.3zM66.8 1.3c-36.1 0-65.5 29.4-65.5 65.5s29.4 65.5 65.5 65.5 65.5-29.4 65.5-65.5S103 1.3 66.8 1.3z"/><path d="M37.8 65.8h58c0.6 0 1 0.4 1 1l0 0c0 0.6-0.4 1-1 1h-58c-0.6 0-1-0.4-1-1l0 0C36.8 66.3 37.3 65.8 37.8 65.8z"/><path d="M66.8 36.8L66.8 36.8c0.6 0 1 0.4 1 1v58c0 0.6-0.4 1-1 1l0 0c-0.6 0-1-0.4-1-1v-58C65.8 37.3 66.3 36.8 66.8 36.8z"/></svg>
