<svg xmlns="http://www.w3.org/2000/svg" width="48" height="48" viewBox="0 0 48 48"><path d="M24.2 15.7c-2.4 0-4.2-1.1-4.2-2.4 0-1.4 1.8-2.4 4.2-2.4s4.2 1.1 4.2 2.4S26.6 15.7 24.2 15.7zM24.2 12.3c-1.7 0-2.7 0.7-2.7 0.9s1 0.9 2.7 0.9c1.7 0 2.7-0.7 2.7-0.9C26.9 13 26 12.3 24.2 12.3z"/><path d="M24.2 20.3c-2.4 0-4.2-1.1-4.2-2.4v-4.7c0-0.4 0.3-0.7 0.8-0.7s0.8 0.3 0.8 0.8v4.7c0 0.3 1 0.9 2.7 0.9 1.8 0 2.7-0.7 2.7-0.9v-4.7c0-0.4 0.3-0.7 0.8-0.7s0.8 0.3 0.8 0.8v4.7C28.4 19.3 26.6 20.3 24.2 20.3z"/><path d="M33.9 10.3c-2.4 0-4.2-1-4.2-2.4 0-1.4 1.8-2.4 4.2-2.4 2.4 0 4.2 1.1 4.2 2.4C38.1 9.3 36.3 10.3 33.9 10.3zM33.9 6.9c-1.7 0-2.7 0.7-2.7 0.9 0 0.3 1 0.9 2.7 0.9s2.7-0.7 2.7-0.9C36.6 7.6 35.6 6.9 33.9 6.9z"/><path d="M33.9 15c-2.4 0-4.2-1.1-4.2-2.4V7.9c0-0.4 0.3-0.7 0.8-0.7s0.8 0.3 0.8 0.8v4.7c0 0.3 1 0.9 2.7 0.9 1.8 0 2.7-0.7 2.7-0.9V7.9c0-0.4 0.3-0.7 0.8-0.7s0.8 0.3 0.8 0.8v4.7C38.1 13.9 36.3 15 33.9 15z"/><path d="M14.4 10.3c-2.4 0-4.2-1-4.2-2.4 0-1.4 1.8-2.4 4.2-2.4s4.2 1.1 4.2 2.4C18.6 9.3 16.8 10.3 14.4 10.3zM14.4 6.9c-1.8 0-2.7 0.7-2.7 0.9 0 0.3 1 0.9 2.7 0.9 1.7 0 2.7-0.7 2.7-0.9C17.1 7.6 16.1 6.9 14.4 6.9z"/><path d="M14.4 15c-2.4 0-4.2-1.1-4.2-2.4V7.9c0-0.4 0.3-0.7 0.8-0.7 0.4 0 0.8 0.3 0.8 0.8v4.7c0 0.3 1 0.9 2.7 0.9 1.8 0 2.7-0.7 2.7-0.9V7.9c0-0.4 0.3-0.7 0.8-0.7s0.8 0.3 0.8 0.8v4.7C18.6 13.9 16.8 15 14.4 15z"/><path d="M24.3 4.9c-2.4 0-4.2-1-4.2-2.4C20 1.1 21.8 0 24.3 0c2.4 0 4.2 1.1 4.2 2.4C28.5 3.8 26.7 4.9 24.3 4.9zM24.3 1.5c-1.7 0-2.7 0.7-2.7 0.9 0 0.3 1 0.9 2.7 0.9 1.7 0 2.7-0.7 2.7-0.9C27 2.2 26 1.5 24.3 1.5z"/><path d="M24.3 9.5c-2.4 0-4.2-1.1-4.2-2.4V2.4c0-0.4 0.3-0.7 0.8-0.7s0.8 0.3 0.8 0.8v4.7c0 0.3 1 0.9 2.7 0.9 1.7 0 2.7-0.7 2.7-0.9V2.4c0-0.4 0.3-0.7 0.8-0.7s0.8 0.3 0.8 0.8v4.7C28.5 8.5 26.7 9.5 24.3 9.5z"/><path d="M23.9 48c-0.2 0-0.3 0-0.5-0.1L4.4 37.2c-0.3-0.2-0.5-0.5-0.5-0.9V13.3c0-0.4 0.2-0.7 0.5-0.9 0.3-0.2 0.7-0.2 1 0l19 10.8c0.3 0.2 0.5 0.5 0.5 0.9l0 22.9c0 0.4-0.2 0.7-0.5 0.9C24.3 48 24.1 48 23.9 48zM5.9 35.7l17 9.6 0-20.6 -17-9.7V35.7z"/><path d="M23.9 48c-0.2 0-0.3 0-0.5-0.1 -0.3-0.2-0.5-0.5-0.5-0.9V24.1c0-0.4 0.2-0.7 0.5-0.9l19.2-10.8c0.3-0.2 0.7-0.2 1 0 0.3 0.2 0.5 0.5 0.5 0.9l0 22.9c0 0.4-0.2 0.7-0.5 0.9L24.4 47.9C24.2 48 24.1 48 23.9 48zM24.9 24.7v20.6l17.2-9.7 0-20.6L24.9 24.7z"/><path d="M42.9 14.2c-0.2 0-0.3 0-0.5-0.1l-5.2-2.8c-0.5-0.3-0.7-0.9-0.4-1.4 0.3-0.5 0.9-0.7 1.4-0.4l5.2 2.8c0.5 0.3 0.7 0.9 0.4 1.4C43.6 14 43.3 14.2 42.9 14.2z"/><path d="M30.6 7.7c-0.2 0-0.3 0-0.5-0.1l-2.5-1.3c-0.5-0.3-0.7-0.9-0.4-1.3 0.3-0.5 0.9-0.7 1.3-0.4l2.5 1.3c0.5 0.3 0.7 0.9 0.4 1.3C31.3 7.5 31 7.7 30.6 7.7z"/><path d="M4.9 14.2c-0.4 0-0.7-0.2-0.9-0.5 -0.3-0.5-0.1-1.1 0.4-1.4l5.2-2.8c0.5-0.3 1.1-0.1 1.4 0.4 0.3 0.5 0.1 1.1-0.4 1.4l-5.2 2.8C5.3 14.2 5.1 14.2 4.9 14.2z"/><path d="M17.6 7.5c-0.4 0-0.7-0.2-0.9-0.5 -0.3-0.5-0.1-1.1 0.4-1.3l2.7-1.4c0.5-0.3 1.1-0.1 1.3 0.4 0.3 0.5 0.1 1.1-0.4 1.3l-2.7 1.4C17.9 7.5 17.8 7.5 17.6 7.5z"/></svg>