<?xml version="1.0" encoding="utf-8"?>
<!-- Generator: Adobe Illustrator 20.1.0, SVG Export Plug-In . SVG Version: 6.00 Build 0)  -->
<svg version="1.1" xmlns="http://www.w3.org/2000/svg" xmlns:xlink="http://www.w3.org/1999/xlink" x="0px" y="0px"
	 viewBox="0 0 18 17" style="enable-background:new 0 0 18 17;" xml:space="preserve">
<title>audio</title>
<desc>Created with Sketch.</desc>
<path d="M8.3,2.7v11.8c0,0.2-0.1,0.3-0.2,0.5c-0.1,0.1-0.3,0.2-0.5,0.2S7.3,15.1,7.1,15l-3.6-3.6H0.7c-0.2,0-0.3-0.1-0.5-0.2
	C0.1,11,0,10.9,0,10.7V6.5C0,6.3,0.1,6.2,0.2,6c0.1-0.1,0.3-0.2,0.5-0.2h2.8l3.6-3.6C7.3,2.1,7.4,2,7.6,2S8,2.1,8.1,2.2
	C8.2,2.4,8.3,2.5,8.3,2.7L8.3,2.7z M12.5,8.6c0,0.5-0.2,1.1-0.5,1.5c-0.3,0.5-0.7,0.8-1.2,1c-0.1,0-0.2,0.1-0.3,0.1
	c-0.2,0-0.3-0.1-0.5-0.2c-0.1-0.1-0.2-0.3-0.2-0.5c0-0.2,0-0.3,0.1-0.4c0.1-0.1,0.2-0.2,0.3-0.3c0.1-0.1,0.2-0.2,0.4-0.2
	c0.1-0.1,0.2-0.2,0.3-0.4c0.1-0.2,0.1-0.4,0.1-0.6s0-0.5-0.1-0.6c-0.1-0.2-0.2-0.3-0.3-0.4c-0.1-0.1-0.2-0.2-0.4-0.2
	C10.1,7.3,10,7.2,10,7.1C9.9,7,9.8,6.9,9.8,6.7c0-0.2,0.1-0.4,0.2-0.5C10.2,6.1,10.3,6,10.5,6c0.1,0,0.2,0,0.3,0.1
	c0.5,0.2,0.9,0.5,1.2,1S12.5,8.1,12.5,8.6L12.5,8.6z M15.2,8.6c0,1.1-0.3,2.1-0.9,3.1c-0.6,0.9-1.4,1.6-2.4,2
	c-0.1,0-0.2,0.1-0.3,0.1c-0.2,0-0.4-0.1-0.5-0.2s-0.2-0.3-0.2-0.5c0-0.3,0.1-0.5,0.4-0.6c0.4-0.2,0.7-0.4,0.8-0.5
	c0.5-0.4,1-0.9,1.2-1.5c0.3-0.6,0.4-1.2,0.4-1.9c0-0.7-0.1-1.3-0.4-1.9c-0.3-0.6-0.7-1.1-1.2-1.5C12,5.2,11.7,5,11.3,4.8
	c-0.3-0.1-0.4-0.4-0.4-0.6c0-0.2,0.1-0.3,0.2-0.5s0.3-0.2,0.5-0.2c0.1,0,0.2,0,0.3,0.1c1,0.4,1.8,1.1,2.4,2
	C14.9,6.5,15.2,7.5,15.2,8.6L15.2,8.6z M18,8.6c0,1.7-0.5,3.2-1.4,4.6c-0.9,1.4-2.1,2.4-3.7,3.1c-0.1,0-0.2,0.1-0.3,0.1
	c-0.2,0-0.3-0.1-0.5-0.2C12.1,16,12,15.8,12,15.6c0-0.3,0.1-0.5,0.4-0.6c0.1,0,0.1-0.1,0.2-0.1c0.1,0,0.2-0.1,0.2-0.1
	c0.3-0.2,0.6-0.4,0.9-0.6c0.9-0.7,1.6-1.5,2.1-2.5c0.5-1,0.7-2,0.7-3.1c0-1.1-0.2-2.1-0.7-3.1c-0.5-1-1.2-1.8-2.1-2.5
	c-0.3-0.2-0.6-0.4-0.9-0.6c-0.1,0-0.1-0.1-0.2-0.1c-0.1,0-0.2-0.1-0.2-0.1C12.1,2.1,12,1.9,12,1.6c0-0.2,0.1-0.3,0.2-0.5
	c0.1-0.1,0.3-0.2,0.5-0.2c0.1,0,0.2,0,0.3,0.1c1.5,0.7,2.7,1.7,3.7,3.1C17.5,5.4,18,7,18,8.6L18,8.6z"/>
</svg>
