<?xml version="1.0" encoding="UTF-8"?>
<svg width="28px" height="28px" viewBox="0 0 28 28" version="1.1" xmlns="http://www.w3.org/2000/svg" xmlns:xlink="http://www.w3.org/1999/xlink">
    <!-- Generator: Sketch 40.1 (33804) - http://www.bohemiancoding.com/sketch -->
    <title>cancel</title>
    <desc>Created with Sketch.</desc>
    <defs></defs>
    <g id="Symbols" stroke="none" stroke-width="1" fill="none" fill-rule="evenodd">
        <g id="標誌" transform="translate(-441.000000, -401.000000)">
            <g id="cancel" transform="translate(441.000000, 401.000000)">
                <circle id="Oval-4" fill="#FFFFFF" cx="14" cy="14" r="14"></circle>
                <path d="M20.9453125,18.1197917 C20.9453125,17.8038179 20.8298623,17.5303831 20.5989583,17.2994792 L17.2994792,14 L20.5989583,10.7005208 C20.8298623,10.4696169 20.9453125,10.1961821 20.9453125,9.88020833 C20.9453125,9.55208169 20.8298623,9.2725706 20.5989583,9.04166667 L18.9583333,7.40104167 C18.7274294,7.17013773 18.4479183,7.0546875 18.1197917,7.0546875 C17.8038179,7.0546875 17.5303831,7.17013773 17.2994792,7.40104167 L14,10.7005208 L10.7005208,7.40104167 C10.4696169,7.17013773 10.1961821,7.0546875 9.88020833,7.0546875 C9.55208169,7.0546875 9.2725706,7.17013773 9.04166667,7.40104167 L7.40104167,9.04166667 C7.17013773,9.2725706 7.0546875,9.55208169 7.0546875,9.88020833 C7.0546875,10.1961821 7.17013773,10.4696169 7.40104167,10.7005208 L10.7005208,14 L7.40104167,17.2994792 C7.17013773,17.5303831 7.0546875,17.8038179 7.0546875,18.1197917 C7.0546875,18.4479183 7.17013773,18.7274294 7.40104167,18.9583333 L9.04166667,20.5989583 C9.2725706,20.8298623 9.55208169,20.9453125 9.88020833,20.9453125 C10.1961821,20.9453125 10.4696169,20.8298623 10.7005208,20.5989583 L14,17.2994792 L17.2994792,20.5989583 C17.5303831,20.8298623 17.8038179,20.9453125 18.1197917,20.9453125 C18.4479183,20.9453125 18.7274294,20.8298623 18.9583333,20.5989583 L20.5989583,18.9583333 C20.8298623,18.7274294 20.9453125,18.4479183 20.9453125,18.1197917 L20.9453125,18.1197917 Z M28,14 C28,16.5399433 27.3741382,18.8823677 26.1223958,21.0273438 C24.8706535,23.1723198 23.1723198,24.8706535 21.0273437,26.1223958 C18.8823677,27.3741382 16.5399433,28 14,28 C11.4600567,28 9.11763225,27.3741382 6.97265625,26.1223958 C4.82768025,24.8706535 3.12934654,23.1723198 1.87760417,21.0273438 C0.625861797,18.8823677 0,16.5399433 0,14 C0,11.4600567 0.625861797,9.11763225 1.87760417,6.97265625 C3.12934654,4.82768025 4.82768025,3.12934654 6.97265625,1.87760417 C9.11763225,0.625861797 11.4600567,0 14,0 C16.5399433,0 18.8823677,0.625861797 21.0273437,1.87760417 C23.1723198,3.12934654 24.8706535,4.82768025 26.1223958,6.97265625 C27.3741382,9.11763225 28,11.4600567 28,14 L28,14 Z" id="" fill="#D8D8D8"></path>
            </g>
        </g>
    </g>
</svg>