<?xml version="1.0" encoding="UTF-8"?>
<svg width="28px" height="28px" viewBox="0 0 28 28" version="1.1" xmlns="http://www.w3.org/2000/svg" xmlns:xlink="http://www.w3.org/1999/xlink">
    <!-- Generator: Sketch 40.1 (33804) - http://www.bohemiancoding.com/sketch -->
    <title>check</title>
    <desc>Created with Sketch.</desc>
    <defs></defs>
    <g id="Symbols" stroke="none" stroke-width="1" fill="none" fill-rule="evenodd">
        <g id="標誌" transform="translate(-481.000000, -401.000000)">
            <g id="check" transform="translate(481.000000, 401.000000)">
                <circle id="Oval-4" fill="#FFFFFF" cx="14" cy="14" r="14"></circle>
                <path d="M23.40625,11.046875 C23.40625,10.7065955 23.2968761,10.4270844 23.078125,10.2083333 L21.4192708,8.56770833 C21.1883669,8.3368044 20.9149321,8.22135417 20.5989583,8.22135417 C20.2829845,8.22135417 20.0095498,8.3368044 19.7786458,8.56770833 L12.3411458,15.9869792 L8.22135417,11.8671875 C7.99045023,11.6362836 7.71701547,11.5208333 7.40104167,11.5208333 C7.08506786,11.5208333 6.8116331,11.6362836 6.58072917,11.8671875 L4.921875,13.5078125 C4.70312391,13.7265636 4.59375,14.0060747 4.59375,14.3463542 C4.59375,14.6744808 4.70312391,14.9479156 4.921875,15.1666667 L11.5208333,21.765625 C11.7517373,21.9965289 12.025172,22.1119792 12.3411458,22.1119792 C12.6692725,22.1119792 12.9487836,21.9965289 13.1796875,21.765625 L23.078125,11.8671875 C23.2968761,11.6484364 23.40625,11.3750016 23.40625,11.046875 L23.40625,11.046875 Z M28,14 C28,16.5399433 27.3741382,18.8823677 26.1223958,21.0273438 C24.8706535,23.1723198 23.1723198,24.8706535 21.0273437,26.1223958 C18.8823677,27.3741382 16.5399433,28 14,28 C11.4600567,28 9.11763225,27.3741382 6.97265625,26.1223958 C4.82768025,24.8706535 3.12934654,23.1723198 1.87760417,21.0273438 C0.625861797,18.8823677 0,16.5399433 0,14 C0,11.4600567 0.625861797,9.11763225 1.87760417,6.97265625 C3.12934654,4.82768025 4.82768025,3.12934654 6.97265625,1.87760417 C9.11763225,0.625861797 11.4600567,0 14,0 C16.5399433,0 18.8823677,0.625861797 21.0273437,1.87760417 C23.1723198,3.12934654 24.8706535,4.82768025 26.1223958,6.97265625 C27.3741382,9.11763225 28,11.4600567 28,14 L28,14 Z" id="" fill="#42BD4C"></path>
            </g>
        </g>
    </g>
</svg>