<?xml version="1.0" encoding="utf-8"?>
<!-- Generator: Adobe Illustrator 20.1.0, SVG Export Plug-In . SVG Version: 6.00 Build 0)  -->
<svg version="1.1" xmlns="http://www.w3.org/2000/svg" xmlns:xlink="http://www.w3.org/1999/xlink" x="0px" y="0px"
	 viewBox="0 0 18 18" style="enable-background:new 0 0 18 18;" xml:space="preserve">
<title>edit</title>
<desc>Created with Sketch.</desc>
<path d="M4.3,16.5l1.1-1.1l-2.8-2.8l-1.1,1.1V15H3v1.5H4.3z M10.5,5.5c0-0.2-0.1-0.3-0.3-0.3c-0.1,0-0.1,0-0.2,0.1l-6.4,6.4
	c-0.1,0.1-0.1,0.1-0.1,0.2c0,0.2,0.1,0.3,0.3,0.3c0.1,0,0.1,0,0.2-0.1l6.4-6.4C10.5,5.6,10.5,5.5,10.5,5.5L10.5,5.5z M9.9,3.2
	l4.9,4.9L4.9,18H0v-4.9L9.9,3.2z M18,4.3c0,0.4-0.1,0.8-0.4,1.1l-2,2l-4.9-4.9l2-2C12.9,0.2,13.3,0,13.7,0c0.4,0,0.8,0.2,1.1,0.5
	l2.8,2.8C17.9,3.5,18,3.9,18,4.3L18,4.3z"/>
</svg>
