<svg xmlns="http://www.w3.org/2000/svg" viewBox="0 0 436.12 321.78"><title>open-folder-outline</title><path d="M81.7,303.4c4.88-13.87,11.37-27,25-33.85,7.86-3.93,17-6.85,25.74-7.18,24.65-.95,49.38-.93,74-.17,29.48.91,49.45,21.67,50.63,51.15.08,2,.19,3.92.34,7h9.21c36.89,0,73.79-.06,110.68,0,33.9.08,55.08,21.37,55.22,55.35,0,10.43,0,20.85,0,32.17,13,0,25.15-.46,37.25.16,8.1.42,16.54,1.19,24.11,3.85,20.45,7.21,29.3,28.67,20.45,48.49a73.6,73.6,0,0,1-10,15.69q-30.9,38.5-62.21,76.67C426,572.59,405,583.22,379.36,583.28q-121.75.29-243.5,0c-27-.06-44.16-13-52.54-38.56a16,16,0,0,0-1.62-2.84Q81.7,422.64,81.7,303.4ZM258,554.09c39.74,0,79.49-.08,119.23,0,17.69.05,31.83-6.91,42.87-20.54q30.82-38,61.63-76.09a42.71,42.71,0,0,0,5.27-7.7c3-6.17.78-10.61-5.91-11.87a41.6,41.6,0,0,0-7.64-.51q-120.94,0-241.87,0-26,0-42.23,20.07-31.15,38.32-62.13,76.78a44.68,44.68,0,0,0-4,5.52c-4.65,8-2.08,13.19,7,14.1,3.1.31,6.24.22,9.36.23Q198.83,554.1,258,554.09Zm-147.2-46.83c3.38-3.78,5.27-5.74,7-7.84,15.76-19.35,31.66-38.59,47.17-58.14,18-22.68,41.23-33.58,70.14-33.45,52.48.23,105,.06,157.44.06h10.91c0-10.58,0-20.14,0-29.71,0-21.17-7.52-28.68-28.67-28.69-37.16,0-74.34-.72-111.48.23-28.05.71-36.81-7.51-35.57-34,.77-16.46-8.17-24.36-24.72-24.49q-33.61-.26-67.23,0c-16.81.14-24.81,8.25-24.92,25.39-.18,28.65-.05,57.3-.05,86C110.82,436.6,110.82,470.63,110.82,507.26Z" transform="translate(-81.7 -261.64)"/></svg>