<svg xmlns="http://www.w3.org/2000/svg" width="96" height="96" viewBox="0 0 96 96">
    <g fill="none" fill-rule="evenodd">
        <path stroke="#0097E8" stroke-linejoin="round" d="M40.934 63.429L16.51 51.315a1.817 1.817 0 0 1-.82-2.434l5.596-8.543a1.816 1.816 0 0 1 2.432-.82l23.518 11.207c.899.445 1.159 1.218.714 2.115l-4.582 9.77a1.816 1.816 0 0 1-2.434.819zM55.657 63.429l24.425-12.114a1.817 1.817 0 0 0 .82-2.434l-5.596-8.543a1.816 1.816 0 0 0-2.433-.82L49.356 50.725c-.898.445-1.085 1.544-.638 2.442l4.505 9.443a1.816 1.816 0 0 0 2.434.819z"/>
        <path stroke="#0097E8" stroke-linejoin="round" d="M75.232 54v13.665-.782 2.88s.075 1.21-1.362 1.89c-1.438.682-21.487 11.955-21.487 11.955-3.723 1.976-7.007-.015-7.007-.015S24.8 72.335 23.363 71.653c-1.438-.68-1.362-1.89-1.362-1.89v-2.88.782V54"/>
        <path stroke="#0097E8" stroke-linecap="round" stroke-linejoin="round" d="M48.347 80.834V61.901M74.428 39.475l-8.018-2.503M22.254 39.475l8.018-2.503"/>
        <path stroke="#0097E8" stroke-linejoin="round" d="M46.198 50.23s2.286.91 4.482-.137M64.837 27.053c0 9.142-7.411 16.553-16.553 16.553-9.141 0-16.552-7.411-16.552-16.553 0-9.142 7.41-16.553 16.552-16.553s16.553 7.41 16.553 16.553z"/>
        <path stroke="#0097E8" stroke-linejoin="round" d="M61.417 27.053c0 7.253-5.88 13.133-13.133 13.133-7.253 0-13.133-5.88-13.133-13.133 0-7.253 5.88-13.133 13.133-13.133 7.253 0 13.133 5.88 13.133 13.133z"/>
        <path fill="#0097E8" d="M44.788 30.862l.352-.496c.257-.352.56-.384.929-.144.481.336 1.297.8 2.289.8.864 0 1.664-.448 1.664-1.376 0-1.92-5.41-1.729-5.41-5.17 0-1.649 1.233-2.929 3.01-3.218v-.848c0-.432.191-.656.641-.656h.111c.416 0 .625.192.625.56v.912c1.103.08 1.889.496 2.32.801.352.208.385.544.192.897l-.272.543c-.209.384-.512.432-.912.208-.416-.255-1.105-.592-1.922-.592-.959 0-1.728.56-1.728 1.361 0 1.904 5.41 1.568 5.41 5.153 0 1.633-1.137 3.026-3.088 3.283v.8c0 .432-.209.671-.625.671h-.111c-.45 0-.641-.208-.641-.559v-.912a5.469 5.469 0 0 1-2.721-1.089c-.338-.24-.353-.592-.113-.929"/>
    </g>
</svg>
