<svg xmlns="http://www.w3.org/2000/svg" viewBox="0 0 24 24">
    <g fill-rule="evenodd">
        <path d="M12.743 10.413a1.157 1.157 0 0 1 0-1.616l2.892-2.94a1.114 1.114 0 0 1 1.592 0l1.37 1.392a1.157 1.157 0 0 1 0 1.617l-2.893 2.939a1.113 1.113 0 0 1-1.591 0l-.086-.087-.53.538.085.087a1.857 1.857 0 0 0 2.652 0l2.893-2.938a1.93 1.93 0 0 0 0-2.695l-1.37-1.392a1.857 1.857 0 0 0-2.652 0l-2.893 2.94a1.928 1.928 0 0 0 0 2.693l.089.09.53-.539-.088-.09zM11.932 14.019a1.157 1.157 0 0 1 0 1.617L9.04 18.574a1.116 1.116 0 0 1-1.592 0l-1.37-1.392a1.157 1.157 0 0 1 0-1.616l2.894-2.938a1.113 1.113 0 0 1 1.59 0l.089.09.53-.539-.088-.09a1.856 1.856 0 0 0-2.652 0L5.55 15.027a1.928 1.928 0 0 0 0 2.694l1.369 1.392c.731.742 1.92.742 2.652 0l2.892-2.939a1.927 1.927 0 0 0 0-2.694l-.085-.086-.53.539.085.086z"/>
        <path d="M9.512 15.086a.387.387 0 0 1 0-.539l5.296-5.38a.372.372 0 0 1 .53 0 .387.387 0 0 1 0 .54l-5.295 5.379a.373.373 0 0 1-.531 0"/>
    </g>
</svg>
