<?xml version="1.0" encoding="utf-8"?>
<!-- Generator: Adobe Illustrator 20.1.0, SVG Export Plug-In . SVG Version: 6.00 Build 0)  -->
<svg version="1.1" id="Layer_1" xmlns="http://www.w3.org/2000/svg" xmlns:xlink="http://www.w3.org/1999/xlink" x="0px" y="0px"
	 viewBox="0 0 12 20" style="enable-background:new 0 0 12 20;" xml:space="preserve">
<title>move</title>
<desc>Created with Sketch.</desc>
<path d="M1,2c0.6,0,1-0.4,1-1S1.6,0,1,0S0,0.4,0,1S0.4,2,1,2z M6,2c0.6,0,1-0.4,1-1S6.6,0,6,0S5,0.4,5,1S5.4,2,6,2z M11,2
	c0.6,0,1-0.4,1-1s-0.4-1-1-1s-1,0.4-1,1S10.4,2,11,2z M1,11c0.6,0,1-0.4,1-1c0-0.6-0.4-1-1-1s-1,0.4-1,1C0,10.6,0.4,11,1,11z M6,11
	c0.6,0,1-0.4,1-1c0-0.6-0.4-1-1-1s-1,0.4-1,1C5,10.6,5.4,11,6,11z M11,11c0.6,0,1-0.4,1-1c0-0.6-0.4-1-1-1s-1,0.4-1,1
	C10,10.6,10.4,11,11,11z M1,20c0.6,0,1-0.4,1-1s-0.4-1-1-1s-1,0.4-1,1S0.4,20,1,20z M6,20c0.6,0,1-0.4,1-1s-0.4-1-1-1s-1,0.4-1,1
	S5.4,20,6,20z M11,20c0.6,0,1-0.4,1-1s-0.4-1-1-1s-1,0.4-1,1S10.4,20,11,20z"/>
</svg>
