<?xml version="1.0" encoding="utf-8"?>
<!-- Generator: Adobe Illustrator 21.0.0, SVG Export Plug-In . SVG Version: 6.00 Build 0)  -->
<svg version="1.1" id="Layer_1" xmlns="http://www.w3.org/2000/svg" xmlns:xlink="http://www.w3.org/1999/xlink" x="0px" y="0px"
	 viewBox="0 0 81.8 30" style="enable-background:new 0 0 81.8 30;" xml:space="preserve">
<style type="text/css">
	.st0{fill:#E94F4F;}
	.st1{fill:#0097E8;}
	.st2{fill:#16A122;}
	.st3{fill:#353434;}
</style>
<circle id="Red" class="st0" cx="7" cy="7" r="7"/>
<circle id="Blue" class="st1" cx="23" cy="7" r="7"/>
<circle id="Green" class="st2" cx="7" cy="23" r="7"/>
<path id="Gray" class="st3" d="M23,16c-3.9,0-7,3.1-7,7s3.1,7,7,7s7-3.1,7-7S26.9,16,23,16L23,16z M23,28.8c-3.2,0-5.8-2.6-5.8-5.8
	s2.6-5.8,5.8-5.8s5.8,2.6,5.8,5.8l0,0C28.8,26.2,26.2,28.8,23,28.8L23,28.8L23,28.8z"/>
<path id="Play" class="st3" d="M20.7,26.2v-6.5c0-0.1,0.1-0.3,0.2-0.3H21l5.5,3.2c0.1,0.1,0.2,0.2,0.1,0.3L26.5,23L21,26.2
	C20.9,26.3,20.7,26.2,20.7,26.2C20.7,26.3,20.7,26.3,20.7,26.2z"/>
<g id="oice">
	<path class="st3" d="M40,16.3c-2,0-3.7,0.7-5,2s-2,2.9-2,4.9c0,1.9,0.7,3.5,2,4.9c1.3,1.3,3,2,5,2s3.7-0.7,5-2s2-2.9,2-4.9
		c0-1.9-0.7-3.5-2-4.9S42,16.3,40,16.3z M43,26.3c-0.8,0.8-1.8,1.2-3,1.2s-2.2-0.4-3-1.2c-0.8-0.8-1.2-1.9-1.2-3.1
		c0-1.3,0.4-2.3,1.2-3.1c0.8-0.8,1.8-1.2,3-1.2s2.2,0.4,3,1.2c0.8,0.8,1.2,1.9,1.2,3.1S43.8,25.5,43,26.3z"/>
	<path class="st3" d="M81.8,22.4c0-1.9-0.6-3.4-1.9-4.5s-2.8-1.6-4.6-1.6c-1.8,0-3.4,0.6-4.7,1.9c-1.3,1.2-2,2.9-2,5s0.7,3.8,2,5
		s2.9,1.9,4.8,1.9c2.3,0,4.2-0.7,5.6-2.2L79.3,26c-0.9,1.1-2.1,1.6-3.8,1.6c-1,0-2-0.3-2.8-0.9s-1.3-1.4-1.3-2.3h10.4L81.8,22.4z
		 M71.4,22.2c0-1.1,0.4-1.9,1.2-2.5c0.8-0.6,1.8-0.9,2.8-0.9s1.9,0.3,2.6,0.9s1,1.3,1,2.5H71.4z"/>
	<path class="st3" d="M65.7,25.7c-1.1,1.1-2.3,1.7-3.5,1.7s-2.3-0.4-3.1-1.3c-0.9-0.9-1.3-1.9-1.3-3.1s0.4-2.2,1.3-3
		c0.8-0.8,1.9-1.2,3-1.2c1.2,0,3,0.5,4.2,1.5l1-2c-1.4-1.4-3.1-2.1-5.1-2.1s-3.7,0.6-5.1,1.9c-1.4,1.3-2.1,2.9-2.1,5
		c0,2,0.7,3.7,2,4.9c1.3,1.3,2.9,1.9,4.8,1.9c2.1,0,4-0.8,5.6-2.5l-0.6-0.7L65.7,25.7z"/>
	<rect x="49.6" y="16.5" class="st3" width="2.8" height="13.3"/>
	<path class="st3" d="M51,14.4c1,0,1.8-0.8,1.8-1.8S52,10.8,51,10.8s-1.8,0.8-1.8,1.8c0,0.5,0.2,0.9,0.5,1.3
		C50.1,14.2,50.5,14.4,51,14.4z"/>
</g>
</svg>
