<?xml version="1.0" encoding="utf-8"?>
<!-- Generator: Adobe Illustrator 20.1.0, SVG Export Plug-In . SVG Version: 6.00 Build 0)  -->
<svg version="1.1" id="Layer_1" xmlns="http://www.w3.org/2000/svg" xmlns:xlink="http://www.w3.org/1999/xlink" x="0px" y="0px"
	 viewBox="0 0 70 70" style="enable-background:new 0 0 70 70;" xml:space="preserve">
<title>oice-logo-black</title>
<desc>Created with Sketch.</desc>
<circle cx="16" cy="54" r="16"/>
<circle cx="16" cy="16" r="16"/>
<circle cx="54" cy="16" r="16"/>
<path d="M54,38c-8.8,0-16,7.2-16,16s7.2,16,16,16s16-7.2,16-16S62.8,38,54,38z M54,68c-7.7,0-14-6.3-14-14s6.3-14,14-14
	s14,6.3,14,14S61.7,68,54,68z"/>
<path d="M62.9,53.3l-12.7-7.8c-0.6-0.3-1-0.1-1,0.6v15.6c0,0.7,0.5,0.9,1,0.6l12.7-7.8C63.4,54.2,63.4,53.6,62.9,53.3z"/>
</svg>
