<svg xmlns="http://www.w3.org/2000/svg" viewBox="0 0 19 19"><title>mine</title><path d="M9.5,19A9.5,9.5,0,1,0,0,9.5,9.5,9.5,0,0,0,9.5,19ZM14,12.66a1.59,1.59,0,0,1-.47,1.21,1.72,1.72,0,0,1-1.24.44H6.71a1.72,1.72,0,0,1-1.24-.44A1.59,1.59,0,0,1,5,12.66q0-.34,0-.66a6.52,6.52,0,0,1,.09-.7,5.42,5.42,0,0,1,.17-.69A3.29,3.29,0,0,1,5.56,10,2.25,2.25,0,0,1,6,9.47a1.67,1.67,0,0,1,.55-.34A1.92,1.92,0,0,1,7.21,9a.78.78,0,0,1,.27.14L8,9.44a3,3,0,0,0,.69.31,2.72,2.72,0,0,0,1.71,0A3,3,0,0,0,11,9.44l.48-.31A.78.78,0,0,1,11.79,9a1.92,1.92,0,0,1,.71.13,1.67,1.67,0,0,1,.55.34,2.25,2.25,0,0,1,.4.52,3.29,3.29,0,0,1,.27.62,5.42,5.42,0,0,1,.17.69A6.52,6.52,0,0,1,14,12Q14,12.32,14,12.66ZM12,6.5A2.5,2.5,0,0,1,9.5,9,2.5,2.5,0,0,1,7,6.5,2.5,2.5,0,0,1,9.5,4,2.5,2.5,0,0,1,12,6.5Z" transform="translate(0 0)"/></svg>