<svg xmlns="http://www.w3.org/2000/svg" width="96" height="96" viewBox="0 0 96 96">
    <g fill="none" fill-rule="evenodd" stroke="#FF5A5F">
        <path d="M41.333 21.037v-4.335c0-3.874 3.1-7.015 6.926-7.015 3.824 0 6.925 3.141 6.925 7.015v4.32c1.213.256 2.276.579 3.152.952v-5.399c0-5.564-4.495-10.075-10.04-10.075-5.545 0-10.04 4.511-10.04 10.075v5.399c.858-.366 1.894-.683 3.077-.937z"/>
        <path stroke-linecap="round" stroke-linejoin="round" d="M74.428 39.477l-9.64-3.01M22.191 39.477l9.64-3.01"/>
        <path d="M40.934 63.446L16.51 51.332a1.817 1.817 0 0 1-.82-2.434l5.596-8.543a1.816 1.816 0 0 1 2.432-.82l23.518 11.207c.899.445 1.159 1.218.714 2.115l-4.582 9.77a1.816 1.816 0 0 1-2.434.82zM55.657 63.446l24.425-12.114a1.817 1.817 0 0 0 .82-2.434l-5.596-8.543a1.816 1.816 0 0 0-2.433-.82L49.356 50.742c-.898.445-1.085 1.544-.638 2.442l4.505 9.443a1.816 1.816 0 0 0 2.434.82z"/>
        <path d="M74.919 54.08v13.665-.782 2.88s.075 1.21-1.362 1.89c-1.438.682-21.487 11.955-21.487 11.955-3.723 1.976-7.007-.015-7.007-.015S24.487 72.415 23.05 71.733c-1.438-.68-1.362-1.89-1.362-1.89v-2.88.782V54.08"/>
        <path stroke-linecap="round" stroke-linejoin="round" d="M48.347 80.852V61.918"/>
        <path d="M46.198 50.247s2.286.91 4.482-.137"/>
        <path stroke-linecap="round" stroke-linejoin="round" d="M48.296 36.544h-2.08a.604.604 0 0 1-.602-.602v-.04l.213-1.045.789-3.881a2.806 2.806 0 0 1-1.133-2.252 2.814 2.814 0 0 1 5.626 0c0 .923-.447 1.739-1.133 2.252l.789 3.88.214 1.047v.039a.605.605 0 0 1-.603.602h-2.08z"/>
        <path d="M48.296 20.358c-6.974 0-12.627 1.83-12.627 4.086v14.1c0 2.256 5.653 4.085 12.627 4.085 6.974 0 12.627-1.829 12.627-4.085v-14.1c0-2.257-5.653-4.086-12.627-4.086z"/>
    </g>
</svg>
