<svg xmlns="http://www.w3.org/2000/svg" width="96" height="96" viewBox="0 0 96 96">
    <g fill="none" fill-rule="evenodd">
        <path stroke="#16A122" stroke-linecap="round" stroke-linejoin="round" d="M40.934 63.294L16.51 51.18a1.817 1.817 0 0 1-.82-2.434l5.596-8.543a1.815 1.815 0 0 1 2.432-.82L47.236 50.59c.899.445 1.159 1.217.714 2.115l-4.582 9.77a1.816 1.816 0 0 1-2.434.819zM55.657 63.294L80.082 51.18a1.817 1.817 0 0 0 .82-2.434l-5.596-8.543a1.815 1.815 0 0 0-2.433-.82L49.356 50.59c-.898.445-1.085 1.544-.638 2.442l4.505 9.443a1.816 1.816 0 0 0 2.434.819z"/>
        <path stroke="#16A122" stroke-linecap="round" stroke-linejoin="round" d="M74.919 53.928v13.665-.783 2.88s.075 1.21-1.362 1.89c-1.438.683-21.487 11.956-21.487 11.956-3.723 1.975-7.007-.016-7.007-.016S24.487 72.263 23.05 71.58c-1.438-.68-1.362-1.89-1.362-1.89v-2.88.783-13.666M48.347 80.699V61.766M22.404 39.272l13.635-4.256M73.915 39.172l-7.385-2.305M46.198 50.094s2.286.91 4.482-.136M57.97 30.48a7.044 7.044 0 0 1 2.483 4.783c1.795.903 3.726.397 3.726.397-.337-5.613-4.858-5.376-6.208-5.18zM51.323 29.11s1.664 5.705-5.032 7.757M51.323 29.11s1.816 5.66 8.513 3.607"/>
        <path fill="#16A122" d="M51.533 37.11a.85.85 0 1 1-1.627.5.85.85 0 0 1 1.627-.5M57.264 35.355a.851.851 0 1 1-1.628.498.851.851 0 0 1 1.628-.498"/>
        <path stroke="#16A122" stroke-linecap="round" stroke-linejoin="round" d="M52.692 39.761s.707.95 2.001.552c1.293-.396 1.461-1.613 1.461-1.613M46.625 37.958a7.054 7.054 0 0 1-.05-3.962c-1.354.693-4.868 3.036-2.104 7.7 0 0 1.794-.624 2.792-2.281a7.085 7.085 0 0 1-.638-1.457z"/>
        <path stroke="#16A122" stroke-linecap="round" stroke-linejoin="round" d="M60.17 33.808a7.084 7.084 0 1 1-13.544 4.148 7.084 7.084 0 0 1 13.544-4.148zM50.85 14.168l8.465-1.668M52.573 22.92l-1.724-8.752 8.466-1.668 1.725 8.752M51.337 16.64l8.466-1.666"/>
        <path stroke="#16A122" stroke-linecap="round" stroke-linejoin="round" d="M47.852 23.53a2.375 2.375 0 1 0 4.66-.918 2.375 2.375 0 0 0-4.66.917zM56.317 21.862a2.375 2.375 0 1 0 4.66-.917 2.375 2.375 0 0 0-4.66.917zM39.562 33.27l-10.646-3.343a2.006 2.006 0 0 1-1.31-2.507l1.951-6.213a2.006 2.006 0 0 1 2.507-1.309l10.646 3.343a2.006 2.006 0 0 1 1.31 2.507l-1.95 6.213a2.005 2.005 0 0 1-2.508 1.31z"/>
        <path stroke="#16A122" stroke-linecap="round" stroke-linejoin="round" d="M30.241 27.012l2.846-2.164 1.114 3.407M33.648 26.553l2.846-2.163 1.935 5.28M41.474 26.108a.97.97 0 1 1-1.85-.582.97.97 0 0 1 1.85.582z"/>
    </g>
</svg>
