<svg id="1e28857a-a53a-4d26-af99-d670e8341002" xmlns="http://www.w3.org/2000/svg" viewBox="0 0 17.72 18"><title>question</title><path d="M9,18A8.94,8.94,0,0,1,.14,9,8.94,8.94,0,0,1,9,0a8.94,8.94,0,0,1,8.86,9A8.94,8.94,0,0,1,9,18ZM9,1.06A7.88,7.88,0,0,0,1.2,9,7.88,7.88,0,0,0,9,16.94,7.88,7.88,0,0,0,16.8,9,7.88,7.88,0,0,0,9,1.06Z" transform="translate(-0.14)"/><path d="M9.19,3.71a3.13,3.13,0,0,0-2.37.89A3.25,3.25,0,0,0,6,7H7.39a2.35,2.35,0,0,1,.37-1.41A1.5,1.5,0,0,1,9.1,5a1.57,1.57,0,0,1,1.16.42,1.59,1.59,0,0,1,.4,1.14,1.64,1.64,0,0,1-.38,1L10,7.79A6.82,6.82,0,0,0,8.5,9.51a2.8,2.8,0,0,0-.27,1.32v0.24H9.68V10.83A1.89,1.89,0,0,1,9.9,9.92a2.3,2.3,0,0,1,.57-0.72,14,14,0,0,0,1.15-1.08,2.71,2.71,0,0,0,.52-1.69,2.52,2.52,0,0,0-.82-2,3,3,0,0,0-2.13-.73h0ZM8.95,11.81a1,1,0,0,0-.71.28A0.93,0.93,0,0,0,8,12.8a1,1,0,0,0,1,1,1,1,0,0,0,.71-0.28A1,1,0,0,0,10,12.8a0.93,0.93,0,0,0-.29-0.71,1,1,0,0,0-.72-0.28h0Z" transform="translate(-0.14)"/></svg>
