<svg version="1.1" id="Layer_1" xmlns="http://www.w3.org/2000/svg" xmlns:xlink="http://www.w3.org/1999/xlink" x="0px" y="0px"
	 viewBox="0 0 445 445" style="enable-background:new 0 0 445 445;" xml:space="preserve">
<g>
	<path d="M205,0c11.7,0,23.3,0,35,0c0.9,0.3,1.8,0.7,2.8,0.9c20.4,4,34.4,15.8,39.3,35.8c2.2,9,5.8,13.6,14.3,16.3
		c4.3,1.4,7.1,1.3,10.8-1.4c19.3-14.2,45.4-12.4,62.8,4c6.7,6.3,13.1,12.8,19.4,19.4c14.9,15.7,18.6,39.8,7,57.6
		c-5.4,8.3-5.9,14.7-1.5,22.9c1.8,3.3,3.4,5.1,7.2,5.6c12.7,1.8,23.2,7.8,31.5,17.6c6.5,7.6,9.2,16.8,11.5,26.2c0,11.7,0,23.3,0,35
		c-0.3,1.1-0.7,2.2-1,3.3c-4.2,20-15.9,34-35.7,38.8c-9,2.2-13.6,5.9-16.3,14.2c-1.4,4.3-1.3,7.1,1.4,10.8
		c14.2,19.3,12.5,45.4-4,62.8c-6.3,6.7-12.8,13.1-19.4,19.4c-16,15.1-39.6,18.6-58,6.8c-8.3-5.3-14.5-5.3-22.5-1.2
		c-3.3,1.7-5.1,3.4-5.7,7.1c-2.7,17.1-11.7,30-27.3,37.6c-5.4,2.7-11.6,3.7-17.5,5.5c-11,0-22,0-33,0c-1.1-0.3-2.2-0.7-3.3-0.9
		c-20.8-3.9-34.9-15.9-39.9-36.4c-2.1-8.7-5.7-12.9-13.6-15.6c-4.4-1.5-7.4-1.5-11.2,1.3c-19.4,14.1-45.3,12.4-62.8-4.1
		c-6.7-6.3-13.1-12.8-19.4-19.4c-14.9-15.8-18.6-39.3-7-57.6c5.3-8.4,5.7-14.7,1.4-22.9c-1.7-3.3-3.4-5-7.2-5.6
		c-21.3-3.5-36.8-17.8-41.5-38c-0.5-1.9-1-3.8-1.4-5.7c0-11.7,0-23.3,0-35c0.3-0.9,0.7-1.8,0.9-2.8c4-20.6,16-34.5,36.2-39.5
		c8.6-2.1,13-5.5,15.7-13.6c1.5-4.4,1.7-7.4-1.2-11.3c-14.2-19.4-12.5-45.3,4-62.8c6.3-6.7,12.8-13.1,19.4-19.4
		c15.8-14.9,39.5-18.6,57.6-7c8.4,5.4,14.7,5.7,22.9,1.4c3.3-1.7,5-3.3,5.7-7.1c3.4-20.1,14.8-33.8,34.2-40.4
		C198.5,1.4,201.8,0.8,205,0z M417,222.4c0-4.2,0.1-8.3,0-12.5c-0.3-12-8.7-21.4-20.5-23.7c-6.5-1.3-12.8-3.3-19.1-5.3
		c-1.4-0.5-2.8-2.1-3.4-3.6c-4.3-9.9-8.4-19.9-12.4-29.9c-0.5-1.4-0.9-3.4-0.3-4.5c3.1-6,6.2-12.2,10-17.8c6.3-9.4,6.5-21.3-1-29.6
		c-7.8-8.6-16.3-16.6-24.7-24.7c-4.5-4.4-10.1-5-15.8-2.5c-3.3,1.5-6.3,3.6-9.5,5.4c-6,3.5-12,7-18.2,10.2c-1.1,0.6-3.1,0-4.5-0.5
		c-9.9-4-19.7-8-29.5-12.2c-1.4-0.6-3.2-1.6-3.6-2.8c-2.1-6.3-4.2-12.6-5.4-19.1c-2.2-12.2-11.7-21-24.1-21.2
		c-8.2-0.1-16.3-0.1-24.5,0c-12.5,0.2-21.9,8.9-24.3,21.1c-1.2,5.9-3.8,11.6-6,17.3c-0.3,0.9-1.5,1.7-2.5,2.1
		c-10.6,4.4-21.2,8.8-31.8,13.1c-1.1,0.4-2.7,0.7-3.7,0.2c-5.4-2.6-11-5-16-8.2c-9.6-6.2-22.5-6.1-31,1.5
		c-7,6.3-13.8,13.1-20.1,20.1c-7.6,8.5-7.4,20.7-1.1,30.1c3.8,5.6,6.8,11.8,9.9,17.8c0.5,1.1,0.3,2.9-0.2,4.1
		c-4.1,10.2-8.3,20.3-12.6,30.4c-0.5,1.1-1.4,2.5-2.4,2.8c-6.3,2.1-12.6,4.5-19.1,5.6c-12.4,2.1-21.3,11.6-21.6,24.3
		c-0.1,8-0.1,16,0,24c0.2,13.2,9.1,22.6,22.2,24.8c6.3,1,12.4,3.5,18.6,5.6c1.1,0.4,1.9,2.1,2.4,3.4c4.1,9.8,8.2,19.6,12.2,29.5
		c0.6,1.4,0.9,3.4,0.3,4.5c-3.1,6.1-6.1,12.2-9.9,17.8c-6.5,9.6-6.3,21.9,1.5,30.5c6.2,6.8,12.7,13.3,19.5,19.4
		c8.7,7.8,20.8,7.9,30.5,1.4c5.6-3.8,11.8-6.8,17.8-9.9c1.1-0.5,2.9-0.3,4.1,0.2c10.2,4.1,20.3,8.3,30.4,12.6
		c1.1,0.5,2.5,1.4,2.8,2.4c2.1,6.3,4.5,12.6,5.6,19.1c2.1,12.4,11.7,21.4,24.3,21.6c8,0.1,16,0.1,24,0c13.2-0.2,22.7-9.2,24.7-22.2
		c1-6.3,3.5-12.4,5.6-18.6c0.3-1,1.8-1.8,2.9-2.3c10.1-4.3,20.2-8.5,30.4-12.6c1.2-0.5,3-0.8,4.1-0.2c6,3.1,12.2,6.2,17.8,10
		c9.5,6.4,21.5,6.5,30.1-1.1c7.1-6.3,13.8-13.1,20.1-20.1c7.7-8.5,7.6-20.6,1.2-30c-3.8-5.6-6.9-11.7-10-17.8
		c-0.6-1.1-0.1-3.1,0.4-4.5c4-9.9,8.1-19.7,12.2-29.4c0.6-1.4,1.5-3.3,2.8-3.7c6.1-2.1,12.3-4.3,18.6-5.4
		c12.7-2.1,21.6-11.6,21.8-24.6C417.1,230.4,417,226.4,417,222.4z"/>
	<path d="M222.6,153c38.4,0,69.5,31.3,69.4,69.8c-0.1,38.1-31.3,69.2-69.5,69.2c-38.4,0-69.5-31.4-69.4-69.8
		C153.2,184,184.4,153,222.6,153z M222.5,180.9c-22.9,0-41.5,18.4-41.6,41.1c-0.1,23.5,18.3,42.1,41.6,42.1
		c23.3,0,41.7-18.6,41.6-42.1C264,199.3,245.4,180.9,222.5,180.9z"/>
</g>
</svg>
