<svg xmlns="http://www.w3.org/2000/svg" width="17" height="19" viewBox="0 0 17 19">
    <g fill="none" fill-rule="evenodd">
        <path stroke="#E94F4F" stroke-linecap="round" stroke-linejoin="round" d="M15.8 14.213l-6.766 3.843c-.352.201-.787.2-1.14-.001L1.136 14.2a1.122 1.122 0 0 1-.57-.974l.007-7.7c0-.401.218-.772.57-.973L7.91.709a1.15 1.15 0 0 1 1.14.001l6.759 3.855c.351.201.569.573.569.975l-.007 7.7c0 .4-.218.771-.57.973z"/>
        <path stroke="#E94F4F" stroke-linecap="round" stroke-linejoin="round" d="M.88 5.052L7.905 9.06c.352.2.783.2 1.134.001l7.056-4.01"/>
        <path fill="#FFF" d="M8.464 18.051V9.383"/>
        <path stroke="#E94F4F" stroke-linecap="round" stroke-linejoin="round" d="M8.464 18.051V9.383"/>
        <g>
            <path fill="#FFF" d="M4.523 7.13l7.664-4.63"/>
            <path stroke="#E94F4F" stroke-linecap="round" stroke-linejoin="round" d="M4.523 7.13l7.664-4.63"/>
        </g>
    </g>
</svg>
