<svg xmlns="http://www.w3.org/2000/svg" width="67" height="73" viewBox="0 0 67 73">
    <g fill="none" fill-rule="evenodd">
        <path stroke="#E94F4F" d="M25.935 51.294L1.51 39.18a1.817 1.817 0 0 1-.82-2.434l5.596-8.543a1.814 1.814 0 0 1 2.433-.82l23.517 11.206c.898.446 1.159 1.218.713 2.116l-4.58 9.769a1.818 1.818 0 0 1-2.434.82zM40.657 51.294L65.082 39.18a1.817 1.817 0 0 0 .82-2.434l-5.596-8.543a1.814 1.814 0 0 0-2.433-.82L34.355 38.589c-.898.446-1.084 1.545-.637 2.443l4.505 9.442a1.817 1.817 0 0 0 2.434.82z"/>
        <path stroke="#E94F4F" d="M59.919 41.928v13.665-.782 2.879s.075 1.21-1.362 1.89c-1.438.682-21.487 11.956-21.487 11.956-3.723 1.976-7.007-.015-7.007-.015S9.487 60.26 8.05 59.58c-1.438-.68-1.362-1.891-1.362-1.891v-2.88l-.001.783V41.928"/>
        <path stroke="#E94F4F" stroke-linecap="round" stroke-linejoin="round" d="M33.347 68.7V49.765M7.404 27.272l13.635-4.256M58.914 27.172l-7.385-2.305"/>
        <path stroke="#E94F4F" d="M31.198 38.095s2.286.91 4.481-.137"/>
        <path stroke="#E94F4F" stroke-linecap="round" stroke-linejoin="round" d="M42.97 18.48a7.044 7.044 0 0 1 2.483 4.783c1.795.903 3.725.396 3.725.396-.336-5.612-4.858-5.375-6.207-5.18z"/>
        <path stroke="#E94F4F" d="M36.322 17.11s1.665 5.706-5.03 7.757M36.322 17.11s1.817 5.659 8.514 3.607"/>
        <path fill="#E94F4F" d="M36.533 25.11a.851.851 0 1 1-1.627.499.851.851 0 0 1 1.627-.499M42.264 23.354a.85.85 0 1 1-1.627.5.85.85 0 0 1 1.627-.5"/>
        <path stroke="#E94F4F" stroke-linecap="round" stroke-linejoin="round" d="M37.693 27.761s.707.95 2 .553a2.092 2.092 0 0 0 1.462-1.614M31.625 25.957a7.05 7.05 0 0 1-.049-3.96c-1.355.692-4.869 3.035-2.106 7.7 0 0 1.795-.625 2.793-2.282a7.061 7.061 0 0 1-.638-1.457z"/>
        <path stroke="#E94F4F" d="M45.17 21.808a7.083 7.083 0 1 1-13.545 4.15 7.083 7.083 0 0 1 13.545-4.15z"/>
        <path stroke="#E94F4F" stroke-linecap="round" stroke-linejoin="round" d="M35.85 2.167L44.316.5M37.573 10.92L35.85 2.166 44.315.5l1.724 8.752M36.336 4.641l8.467-1.668"/>
        <path stroke="#E94F4F" stroke-linecap="round" stroke-linejoin="round" d="M32.85 11.53a2.377 2.377 0 0 0 4.663-.919 2.376 2.376 0 0 0-4.662.918zM41.318 9.861a2.376 2.376 0 1 0 4.662-.919 2.376 2.376 0 0 0-4.662.92zM24.563 21.27l-10.646-3.342a2.007 2.007 0 0 1-1.31-2.508l1.95-6.213a2.006 2.006 0 0 1 2.508-1.309l10.646 3.343a2.006 2.006 0 0 1 1.31 2.507l-1.951 6.213a2.005 2.005 0 0 1-2.507 1.309z"/>
        <path stroke="#E94F4F" stroke-linecap="round" stroke-linejoin="round" d="M15.241 15.012l2.846-2.163 1.114 3.407M18.648 14.553l2.846-2.164 1.936 5.281M26.475 14.108a.97.97 0 1 1-1.85-.582.97.97 0 0 1 1.85.582z"/>
    </g>
</svg>
