<svg xmlns="http://www.w3.org/2000/svg" width="17" height="19" viewBox="0 0 17 19">
    <g fill="none" fill-rule="evenodd" stroke="#9B9B9B" stroke-linecap="round" stroke-linejoin="round">
        <path d="M15.8 14.212l-6.766 3.844c-.352.201-.787.2-1.14-.001L1.136 14.2a1.122 1.122 0 0 1-.57-.974l.007-7.699c0-.402.218-.773.57-.974L7.91.709c.353-.201.787-.2 1.14.001l6.759 3.855c.351.202.569.573.569.975l-.007 7.699c0 .401-.218.772-.57.973z"/>
        <path d="M.88 5.052L7.905 9.06c.352.2.783.2 1.134 0l7.056-4.008M8.464 18.051V9.383M4.523 7.13l7.664-4.63"/>
    </g>
</svg>
