<?xml version="1.0" encoding="utf-8"?>
<!-- Generator: Adobe Illustrator 20.1.0, SVG Export Plug-In . SVG Version: 6.00 Build 0)  -->
<svg version="1.1" xmlns="http://www.w3.org/2000/svg" xmlns:xlink="http://www.w3.org/1999/xlink" x="0px" y="0px"
	 viewBox="0 0 19 19" style="enable-background:new 0 0 19 19;" xml:space="preserve">
<title>upload</title>
<desc>Created with Sketch.</desc>
<path d="M14.3,16.3c0-0.2-0.1-0.4-0.2-0.5c-0.1-0.1-0.3-0.2-0.5-0.2c-0.2,0-0.4,0.1-0.5,0.2c-0.1,0.1-0.2,0.3-0.2,0.5
	c0,0.2,0.1,0.4,0.2,0.5c0.1,0.1,0.3,0.2,0.5,0.2c0.2,0,0.4-0.1,0.5-0.2C14.2,16.6,14.3,16.5,14.3,16.3L14.3,16.3z M17.1,16.3
	c0-0.2-0.1-0.4-0.2-0.5c-0.1-0.1-0.3-0.2-0.5-0.2c-0.2,0-0.4,0.1-0.5,0.2c-0.1,0.1-0.2,0.3-0.2,0.5c0,0.2,0.1,0.4,0.2,0.5
	c0.1,0.1,0.3,0.2,0.5,0.2c0.2,0,0.4-0.1,0.5-0.2C17.1,16.6,17.1,16.5,17.1,16.3L17.1,16.3z M18.6,13.8v3.6c0,0.3-0.1,0.6-0.3,0.8
	c-0.2,0.2-0.5,0.3-0.8,0.3H1.1c-0.3,0-0.6-0.1-0.8-0.3S0,17.7,0,17.4v-3.6c0-0.3,0.1-0.6,0.3-0.8c0.2-0.2,0.5-0.3,0.8-0.3h4.8
	c0.2,0.4,0.4,0.8,0.8,1C7,14,7.4,14.1,7.9,14.1h2.9c0.5,0,0.9-0.1,1.2-0.4c0.4-0.3,0.6-0.6,0.8-1h4.8c0.3,0,0.6,0.1,0.8,0.3
	C18.5,13.2,18.6,13.5,18.6,13.8L18.6,13.8z M14.9,6.6C14.8,6.9,14.6,7,14.3,7h-2.9v5c0,0.2-0.1,0.4-0.2,0.5
	c-0.1,0.1-0.3,0.2-0.5,0.2H7.9c-0.2,0-0.4-0.1-0.5-0.2c-0.1-0.1-0.2-0.3-0.2-0.5V7H4.3C4,7,3.8,6.9,3.6,6.6C3.5,6.3,3.6,6,3.8,5.8
	l5-5c0.1-0.1,0.3-0.2,0.5-0.2s0.4,0.1,0.5,0.2l5,5C15,6,15.1,6.3,14.9,6.6L14.9,6.6z"/>
</svg>
